<?xml version="1.0" standalone="no"?>
<!DOCTYPE svg PUBLIC "-//W3C//DTD SVG 1.1//EN" "http://www.w3.org/Graphics/SVG/1.1/DTD/svg11.dtd" >
<svg>
<metadata>
Created by FontForge 20120731 at Wed Nov 26 06:29:13 2014
 By Orthosie Webhosting
Copyright (c) 2005 by OurType. Sansa is a design by Fred Smeijers. All rights reserved.
</metadata>
<defs>
<font id="SansaSoftProLight" horiz-adv-x="625" >
  <font-face 
    font-family="SansaSoftProLight"
    font-weight="300"
    font-stretch="normal"
    units-per-em="1000"
    panose-1="2 0 6 3 8 0 0 2 0 4"
    ascent="812"
    descent="-188"
    x-height="547"
    cap-height="750"
    bbox="-204 -219 1269 1031"
    underline-thickness="21"
    underline-position="-113"
    unicode-range="U+0020-FB02"
  />
<missing-glyph horiz-adv-x="500" 
d="M0 0v700h500v-700h-500zM250 395l170 255h-340zM280 350l170 -255v510zM80 50h340l-170 255zM50 605v-510l170 255z" />
    <glyph glyph-name="fi" unicode="fi" horiz-adv-x="570" 
d="M437 504h-257v-488q0 -16 -16 -16h-16q-15 0 -15 16v488h-86q-16 0 -16 16v11q0 16 16 16h86v39q0 79 42.5 121.5t121.5 42.5h39q16 0 16 -16v-11q0 -16 -16 -16h-39q-61 0 -89 -29.5t-28 -91.5v-39h289q15 0 15 -16v-515q0 -16 -15 -16h-16q-16 0 -16 16v488zM437 687
v47q0 16 16 16h16q15 0 15 -16v-47q0 -15 -15 -15h-16q-16 0 -16 15z" />
    <glyph glyph-name="fl" unicode="fl" horiz-adv-x="574" 
d="M434 707h-137q-61 0 -89 -29.5t-28 -91.5v-39h140q16 0 16 -16v-11q0 -16 -16 -16h-140v-488q0 -16 -16 -16h-16q-15 0 -15 16v488h-86q-16 0 -16 16v11q0 16 16 16h86v39q0 79 42.5 121.5t121.5 42.5h168q15 0 15 -16v-718q0 -16 -15 -16h-16q-15 0 -15 16v691z" />
    <glyph glyph-name="f_f" unicode="ff" horiz-adv-x="641" 
d="M437 16v488h-257v-488q0 -16 -16 -16h-16q-15 0 -15 16v488h-86q-16 0 -16 16v11q0 16 16 16h86v39q0 79 42.5 121.5t121.5 42.5h39q16 0 16 -16v-11q0 -16 -16 -16h-39q-61 0 -89 -29.5t-28 -91.5v-39h257v39q0 79 43 121.5t122 42.5h39q15 0 15 -16v-11q0 -16 -15 -16
h-39q-61 0 -89.5 -29.5t-28.5 -91.5v-39h141q16 0 16 -16v-11q0 -16 -16 -16h-141v-488q0 -16 -15 -16h-16q-16 0 -16 16z" />
    <glyph glyph-name="f_f_i" unicode="ffi" horiz-adv-x="883" 
d="M789 531v-515q0 -16 -16 -16h-15q-16 0 -16 16v488h-258v-488q0 -16 -15 -16h-16q-16 0 -16 16v488h-257v-488q0 -16 -16 -16h-16q-15 0 -15 16v488h-86q-16 0 -16 16v11q0 16 16 16h86v39q0 79 42.5 121.5t121.5 42.5h39q16 0 16 -16v-11q0 -16 -16 -16h-39
q-61 0 -89 -29.5t-28 -91.5v-39h257v39q0 79 43 121.5t122 42.5h39q15 0 15 -16v-11q0 -16 -15 -16h-39q-61 0 -89.5 -29.5t-28.5 -91.5v-39h289q16 0 16 -16zM742 687v47q0 16 16 16h15q16 0 16 -16v-47q0 -15 -16 -15h-15q-16 0 -16 15z" />
    <glyph glyph-name="f_f_l" unicode="ffl" horiz-adv-x="879" 
d="M336 707h-39q-61 0 -89 -29.5t-28 -91.5v-39h257v39q0 79 43 121.5t122 42.5h168q15 0 15 -16v-718q0 -16 -15 -16h-16q-16 0 -16 16v691h-136q-61 0 -89.5 -29.5t-28.5 -91.5v-39h141q16 0 16 -16v-11q0 -16 -16 -16h-141v-488q0 -16 -15 -16h-16q-16 0 -16 16v488h-257
v-488q0 -16 -16 -16h-16q-15 0 -15 16v488h-86q-16 0 -16 16v11q0 16 16 16h86v39q0 79 42.5 121.5t121.5 42.5h39q16 0 16 -16v-11q0 -16 -16 -16z" />
    <glyph glyph-name="f_t" unicode="ft" horiz-adv-x="684" 
d="M637 0h-39q-91 0 -127.5 45.5t-36.5 142.5v316h-254v-488q0 -16 -16 -16h-16q-15 0 -15 16v488h-86q-16 0 -16 16v11q0 16 16 16h86v39q0 79 42.5 121.5t121.5 42.5h39q16 0 16 -16v-11q0 -16 -16 -16h-39q-61 0 -89 -29.5t-28 -91.5v-39h254v109q0 16 15 16h16
q15 0 15 -16v-109h141q16 0 16 -16v-11q0 -16 -16 -16h-141v-332q0 -68 29.5 -98.5t95.5 -30.5h32q15 0 15 -16v-11q0 -16 -15 -16z" />
    <glyph glyph-name="f_j" unicode="fj" horiz-adv-x="578" 
d="M281 -188h-8q-15 0 -15 16v12q0 15 15 15h8q84 0 120 49.5t36 142.5v457h-257v-488q0 -16 -16 -16h-16q-15 0 -15 16v488h-86q-16 0 -16 16v11q0 16 16 16h86v39q0 79 42.5 121.5t121.5 42.5h39q16 0 16 -16v-11q0 -16 -16 -16h-39q-61 0 -89 -29.5t-28 -91.5v-39h289
q15 0 15 -16v-468q0 -122 -47 -186.5t-156 -64.5zM437 687v47q0 16 16 16h16q15 0 15 -16v-47q0 -15 -15 -15h-16q-16 0 -16 15z" />
    <glyph glyph-name="f_b" unicode="fb" horiz-adv-x="895" 
d="M320 504h-140v-488q0 -16 -16 -16h-16q-15 0 -15 16v488h-86q-16 0 -16 16v11q0 16 16 16h86v39q0 79 42.5 121.5t121.5 42.5h172q15 0 15 -16v-308l36 35q28 29 47 45t54.5 32.5t73.5 16.5q68 0 104.5 -47.5t36.5 -120.5v-133q0 -116 -73.5 -185t-192.5 -69h-117
q-16 0 -16 16v691h-140q-61 0 -89 -29.5t-28 -91.5v-39h140q16 0 16 -16v-11q0 -16 -16 -16zM539 426l-55 -55v-328h90q100 0 157.5 55t57.5 152v137q0 56 -25.5 90.5t-76.5 34.5q-39 0 -73 -22.5t-75 -63.5z" />
    <glyph glyph-name="f_h" unicode="fh" horiz-adv-x="922" 
d="M320 504h-140v-488q0 -16 -16 -16h-16q-15 0 -15 16v488h-86q-16 0 -16 16v11q0 16 16 16h86v39q0 79 42.5 121.5t121.5 42.5h172q15 0 15 -16v-308l39 39q25 24 40.5 37.5t52.5 33t71 19.5q141 0 141 -164v-375q0 -16 -16 -16h-15q-16 0 -16 16v375q0 121 -97 121
q-27 0 -60 -19t-52 -36t-49 -47l-39 -39v-355q0 -16 -15 -16h-16q-16 0 -16 16v691h-140q-61 0 -89 -29.5t-28 -91.5v-39h140q16 0 16 -16v-11q0 -16 -16 -16z" />
    <glyph glyph-name="f_k" unicode="fk" horiz-adv-x="816" 
d="M437 16v691h-140q-61 0 -89 -29.5t-28 -91.5v-39h156v-43h-156v-488q0 -16 -16 -16h-16q-15 0 -15 16v488h-86q-16 0 -16 16v11q0 16 16 16h86v39q0 79 42.5 121.5t121.5 42.5h172q15 0 15 -16v-414h63l175 211q11 16 23 16h24q7 0 9.5 -4.5t-3.5 -11.5l-193 -230
l205 -285q12 -16 -8 -16h-25q-12 0 -23 16l-188 261h-59v-261q0 -16 -15 -16h-16q-16 0 -16 16z" />
    <glyph glyph-name=".notdef" horiz-adv-x="500" 
d="M0 0v700h500v-700h-500zM250 395l170 255h-340zM280 350l170 -255v510zM80 50h340l-170 255zM50 605v-510l170 255z" />
    <glyph glyph-name=".null" horiz-adv-x="0" 
 />
    <glyph glyph-name="nonmarkingreturn" horiz-adv-x="333" 
 />
    <glyph glyph-name="space" unicode=" " horiz-adv-x="266" 
 />
    <glyph glyph-name="exclam" unicode="!" horiz-adv-x="273" 
d="M109 16v62q0 16 16 16h23q16 0 16 -16v-62q0 -16 -16 -16h-23q-16 0 -16 16zM121 234l-12 500q0 16 16 16h27q16 0 16 -16l-12 -500q0 -15 -15 -15h-4q-16 0 -16 15z" />
    <glyph glyph-name="quotedbl" unicode="&#x22;" horiz-adv-x="445" 
d="M101 562l-7 172q0 16 15 16h24q15 0 15 -16l-6 -172q0 -15 -16 -15h-10q-15 0 -15 15zM272 562l-6 172q0 16 15 16h24q15 0 15 -16l-7 -172q0 -15 -15 -15h-10q-16 0 -16 15z" />
    <glyph glyph-name="numbersign" unicode="#" 
d="M47 230h129v290h-129q-16 0 -16 15v8q0 16 16 16h129v175q0 16 15 16h8q16 0 16 -16v-175h195v175q0 16 16 16h8q15 0 15 -16v-175h129q16 0 16 -16v-8q0 -15 -16 -15h-129v-290h129q16 0 16 -15v-8q0 -16 -16 -16h-129v-175q0 -16 -15 -16h-8q-16 0 -16 16v175h-195
v-175q0 -16 -16 -16h-8q-15 0 -15 16v175h-129q-16 0 -16 16v8q0 15 16 15zM215 520v-290h195v290h-195z" />
    <glyph glyph-name="dollar" unicode="$" 
d="M105 19q-15 3 -15 19v22q0 7 5 10t12 0q95 -31 170 -31h35q78 0 125 42.5t47 117.5q0 116 -109 149l-109 31q-82 23 -122.5 64.5t-40.5 119.5q0 89 56 138t150 56v95q0 15 15 15h20q15 0 15 -15v-94q76 -3 141 -23q16 -5 16 -19v-18q0 -16 -17 -11q-89 24 -151 24h-16
q-83 0 -131.5 -36.5t-48.5 -111.5q0 -101 106 -129l109 -32q82 -23 125 -70t43 -133q0 -96 -60 -150.5t-159 -56.5v-101q0 -16 -15 -16h-20q-15 0 -15 16v101q-90 4 -161 27z" />
    <glyph glyph-name="percent" unicode="%" horiz-adv-x="938" 
d="M671 737l-367 -724q-7 -13 -18 -13h-11q-10 0 -10 7q0 2 2 6l367 724q7 13 17 13h11q11 0 11 -7q0 -2 -2 -6zM244 320q-167 0 -167 217q0 218 167 218q166 0 166 -218q0 -217 -166 -217zM244 360q58 0 87.5 42t29.5 135t-29.5 135t-87.5 42q-59 0 -89 -42t-30 -135
q0 -177 119 -177zM696 -4q-167 0 -167 217q0 218 167 218q82 0 124 -56t42 -162q0 -217 -166 -217zM696 36q58 0 87.5 42t29.5 135t-29.5 135t-87.5 42q-59 0 -89 -42t-30 -135q0 -177 119 -177z" />
    <glyph glyph-name="ampersand" unicode="&#x26;" horiz-adv-x="656" 
d="M324 39q86 0 145 24v312h-172q-66 0 -109 -47.5t-43 -116.5q0 -80 49.5 -126t129.5 -46zM492 684q-64 27 -144 27h-8q-69 0 -120.5 -42t-51.5 -114q0 -52 32 -92.5t77 -40.5h317q15 0 15 -16v-15q0 -16 -15 -16h-74v-344q-96 -39 -196 -39q-106 0 -168 60.5t-62 158.5
q0 58 30 107.5t83 76.5q-41 20 -65.5 64.5t-24.5 95.5q0 86 66.5 144.5t156.5 58.5h8q83 0 144 -25q16 -6 16 -19v-19q0 -12 -10 -12q-4 0 -6 1z" />
    <glyph glyph-name="quotesingle" unicode="'" horiz-adv-x="242" 
d="M101 562l-7 172q0 16 15 16h24q15 0 15 -16l-6 -172q0 -15 -16 -15h-10q-15 0 -15 15z" />
    <glyph glyph-name="parenleft" unicode="(" horiz-adv-x="297" 
d="M250 -109q7 -6 7 -10q0 -6 -11 -6h-11q-9 0 -28 16q-76 64 -118 170t-42 236v31q0 130 42 236t118 170q19 16 28 16h11q11 0 11 -6q0 -4 -7 -10q-156 -135 -156 -406v-31q0 -270 156 -406z" />
    <glyph glyph-name="parenright" unicode=")" horiz-adv-x="297" 
d="M47 -109q156 136 156 406v31q0 271 -156 406q-7 6 -7 10q0 6 11 6h11q9 0 28 -16q76 -64 118 -170.5t42 -235.5v-31q0 -129 -42 -235.5t-118 -170.5q-19 -16 -28 -16h-11q-11 0 -11 6q0 4 7 10z" />
    <glyph glyph-name="asterisk" unicode="*" horiz-adv-x="500" 
d="M428 618l-131 -75l131 -75q8 -5 8 -13q0 -6 -2 -9l-8 -13q-4 -9 -13 -9q-5 0 -9 3l-131 75v-150q0 -16 -15 -16h-16q-15 0 -15 16v150l-131 -75q-4 -3 -9 -3q-9 0 -13 9l-8 13q-2 3 -2 8q0 9 8 14l130 75l-130 75q-8 5 -8 13q0 6 2 9l8 13q4 9 13 9q5 0 9 -3l131 -75v150
q0 16 15 16h16q15 0 15 -16v-150l131 75q4 3 9 3q9 0 13 -9l8 -13q2 -3 2 -8q0 -9 -8 -14z" />
    <glyph glyph-name="plus" unicode="+" 
d="M332 570v-183h184q15 0 15 -16v-8q0 -15 -15 -15h-184v-184q0 -16 -16 -16h-7q-16 0 -16 16v184h-184q-15 0 -15 15v8q0 16 15 16h184v183q0 16 16 16h7q16 0 16 -16z" />
    <glyph glyph-name="comma" unicode="," horiz-adv-x="273" 
d="M157 32l-68 -142q-7 -15 -19 -15h-4q-16 0 -11 15l50 188q5 16 19 16h24q16 0 16 -16v-12q0 -20 -7 -34z" />
    <glyph glyph-name="hyphen" unicode="-" horiz-adv-x="406" 
d="M79 387h249q16 0 16 -16v-8q0 -15 -16 -15h-249q-16 0 -16 15v8q0 16 16 16z" />
    <glyph glyph-name="hyphen" unicode="&#xad;" horiz-adv-x="406" 
d="M79 387h249q16 0 16 -16v-8q0 -15 -16 -15h-249q-16 0 -16 15v8q0 16 16 16z" />
    <glyph glyph-name="period" unicode="." horiz-adv-x="273" 
d="M109 16v62q0 16 16 16h23q16 0 16 -16v-62q0 -16 -16 -16h-23q-16 0 -16 16z" />
    <glyph glyph-name="slash" unicode="/" horiz-adv-x="461" 
d="M31 -109l357 843q6 16 20 16h10q13 0 13 -10q0 -4 -1 -6l-357 -843q-6 -16 -20 -16h-10q-13 0 -13 10q0 4 1 6z" />
    <glyph glyph-name="zero" unicode="0" 
d="M313 -8q-247 0 -247 383t247 383q122 0 184 -97t62 -286q0 -383 -246 -383zM313 39q97 0 146 79t49 257t-49 257t-146 79t-146.5 -79t-49.5 -257q0 -336 196 -336z" />
    <glyph glyph-name="one" unicode="1" 
d="M328 691l-195 -86q-2 -1 -7 -1q-9 0 -9 12v20q0 13 16 19l210 91q10 4 16 4h4q16 0 16 -16v-718q0 -16 -16 -16h-19q-16 0 -16 16v675z" />
    <glyph glyph-name="two" unicode="2" 
d="M94 16v62q0 176 172 258l74 35q144 68 144 180q0 45 -14.5 76t-41.5 47t-57.5 22.5t-69.5 6.5h-160q-16 0 -16 16v15q0 16 16 16h160q116 0 175 -51t59 -148q0 -135 -191 -227l-74 -35q-129 -61 -129 -211v-31h382q16 0 16 -16v-15q0 -16 -16 -16h-414q-15 0 -15 16z" />
    <glyph glyph-name="three" unicode="3" 
d="M289 0h-180q-15 0 -15 16v15q0 16 15 16h180q95 0 149 47t54 136q0 157 -183 157h-110q-15 0 -15 15v16q0 16 15 16h168q102 59 102 144q0 125 -168 125h-172q-16 0 -16 16v15q0 16 16 16h172q105 0 162 -44.5t57 -127.5q0 -100 -106 -160q129 -45 129 -188
q0 -103 -69 -166.5t-185 -63.5z" />
    <glyph glyph-name="four" unicode="4" 
d="M51 211v12q0 10 9 23q147 206 188 488q2 16 17 16h19q15 0 15 -13q0 -3 -5 -30q-45 -265 -185 -465h309v235q0 15 16 15h19q16 0 16 -15v-235h82q15 0 15 -15v-16q0 -16 -15 -16h-82v-179q0 -16 -16 -16h-19q-16 0 -16 16v179h-352q-15 0 -15 16z" />
    <glyph glyph-name="five" unicode="5" 
d="M492 703h-328v-242h113q126 0 188 -58t62 -157q0 -46 -14.5 -88t-43 -78.5t-79.5 -58t-117 -21.5h-160q-15 0 -15 16v15q0 16 15 16h160q101 0 152.5 51.5t51.5 147.5q0 168 -200 168h-148q-16 0 -16 16v304q0 16 16 16h363q16 0 16 -16v-15q0 -16 -16 -16z" />
    <glyph glyph-name="six" unicode="6" 
d="M313 39q82 0 130.5 46.5t48.5 148.5q0 180 -168 180q-89 0 -179 -63v-124q0 -188 168 -188zM484 703h-101q-116 0 -177 -64.5t-61 -185.5v-56q91 64 179 64q106 0 162.5 -58t56.5 -169q0 -64 -22.5 -117t-76 -89t-131.5 -36q-219 0 -219 238v243q0 54 18 102.5t52.5 88
t93 63t133.5 23.5h93q16 0 16 -16v-15q0 -16 -16 -16z" />
    <glyph glyph-name="seven" unicode="7" 
d="M285 66v-50q0 -16 -15 -16h-20q-16 0 -16 16v31q0 127 46 262.5t101.5 227t118.5 166.5h-421q-16 0 -16 16v15q0 16 16 16h469q15 0 15 -16v-7q0 -12 -7 -20q-271 -324 -271 -641z" />
    <glyph glyph-name="eight" unicode="8" 
d="M293 -8q-97 0 -154 50.5t-57 156.5q0 105 102 168l53 34l-3 1q-129 55 -129 172q0 94 59.5 139t140.5 45h27q82 0 136.5 -43.5t54.5 -136.5q0 -42 -12.5 -72.5t-30.5 -48t-54 -43.5l-40 -28l16 -7q66 -28 101.5 -69.5t35.5 -110.5q0 -98 -61.5 -152.5t-153.5 -54.5h-31z
M345 404l34 26q50 37 72 67t22 81q0 133 -149 133h-11q-157 0 -157 -137q0 -88 94 -129zM301 39h15q172 0 172 160q0 93 -101 137l-109 48l-48 -32q-23 -15 -33.5 -23.5t-28.5 -28t-26.5 -44.5t-8.5 -57q0 -160 168 -160z" />
    <glyph glyph-name="nine" unicode="9" 
d="M305 344q94 0 175 52v131q0 184 -167 184q-81 0 -126.5 -42.5t-45.5 -145.5q0 -179 164 -179zM148 47h98q234 0 234 230v73q-88 -53 -175 -53q-105 0 -160 59t-55 167q0 102 56 168.5t167 66.5q108 0 163 -60t55 -175v-246q0 -55 -15.5 -103t-47 -88t-87.5 -63t-131 -23
h-102q-15 0 -15 16v15q0 16 15 16z" />
    <glyph glyph-name="colon" unicode=":" horiz-adv-x="273" 
d="M109 16v62q0 16 16 16h23q16 0 16 -16v-62q0 -16 -16 -16h-23q-16 0 -16 16zM109 469v62q0 16 16 16h23q16 0 16 -16v-62q0 -16 -16 -16h-23q-16 0 -16 16z" />
    <glyph glyph-name="semicolon" unicode=";" horiz-adv-x="273" 
d="M109 469v62q0 16 16 16h23q16 0 16 -16v-62q0 -16 -16 -16h-23q-16 0 -16 16zM157 32l-68 -142q-7 -15 -19 -15h-4q-12 0 -12 10q0 3 1 5l50 188q5 16 19 16h24q16 0 16 -16v-12q0 -20 -7 -34z" />
    <glyph glyph-name="less" unicode="&#x3c;" 
d="M516 129l-407 211q-15 8 -15 19v15q0 13 15 21l407 210q4 2 6 2q9 0 9 -12v-16q0 -13 -15 -20l-368 -192l368 -191q15 -8 15 -21v-15q0 -13 -9 -13q-2 0 -6 2z" />
    <glyph glyph-name="equal" unicode="=" 
d="M109 277h407q15 0 15 -15v-8q0 -16 -15 -16h-407q-15 0 -15 16v8q0 15 15 15zM109 496h407q15 0 15 -16v-7q0 -16 -15 -16h-407q-15 0 -15 16v7q0 16 15 16z" />
    <glyph glyph-name="greater" unicode="&#x3e;" 
d="M516 340l-407 -211q-4 -2 -6 -2q-9 0 -9 13v15q0 13 15 21l368 191l-368 192q-15 7 -15 20v16q0 12 9 12q2 0 6 -2l407 -210q15 -8 15 -21v-15q0 -11 -15 -19z" />
    <glyph glyph-name="question" unicode="?" horiz-adv-x="434" 
d="M141 16v62q0 16 15 16h24q15 0 15 -16v-62q0 -16 -15 -16h-24q-15 0 -15 16zM79 750h105q103 0 151 -43t48 -129q0 -84 -86 -183l-106 -122v-69q0 -16 -15 -16h-16q-15 0 -15 16v64q0 14 7 22l98 116q86 103 86 172q0 129 -137 129h-120q-16 0 -16 16v11q0 16 16 16z" />
    <glyph glyph-name="at" unicode="@" horiz-adv-x="930" 
d="M457 199h102v274h-90q-53 0 -87 -40.5t-34 -104.5q0 -59 28.5 -94t80.5 -35zM609 500v-301h24q80 0 131.5 49t51.5 150q0 148 -87.5 232.5t-244.5 84.5q-156 0 -263.5 -101.5t-107.5 -285.5q0 -177 100 -282t260 -105q86 0 168 21q6 2 8 2q11 0 11 -14v-13q0 -15 -16 -20
q-69 -19 -167 -19q-82 0 -154 25t-131.5 75t-94 135t-34.5 195q0 105 35 188.5t94 135.5t134 79t158 27q174 0 278.5 -95t104.5 -265q0 -106 -65 -174t-169 -68h-172q-72 0 -118 46t-46 126q0 85 53 136.5t127 51.5h117q15 0 15 -16z" />
    <glyph glyph-name="A" unicode="A" 
d="M590 23q2 -6 2 -10q0 -13 -18 -13h-21q-15 0 -18 16q-23 100 -53 203h-339q-35 -119 -53 -203q-3 -16 -18 -16h-25q-14 0 -14 12q0 5 2 11q18 73 82 297q32 110 84.5 244.5t79.5 185.5h63q27 -51 79.5 -185.5t84.5 -244.5q7 -23 26 -86.5t31 -109t25 -101.5zM172 320
q-3 -10 -8.5 -28.5t-7.5 -25.5h313q-2 7 -7.5 25.5t-8.5 28.5q-52 178 -140 383q-86 -197 -141 -383z" />
    <glyph glyph-name="B" unicode="B" horiz-adv-x="609" 
d="M94 16v718q0 16 15 16h231q90 0 136.5 -48t46.5 -139q0 -63 -22.5 -105t-74.5 -71q59 -26 86 -69.5t27 -110.5q0 -98 -50 -152.5t-145 -54.5h-235q-15 0 -15 16zM355 359h-210v-312h207q73 0 104.5 40t31.5 120q0 62 -35.5 107t-97.5 45zM348 703h-203v-297h210
q58 0 88 47t30 110q0 140 -125 140z" />
    <glyph glyph-name="C" unicode="C" horiz-adv-x="609" 
d="M508 570v121q-52 20 -133 20q-136 0 -203 -74.5t-67 -214.5v-94q0 -289 254 -289h32q48 0 125 23l7.5 2.5t8 2.5t5.5 1q10 0 10 -12v-16q0 -14 -16 -19q-75 -29 -140 -29h-32q-152 0 -228 88.5t-76 247.5v94q0 157 83.5 246.5t236.5 89.5q51 0 102 -10t78 -25v-153
q0 -15 -16 -15h-16q-15 0 -15 15z" />
    <glyph glyph-name="D" unicode="D" horiz-adv-x="680" 
d="M94 16v718q0 16 15 16h196q158 0 235 -77t77 -235v-110q0 -153 -75.5 -240.5t-221.5 -87.5h-211q-15 0 -15 16zM145 47h183q238 0 238 281v110q0 133 -61.5 199t-191.5 66h-168v-656z" />
    <glyph glyph-name="E" unicode="E" horiz-adv-x="555" 
d="M445 375h-300v-207q0 -121 121 -121h211q15 0 15 -16v-15q0 -16 -15 -16h-207q-176 0 -176 172v562q0 16 15 16h368q15 0 15 -16v-15q0 -16 -15 -16h-332v-281h300q16 0 16 -16v-15q0 -16 -16 -16z" />
    <glyph glyph-name="F" unicode="F" horiz-adv-x="523" 
d="M94 16v562q0 172 176 172h191q16 0 16 -16v-15q0 -16 -16 -16h-195q-121 0 -121 -121v-160h300q16 0 16 -16v-15q0 -16 -16 -16h-300v-359q0 -16 -16 -16h-20q-15 0 -15 16z" />
    <glyph glyph-name="G" unicode="G" horiz-adv-x="660" 
d="M582 379v-340q-30 -14 -82.5 -26.5t-93.5 -12.5h-31q-154 0 -237 86t-83 242v94q0 153 88.5 244.5t239.5 91.5q97 0 184 -29q15 -5 15 -20v-16q0 -12 -10 -12q-2 0 -17 5q-86 25 -172 25q-131 0 -204.5 -76.5t-73.5 -212.5v-94q0 -133 69.5 -207t200.5 -74h31
q69 0 125 23v278h-156q-16 0 -16 15v16q0 16 16 16h191q16 0 16 -16z" />
    <glyph glyph-name="H" unicode="H" horiz-adv-x="687" 
d="M543 16v359h-398v-359q0 -16 -16 -16h-20q-15 0 -15 16v718q0 16 15 16h20q16 0 16 -16v-312h398v312q0 16 16 16h19q16 0 16 -16v-718q0 -16 -16 -16h-19q-16 0 -16 16z" />
    <glyph glyph-name="I" unicode="I" horiz-adv-x="238" 
d="M94 16v718q0 16 15 16h20q16 0 16 -16v-718q0 -16 -16 -16h-20q-15 0 -15 16z" />
    <glyph glyph-name="J" unicode="J" horiz-adv-x="426" 
d="M332 734v-515q0 -100 -48.5 -159.5t-142.5 -59.5h-79q-15 0 -15 16v15q0 16 15 16h83q70 0 103 45t33 123v488h-187q-16 0 -16 16v15q0 16 16 16h222q16 0 16 -16z" />
    <glyph glyph-name="K" unicode="K" horiz-adv-x="563" 
d="M476 16l-288 351h-43v-351q0 -16 -16 -16h-20q-15 0 -15 16v718q0 16 15 16h20q16 0 16 -16v-320h46l284 320q13 16 24 16h26q11 0 11 -7q0 -5 -7 -12l-299 -336l307 -375q7 -9 7 -13q0 -7 -11 -7h-34q-12 0 -23 16z" />
    <glyph glyph-name="L" unicode="L" horiz-adv-x="492" 
d="M461 0h-191q-176 0 -176 172v562q0 16 15 16h20q16 0 16 -16v-566q0 -121 121 -121h195q16 0 16 -16v-15q0 -16 -16 -16z" />
    <glyph glyph-name="M" unicode="M" horiz-adv-x="789" 
d="M137 738l258 -371l257 371q8 12 20 12h8q15 0 15 -16v-718q0 -16 -15 -16h-20q-15 0 -15 16v629l-237 -340q-6 -8 -13 -8q-9 0 -14 8l-236 340v-629q0 -16 -16 -16h-20q-15 0 -15 16v718q0 16 15 16h8q13 0 20 -12z" />
    <glyph glyph-name="N" unicode="N" horiz-adv-x="687" 
d="M547 12l-402 629v-625q0 -16 -16 -16h-20q-15 0 -15 16v718q0 16 15 16h12q11 0 20 -12l402 -629v625q0 16 16 16h19q16 0 16 -16v-718q0 -16 -16 -16h-12q-10 0 -19 12z" />
    <glyph glyph-name="O" unicode="O" horiz-adv-x="688" 
d="M344 -8q-100 0 -166.5 49.5t-94.5 129.5t-28 188v32q0 108 28 188t94.5 129.5t166.5 49.5t166.5 -49.5t94.5 -129.5t28 -188v-32q0 -108 -28 -188t-94.5 -129.5t-166.5 -49.5zM344 39q238 0 238 320v32q0 320 -238 320q-239 0 -239 -320v-32q0 -320 239 -320z" />
    <glyph glyph-name="P" unicode="P" horiz-adv-x="578" 
d="M94 16v718q0 16 15 16h200q222 0 222 -230q0 -114 -58.5 -180.5t-167.5 -66.5h-160v-257q0 -16 -16 -16h-20q-15 0 -15 16zM324 703h-179v-383h168q167 0 167 200q0 183 -156 183z" />
    <glyph glyph-name="Q" unicode="Q" horiz-adv-x="688" 
d="M548 -124q2 1 6 1q9 0 9 -13v-18q0 -14 -15 -19q-48 -15 -95 -15q-133 0 -133 125v56q-136 9 -200.5 108t-64.5 258v32q0 108 28 188t94.5 129.5t166.5 49.5t166.5 -49.5t94.5 -129.5t28 -188v-32q0 -158 -64 -257t-198 -109v-56q0 -78 82 -78q48 0 95 17zM344 39
q238 0 238 320v32q0 320 -238 320q-239 0 -239 -320v-32q0 -320 239 -320z" />
    <glyph glyph-name="R" unicode="R" horiz-adv-x="609" 
d="M504 15q-23 68 -73.5 163.5t-94.5 134.5h-191v-297q0 -16 -16 -16h-20q-15 0 -15 16v718q0 16 15 16h219q107 0 155 -52.5t48 -162.5q0 -73 -38.5 -128t-105.5 -75q42 -41 88 -126.5t76 -162.5q11 -30 11 -32q0 -11 -13 -11h-28q-12 0 -17 15zM336 703h-191v-344h171
q75 0 119.5 49.5t44.5 126.5q0 86 -32.5 127t-111.5 41z" />
    <glyph glyph-name="S" unicode="S" horiz-adv-x="551" 
d="M66 19q-15 3 -15 19v22q0 11 11 11l20 -5q93 -27 156 -27h35q78 0 125 42.5t47 117.5q0 116 -109 149l-109 31q-83 23 -123.5 64.5t-40.5 119.5q0 95 64.5 145t169.5 50h12q74 0 152 -23q16 -5 16 -19v-18q0 -12 -12 -12q-4 0 -24 5q-76 20 -132 20h-16
q-83 0 -131.5 -36.5t-48.5 -111.5q0 -101 106 -129l109 -32q82 -23 125 -70t43 -133q0 -98 -62.5 -152.5t-163.5 -54.5h-32q-86 0 -172 27z" />
    <glyph glyph-name="T" unicode="T" horiz-adv-x="566" 
d="M31 750h504q16 0 16 -16v-15q0 -16 -16 -16h-219v-687q0 -16 -15 -16h-20q-15 0 -15 16v687h-235q-15 0 -15 16v15q0 16 15 16z" />
    <glyph glyph-name="U" unicode="U" horiz-adv-x="672" 
d="M586 734v-484q0 -130 -61 -194t-189 -64q-131 0 -190.5 62.5t-59.5 195.5v484q0 16 16 16h19q16 0 16 -16v-500q0 -96 51 -145.5t148 -49.5t148 49.5t51 145.5v500q0 16 16 16h19q16 0 16 -16z" />
    <glyph glyph-name="V" unicode="V" horiz-adv-x="594" 
d="M509 734q3 16 17 16h23q13 0 13 -12q0 -14 -3 -27q-32 -185 -98 -388.5t-137 -322.5h-58q-73 121 -137 324.5t-94 390.5q0 1 -1.5 9.5t-1.5 13.5q0 12 14 12h21q15 0 18 -16q39 -211 87 -370.5t125 -316.5q144 294 212 687z" />
    <glyph glyph-name="W" unicode="W" horiz-adv-x="875" 
d="M463 733q50 -419 158 -686q109 273 170 687q2 16 17 16h20q15 0 15 -14q0 -1 -3 -25q-28 -189 -79 -382.5t-109 -328.5h-62q-89 189 -152 539q-66 -359 -157 -539h-62q-59 143 -111 336t-73 371q0 4 -1 10.5t-1.5 11t-0.5 7.5q0 14 15 14h20q15 0 17 -16
q64 -431 166 -687q122 301 162 686q2 17 17 17h17q15 0 17 -17z" />
    <glyph glyph-name="X" unicode="X" horiz-adv-x="563" 
d="M538 734l-224 -353l236 -365q2 -3 2 -7q0 -9 -12 -9h-28q-12 0 -22 16l-205 318l-201 -318q-10 -16 -22 -16h-28q-12 0 -12 9q0 4 2 7l231 365l-227 353q-2 3 -2 7q0 9 12 9h28q12 0 22 -16l196 -306l195 306q8 16 21 16h28q12 0 12 -9q0 -4 -2 -7z" />
    <glyph glyph-name="Y" unicode="Y" horiz-adv-x="563" 
d="M539 734l-230 -425v-293q0 -16 -16 -16h-20q-15 0 -15 16v293l-231 425q-2 4 -2 7q0 9 13 9h24q13 0 21 -16l202 -371l198 371q8 16 21 16h24q13 0 13 -9q0 -3 -2 -7z" />
    <glyph glyph-name="Z" unicode="Z" horiz-adv-x="574" 
d="M508 734v-11q0 -11 -5 -24q-62 -147 -182.5 -339t-207.5 -313h399q15 0 15 -16v-15q0 -16 -15 -16h-450q-15 0 -15 16v11q0 11 8 22q96 129 223 335t171 319h-375q-15 0 -15 16v15q0 16 15 16h418q16 0 16 -16z" />
    <glyph glyph-name="bracketleft" unicode="[" horiz-adv-x="289" 
d="M109 750h118q15 0 15 -16v-11q0 -16 -15 -16h-86v-789h86q15 0 15 -16v-11q0 -16 -15 -16h-118q-15 0 -15 16v843q0 16 15 16z" />
    <glyph glyph-name="backslash" unicode="\" horiz-adv-x="461" 
d="M73 734l357 -843q1 -2 1 -6q0 -10 -13 -10h-10q-14 0 -20 16l-357 843q-1 2 -1 6q0 10 13 10h10q14 0 20 -16z" />
    <glyph glyph-name="bracketright" unicode="]" horiz-adv-x="289" 
d="M62 750h118q15 0 15 -16v-843q0 -16 -15 -16h-118q-15 0 -15 16v11q0 16 15 16h86v789h-86q-15 0 -15 16v11q0 16 15 16z" />
    <glyph glyph-name="asciicircum" unicode="^" 
d="M504 125l-191 367l-192 -367q-8 -16 -20 -16h-16q-13 0 -13 9q0 3 2 7l211 406q8 16 20 16h14q13 0 21 -16l211 -406q2 -4 2 -7q0 -9 -13 -9h-16q-12 0 -20 16z" />
    <glyph glyph-name="underscore" unicode="_" 
d="M47 0h531q16 0 16 -16v-7q0 -16 -16 -16h-531q-16 0 -16 16v7q0 16 16 16z" />
    <glyph glyph-name="grave" unicode="`" horiz-adv-x="167" 
d="M125 641l-121 125q-4 4 -4 8q0 7 11 7h44q10 0 22 -15l87 -125q3 -4 3 -8q0 -8 -12 -8h-5q-9 0 -25 16z" />
    <glyph glyph-name="a" unicode="a" horiz-adv-x="551" 
d="M410 16v105l-35 -35q-30 -30 -48 -45.5t-54 -32t-74 -16.5q-68 0 -104 47t-36 121v133q0 116 73.5 185t191.5 69h117q16 0 16 -16v-515q0 -16 -16 -16h-15q-16 0 -16 16zM355 121l55 55v328h-90q-99 0 -157 -55.5t-58 -151.5v-137q0 -56 26 -90.5t76 -34.5q40 0 74 22.5
t74 63.5z" />
    <glyph glyph-name="b" unicode="b" horiz-adv-x="551" 
d="M94 16v718q0 16 15 16h16q16 0 16 -16v-308l35 35q30 30 48 45.5t54 32t74 16.5q67 0 103.5 -47.5t36.5 -120.5v-133q0 -116 -73.5 -185t-191.5 -69h-118q-15 0 -15 16zM195 426l-54 -55v-328h89q100 0 157.5 55t57.5 152v137q0 56 -25.5 90.5t-75.5 34.5
q-40 0 -74 -22.5t-75 -63.5z" />
    <glyph glyph-name="c" unicode="c" horiz-adv-x="469" 
d="M371 422v70q-45 20 -101 20q-79 0 -122 -44.5t-43 -123.5v-149q0 -76 40.5 -118t116.5 -42q72 0 136 32q8 4 11 4q9 0 9 -11v-13q0 -12 -16 -22q-61 -33 -140 -33q-97 0 -150 53t-53 150v149q0 97 57 154t154 57q95 0 148 -35v-98q0 -16 -16 -16h-15q-16 0 -16 16z" />
    <glyph glyph-name="d" unicode="d" horiz-adv-x="551" 
d="M410 16v105l-35 -35q-30 -30 -48 -45.5t-54 -32t-74 -16.5q-68 0 -104 47t-36 121v133q0 116 73.5 185t191.5 69h86v187q0 16 16 16h15q16 0 16 -16v-718q0 -16 -16 -16h-15q-16 0 -16 16zM355 121l55 55v328h-90q-99 0 -157 -55.5t-58 -151.5v-137q0 -56 26 -90.5
t76 -34.5q40 0 74 22.5t74 63.5z" />
    <glyph glyph-name="e" unicode="e" horiz-adv-x="500" 
d="M402 70q4 2 7 2q9 0 9 -12v-13q0 -14 -16 -22q-62 -33 -140 -33q-97 0 -150 53t-53 150v149q0 96 58.5 153.5t152.5 57.5q79 0 129 -39.5t50 -113.5q0 -70 -46 -107t-122 -37h-176v-63q0 -76 40.5 -118t116.5 -42q67 0 140 35zM105 344v-43h180q117 0 117 101
q0 54 -36.5 82t-95.5 28q-79 0 -122 -44.5t-43 -123.5z" />
    <glyph glyph-name="f" unicode="f" horiz-adv-x="336" 
d="M336 707h-39q-61 0 -89 -29.5t-28 -91.5v-39h140q16 0 16 -16v-11q0 -16 -16 -16h-140v-488q0 -16 -16 -16h-16q-15 0 -15 16v488h-86q-16 0 -16 16v11q0 16 16 16h86v39q0 79 42.5 121.5t121.5 42.5h39q16 0 16 -16v-11q0 -16 -16 -16z" />
    <glyph glyph-name="g" unicode="g" horiz-adv-x="551" 
d="M457 531v-449q0 -131 -65 -200.5t-193 -69.5h-94q-15 0 -15 16v12q0 15 15 15h98q104 0 155.5 57.5t51.5 165.5v16l-19 -12q-86 -51 -161 -51q-83 0 -127 50.5t-44 137.5v74q0 119 75 186.5t190 67.5h117q16 0 16 -16zM391 125l19 12v367h-90q-98 0 -156.5 -54.5
t-58.5 -152.5v-78q0 -145 129 -145q72 0 157 51z" />
    <glyph glyph-name="h" unicode="h" horiz-adv-x="578" 
d="M94 16v718q0 16 15 16h16q16 0 16 -16v-308l39 39q90 90 164 90q140 0 140 -164v-375q0 -16 -15 -16h-16q-16 0 -16 16v375q0 121 -97 121q-27 0 -60 -19t-51 -35.5t-49 -47.5l-39 -39v-355q0 -16 -16 -16h-16q-15 0 -15 16z" />
    <glyph glyph-name="i" unicode="i" horiz-adv-x="258" 
d="M117 687v47q0 16 16 16h15q16 0 16 -16v-47q0 -15 -16 -15h-15q-16 0 -16 15zM117 504h-86q-15 0 -15 16v11q0 16 15 16h117q16 0 16 -16v-515q0 -16 -16 -16h-15q-16 0 -16 16v488z" />
    <glyph glyph-name="j" unicode="j" horiz-adv-x="266" 
d="M125 687v47q0 16 16 16h15q16 0 16 -16v-47q0 -15 -16 -15h-15q-16 0 -16 15zM-31 -188h-8q-16 0 -16 16v12q0 15 16 15h8q84 0 120 49.5t36 142.5v457h-86q-16 0 -16 16v11q0 16 16 16h117q16 0 16 -16v-468q0 -122 -47 -186.5t-156 -64.5z" />
    <glyph glyph-name="k" unicode="k" horiz-adv-x="473" 
d="M388 16l-189 261h-58v-261q0 -16 -16 -16h-16q-15 0 -15 16v718q0 16 15 16h16q16 0 16 -16v-414h62l175 211q13 16 23 16h24q11 0 11 -7q0 -5 -4 -9l-194 -230l205 -285q4 -5 4 -9q0 -7 -11 -7h-26q-11 0 -22 16z" />
    <glyph glyph-name="l" unicode="l" horiz-adv-x="242" 
d="M102 707h-86q-16 0 -16 16v11q0 16 16 16h117q15 0 15 -16v-718q0 -16 -15 -16h-16q-15 0 -15 16v691z" />
    <glyph glyph-name="m" unicode="m" horiz-adv-x="922" 
d="M94 16v515q0 16 15 16h16q16 0 16 -16v-105l39 39q90 90 164 90q125 0 138 -129h2l39 39q25 24 40.5 37.5t53 33t71.5 19.5q140 0 140 -164v-375q0 -16 -16 -16h-15q-16 0 -16 16v375q0 121 -97 121q-27 0 -60 -19t-52 -36t-49 -47l-39 -39v-355q0 -16 -15 -16h-16
q-16 0 -16 16v375q0 121 -97 121q-27 0 -60 -19t-51 -35.5t-49 -47.5l-39 -39v-355q0 -16 -16 -16h-16q-15 0 -15 16z" />
    <glyph glyph-name="n" unicode="n" horiz-adv-x="578" 
d="M94 16v515q0 16 15 16h16q16 0 16 -16v-105l39 39q90 90 164 90q140 0 140 -164v-375q0 -16 -15 -16h-16q-16 0 -16 16v375q0 121 -97 121q-27 0 -60 -19t-51 -35.5t-49 -47.5l-39 -39v-355q0 -16 -16 -16h-16q-15 0 -15 16z" />
    <glyph glyph-name="o" unicode="o" horiz-adv-x="555" 
d="M277 -8q-114 0 -168 78t-54 207q0 127 55 202.5t167 75.5q115 0 169 -74.5t54 -203.5q0 -130 -53.5 -207.5t-169.5 -77.5zM277 35q93 0 134.5 66.5t41.5 175.5q0 235 -176 235q-175 0 -175 -235q0 -109 41 -175.5t134 -66.5z" />
    <glyph glyph-name="p" unicode="p" horiz-adv-x="551" 
d="M94 -172v703q0 16 15 16h16q16 0 16 -16v-105l35 35q30 30 48 45.5t54 32t74 16.5q67 0 103.5 -47.5t36.5 -120.5v-133q0 -116 -73.5 -185t-191.5 -69h-86v-172q0 -16 -16 -16h-16q-15 0 -15 16zM195 426l-54 -55v-328h89q100 0 157.5 55t57.5 152v137q0 56 -25.5 90.5
t-75.5 34.5q-40 0 -74 -22.5t-75 -63.5z" />
    <glyph glyph-name="q" unicode="q" horiz-adv-x="551" 
d="M410 -172v293l-35 -35q-30 -30 -48 -45.5t-54 -32t-74 -16.5q-68 0 -104 47t-36 121v133q0 116 73.5 185t191.5 69h117q16 0 16 -16v-703q0 -16 -16 -16h-15q-16 0 -16 16zM355 121l55 55v328h-90q-99 0 -157 -55.5t-58 -151.5v-137q0 -56 26 -90.5t76 -34.5
q40 0 74 22.5t74 63.5z" />
    <glyph glyph-name="r" unicode="r" horiz-adv-x="355" 
d="M324 500h-19q-56 0 -117 -70l-47 -55v-359q0 -16 -16 -16h-16q-15 0 -15 16v515q0 16 15 16h16q16 0 16 -16v-97l43 50q52 63 121 63h19q16 0 16 -16v-15q0 -16 -16 -16z" />
    <glyph glyph-name="s" unicode="s" horiz-adv-x="484" 
d="M86 8q-16 5 -16 18v18q0 13 11 13l21 -6q55 -16 121 -16q69 0 110.5 30t41.5 91q0 41 -21 62.5t-73 35.5l-78 19q-68 18 -100.5 45.5t-32.5 91.5q0 72 58 108.5t142 36.5q57 0 113 -12q15 -3 15 -18v-14q0 -13 -11 -13q-4 0 -13 2t-11 2q-50 10 -93 10q-67 0 -110 -24
t-43 -78q0 -39 20.5 -59t65.5 -31l78 -19q65 -17 103 -48t38 -97q0 -79 -55.5 -121.5t-143.5 -42.5q-78 0 -137 16z" />
    <glyph glyph-name="t" unicode="t" horiz-adv-x="383" 
d="M336 0h-39q-91 0 -127.5 45.5t-36.5 142.5v316h-86q-16 0 -16 16v11q0 16 16 16h86v109q0 16 15 16h16q16 0 16 -16v-109h140q16 0 16 -16v-11q0 -16 -16 -16h-140v-332q0 -68 29 -98.5t96 -30.5h31q16 0 16 -16v-11q0 -16 -16 -16z" />
    <glyph glyph-name="u" unicode="u" horiz-adv-x="574" 
d="M480 531v-515q0 -16 -15 -16h-16q-15 0 -15 16v105l-39 -39q-25 -24 -40.5 -37.5t-53 -33t-71.5 -19.5q-140 0 -140 164v375q0 16 15 16h16q16 0 16 -16v-375q0 -121 97 -121q27 0 60 19t52 36t49 47l39 39v355q0 16 15 16h16q15 0 15 -16z" />
    <glyph glyph-name="v" unicode="v" horiz-adv-x="484" 
d="M430 531v-140q0 -69 -17 -134t-46 -114.5t-53.5 -82.5t-51.5 -60h-43q-37 37 -70 84t-63.5 132t-30.5 175v140q0 16 15 16h16q16 0 16 -16v-140q0 -119 43.5 -209t96.5 -143q53 53 97 143t44 209v140q0 16 15 16h16q16 0 16 -16z" />
    <glyph glyph-name="w" unicode="w" horiz-adv-x="727" 
d="M672 531v-140q0 -126 -44 -230t-97 -161h-43q-32 32 -71.5 107t-53.5 139q-13 -63 -53 -138.5t-72 -107.5h-47q-51 56 -93.5 160t-42.5 231v140q0 16 15 16h16q16 0 16 -16v-140q0 -108 38 -209.5t79 -142.5q25 34 48 74.5t48 117.5t25 152v148q0 16 15 16h16
q16 0 16 -16v-148q0 -75 25 -152t48 -117.5t48 -74.5q41 41 79 142.5t38 209.5v140q0 16 16 16h15q16 0 16 -16z" />
    <glyph glyph-name="x" unicode="x" horiz-adv-x="469" 
d="M208 276l-171 254q-3 4 -3 9q0 8 11 8h25q12 0 23 -16l143 -214l148 214q11 16 22 16h26q10 0 10 -8q0 -5 -3 -9l-174 -254l174 -259q3 -4 3 -9q0 -8 -10 -8h-26q-11 0 -22 16l-149 218l-150 -218q-11 -16 -23 -16h-25q-11 0 -11 8q0 5 3 9z" />
    <glyph glyph-name="y" unicode="y" horiz-adv-x="574" 
d="M152 -145h86q108 0 152 54t44 169v15l-12 -8q-29 -20 -76 -37t-92 -17q-80 0 -122 47.5t-42 131.5v321q0 16 15 16h16q16 0 16 -16v-321q0 -69 29.5 -103t95.5 -34q40 0 85.5 17.5t74.5 37.5l12 8v395q0 16 15 16h16q15 0 15 -16v-445q0 -137 -57 -205.5t-185 -68.5h-86
q-15 0 -15 16v12q0 15 15 15z" />
    <glyph glyph-name="z" unicode="z" horiz-adv-x="500" 
d="M438 531q0 -17 -5 -31q-44 -77 -149.5 -229.5t-166.5 -227.5h313q15 0 15 -16v-11q0 -16 -15 -16h-360q-15 0 -15 16v7q0 14 7 22q83 103 176 238.5t141 220.5h-293q-16 0 -16 16v11q0 16 16 16h337q15 0 15 -16z" />
    <glyph glyph-name="braceleft" unicode="{" horiz-adv-x="469" 
d="M47 292q-16 2 -16 17v7q0 15 16 17q141 16 141 120v125q0 91 37.5 131.5t133.5 40.5h16q16 0 16 -16v-11q0 -16 -16 -16h-47q-51 0 -72.5 -30t-21.5 -91v-125q0 -68 -33 -101.5t-92 -46.5q61 -14 93 -46t32 -103v-125q0 -61 21.5 -91t72.5 -30h47q16 0 16 -16v-11
q0 -16 -16 -16h-16q-96 0 -133.5 40.5t-37.5 131.5v125q0 102 -141 120z" />
    <glyph glyph-name="bar" unicode="|" horiz-adv-x="273" 
d="M156 798v-970q0 -16 -15 -16h-8q-16 0 -16 16v970q0 15 16 15h8q15 0 15 -15z" />
    <glyph glyph-name="braceright" unicode="}" horiz-adv-x="469" 
d="M423 292q-142 -18 -142 -120v-125q0 -91 -37 -131.5t-134 -40.5h-15q-16 0 -16 16v11q0 16 16 16h47q51 0 72 30t21 91v125q0 70 32.5 102.5t92.5 46.5q-59 13 -92 46.5t-33 101.5v125q0 61 -21 91t-72 30h-47q-16 0 -16 16v11q0 16 16 16h15q97 0 134 -40.5t37 -131.5
v-125q0 -104 142 -120q15 -1 15 -17v-7q0 -15 -15 -17z" />
    <glyph glyph-name="asciitilde" unicode="~" 
d="M531 373v-15q0 -11 -15 -29q-42 -48 -102 -48q-37 0 -109 33.5t-98 33.5q-58 0 -98 -55q-6 -9 -9 -9q-6 0 -6 11v15q0 11 15 29q42 48 102 48q37 0 109 -33.5t98 -33.5q64 0 98 53q5 9 10 9t5 -9z" />
    <glyph glyph-name="exclamdown" unicode="&#xa1;" horiz-adv-x="273" 
d="M109 672v62q0 16 16 16h23q16 0 16 -16v-62q0 -16 -16 -16h-23q-16 0 -16 16zM109 16l12 500q0 15 16 15h4q15 0 15 -15l12 -500q0 -16 -16 -16h-27q-16 0 -16 16z" />
    <glyph glyph-name="cent" unicode="&#xa2;" 
d="M344 -110v102q-145 5 -217 93t-72 243v94q0 152 78 240.5t222 95.5v94q0 15 16 15h20q15 0 15 -15v-95q78 -5 128 -21q17 -5 17 -18v-20q0 -12 -11 -12q-4 0 -6 1q-79 24 -159 24q-136 0 -203 -74.5t-67 -214.5v-94q0 -289 254 -289h32q66 0 140 28q2 1 6 1q10 0 10 -12
v-17q0 -13 -16 -18q-69 -28 -136 -29v-102q0 -16 -16 -16h-20q-15 0 -15 16z" />
    <glyph glyph-name="sterling" unicode="&#xa3;" 
d="M176 47h355q16 0 16 -16v-15q0 -16 -16 -16h-452q-16 0 -16 16v15q0 16 16 16h46q78 53 78 183v145h-94q-15 0 -15 16v15q0 16 15 16h94v94q0 112 58 173t169 61h101q16 0 16 -16v-15q0 -16 -16 -16h-101q-98 0 -137 -46.5t-39 -140.5v-94h230q16 0 16 -16v-15
q0 -16 -16 -16h-230v-145q0 -134 -78 -183z" />
    <glyph glyph-name="currency" unicode="&#xa4;" horiz-adv-x="500" 
d="M256 534h1q70 0 115 -40l71 75l45 -46l-79 -71q35 -47 35 -118q0 -76 -35 -122l75 -74l-44 -44l-69 76q-45 -42 -117 -42q-71 0 -114 40l-67 -74l-43 44l72 70q-37 50 -37 121q0 73 39 123l-76 71l45 46l68 -76q48 41 115 41zM255 471h-1q-53 0 -85.5 -40.5t-32.5 -100.5
q0 -67 36.5 -103t81.5 -36q48 0 83.5 35.5t35.5 106.5q0 56 -31.5 97t-86.5 41z" />
    <glyph glyph-name="yen" unicode="&#xa5;" 
d="M289 16v187h-210q-16 0 -16 16v15q0 16 16 16h210v59l-230 425q-2 4 -2 7q0 9 12 9h24q11 0 21 -16l202 -371l199 371q10 16 21 16h24q12 0 12 -9q0 -3 -2 -7l-230 -425v-59h208q15 0 15 -16v-15q0 -16 -15 -16h-208v-187q0 -16 -16 -16h-19q-16 0 -16 16z" />
    <glyph glyph-name="brokenbar" unicode="&#xa6;" horiz-adv-x="273" 
d="M156 203v-375q0 -16 -15 -16h-8q-16 0 -16 16v375q0 16 16 16h8q15 0 15 -16zM156 798v-376q0 -16 -15 -16h-8q-16 0 -16 16v376q0 15 16 15h8q15 0 15 -15z" />
    <glyph glyph-name="section" unicode="&#xa7;" horiz-adv-x="531" 
d="M297 105l-215 154q-16 11 -16 22v29q0 11 8 11q4 0 8 -3l250 -177q55 -39 80.5 -78t25.5 -90q0 -73 -54.5 -117t-129.5 -44h-175q-16 0 -16 16v20q0 15 16 15h179q51 0 90 27t39 83q0 41 -22.5 70.5t-67.5 61.5zM449 244l-250 178q-54 39 -79.5 78t-25.5 90
q0 73 54.5 116.5t128.5 43.5h176q16 0 16 -16v-19q0 -16 -16 -16h-180q-51 0 -89.5 -26.5t-38.5 -82.5q0 -43 21.5 -71.5t67.5 -61.5l215 -153q16 -11 16 -23v-28q0 -12 -8 -12q-3 0 -8 3z" />
    <glyph glyph-name="dieresis" unicode="&#xa8;" horiz-adv-x="297" 
d="M0 641v62q0 16 16 16h23q16 0 16 -16v-62q0 -16 -16 -16h-23q-16 0 -16 16zM242 641v62q0 16 16 16h23q16 0 16 -16v-62q0 -16 -16 -16h-23q-16 0 -16 16z" />
    <glyph glyph-name="copyright" unicode="&#xa9;" horiz-adv-x="844" 
d="M422 16q-162 0 -268.5 103.5t-106.5 263.5t106.5 263.5t268.5 103.5t268.5 -103.5t106.5 -263.5t-106.5 -263.5t-268.5 -103.5zM422 59q144 0 234 92t90 232q0 139 -90 231.5t-234 92.5t-234 -92.5t-90 -231.5q0 -140 90 -232t234 -92zM526 190q-40 -10 -81 -10
q-91 0 -147 55t-56 148q0 87 59 145t144 58q42 0 81 -11q17 -5 17 -20v-8q0 -15 -11 -15q-2 0 -9.5 2.5t-10.5 2.5q-33 6 -67 6q-69 0 -110.5 -44.5t-41.5 -115.5q0 -74 40 -117t112 -43q37 0 67 6q3 0 10.5 2.5t9.5 2.5q11 0 11 -14v-9q0 -16 -17 -21z" />
    <glyph glyph-name="ordfeminine" unicode="&#xaa;" horiz-adv-x="453" 
d="M354 340v84l-34 -30q-35 -32 -69.5 -49.5t-82.5 -17.5q-113 0 -113 125v104q0 91 59.5 142t162.5 51h105q13 0 13 -12v-397q0 -12 -13 -12h-14q-14 0 -14 12zM176 358q55 0 129 63l49 42v251h-79q-88 0 -134.5 -40.5t-46.5 -115.5v-107q0 -93 82 -93z" />
    <glyph glyph-name="guillemotleft" unicode="&#xab;" horiz-adv-x="586" 
d="M517 157l-188 145q-16 11 -16 22v25q0 11 16 22l188 144q5 3 7 3q8 0 8 -12v-19q0 -10 -15 -23l-157 -128l157 -128q15 -13 15 -23v-19q0 -12 -8 -12q-2 0 -7 3zM267 157l-188 145q-16 11 -16 22v25q0 11 16 22l188 144q5 3 7 3q8 0 8 -12v-19q0 -10 -15 -23l-157 -128
l157 -128q15 -13 15 -23v-19q0 -12 -8 -12q-2 0 -7 3z" />
    <glyph glyph-name="logicalnot" unicode="&#xac;" 
d="M109 387h407q15 0 15 -16v-187q0 -16 -15 -16h-8q-16 0 -16 16v164h-383q-15 0 -15 15v8q0 16 15 16z" />
    <glyph glyph-name="registered" unicode="&#xae;" horiz-adv-x="844" 
d="M422 16q-162 0 -268.5 103.5t-106.5 263.5t106.5 263.5t268.5 103.5t268.5 -103.5t106.5 -263.5t-106.5 -263.5t-268.5 -103.5zM422 59q144 0 234 92t90 232q0 139 -90 231.5t-234 92.5t-234 -92.5t-90 -231.5q0 -140 90 -232t234 -92zM344 367h70q37 0 61.5 24.5
t24.5 69.5q0 39 -24.5 60.5t-61.5 21.5h-70v-176zM311 586h77q163 0 163 -125q0 -81 -78 -117l86 -148q2 -3 2 -7q0 -9 -14 -9h-26q-12 0 -22 16l-69 128h-86v-128q0 -16 -18 -16h-15q-18 0 -18 16v373q0 17 18 17z" />
    <glyph glyph-name="macron" unicode="&#xaf;" horiz-adv-x="250" 
d="M16 664h218q16 0 16 -16v-7q0 -16 -16 -16h-218q-16 0 -16 16v7q0 16 16 16z" />
    <glyph glyph-name="macron" unicode="&#x2c9;" horiz-adv-x="250" 
d="M16 664h218q16 0 16 -16v-7q0 -16 -16 -16h-218q-16 0 -16 16v7q0 16 16 16z" />
    <glyph glyph-name="degree" unicode="&#xb0;" horiz-adv-x="469" 
d="M244 320q-167 0 -167 217q0 218 167 218q166 0 166 -218q0 -217 -166 -217zM244 360q58 0 87.5 42t29.5 135t-29.5 135t-87.5 42q-59 0 -89 -42t-30 -135q0 -177 119 -177z" />
    <glyph glyph-name="plusminus" unicode="&#xb1;" 
d="M332 570v-183h184q15 0 15 -16v-8q0 -15 -15 -15h-184v-184q0 -16 -16 -16h-7q-16 0 -16 16v184h-184q-15 0 -15 15v8q0 16 15 16h184v183q0 16 16 16h7q16 0 16 -16zM109 0h407q15 0 15 -16v-7q0 -16 -15 -16h-407q-15 0 -15 16v7q0 16 15 16z" />
    <glyph glyph-name="twosuperior" unicode="&#xb2;" horiz-adv-x="412" 
d="M58 341v34q0 100 117 147l48 20q88 35 88 92q0 75 -112 75h-102q-19 0 -19 17v8q0 16 19 16h102q160 0 160 -116q0 -82 -129 -132l-47 -19q-79 -29 -79 -108v-10h240q17 0 17 -16v-8q0 -17 -17 -17h-268q-18 0 -18 17z" />
    <glyph glyph-name="threesuperior" unicode="&#xb3;" horiz-adv-x="412" 
d="M190 324h-115q-18 0 -18 17v8q0 16 18 16h115q60 0 92.5 23.5t32.5 69.5q0 78 -111 78h-70q-19 0 -19 17v9q0 6 5.5 10.5t13.5 4.5h106q60 31 60 72q0 60 -102 60h-110q-18 0 -18 17v8q0 16 18 16h110q72 0 111 -26t39 -75q0 -54 -57 -86q72 -29 72 -105q0 -60 -47 -97
t-126 -37z" />
    <glyph glyph-name="acute" unicode="&#xb4;" horiz-adv-x="167" 
d="M163 766l-121 -125q-16 -16 -25 -16h-5q-12 0 -12 8q0 3 3 8l87 125q12 15 22 15h44q11 0 11 -7q0 -4 -4 -8z" />
    <glyph glyph-name="mu" unicode="&#xb5;" horiz-adv-x="574" 
d="M452 16q-18 38 -18 105l-39 -39q-25 -24 -40.5 -37.5t-53 -33t-71.5 -19.5q-64 0 -97 47v-211q0 -16 -16 -16h-12q-15 0 -15 16v703q0 16 15 16h16q16 0 16 -16v-375q0 -121 97 -121q27 0 60 19t52 36t49 47l39 39v355q0 16 15 16h16q15 0 15 -16v-406q0 -71 19 -109
q3 -8 0 -12t-11 -4h-15q-13 0 -21 16z" />
    <glyph glyph-name="mu" unicode="&#x3bc;" horiz-adv-x="574" 
d="M452 16q-18 38 -18 105l-39 -39q-25 -24 -40.5 -37.5t-53 -33t-71.5 -19.5q-64 0 -97 47v-211q0 -16 -16 -16h-12q-15 0 -15 16v703q0 16 15 16h16q16 0 16 -16v-375q0 -121 97 -121q27 0 60 19t52 36t49 47l39 39v355q0 16 15 16h16q15 0 15 -16v-406q0 -71 19 -109
q3 -8 0 -12t-11 -4h-15q-13 0 -21 16z" />
    <glyph glyph-name="paragraph" unicode="&#xb6;" horiz-adv-x="641" 
d="M426 734v-906q0 -16 -16 -16h-19q-16 0 -16 16v360h-62q-123 0 -202.5 73t-79.5 208t79.5 208t202.5 73h97q16 0 16 -16zM562 734v-906q0 -16 -15 -16h-20q-15 0 -15 16v906q0 16 15 16h20q15 0 15 -16z" />
    <glyph glyph-name="periodcentered" unicode="&#xb7;" horiz-adv-x="273" 
d="M109 329v63q0 15 16 15h23q16 0 16 -15v-63q0 -16 -16 -16h-23q-16 0 -16 16z" />
    <glyph glyph-name="periodcentered" unicode="&#x2219;" horiz-adv-x="273" 
d="M109 329v63q0 15 16 15h23q16 0 16 -15v-63q0 -16 -16 -16h-23q-16 0 -16 16z" />
    <glyph glyph-name="cedilla" unicode="&#xb8;" horiz-adv-x="199" 
d="M105 -188h-89q-16 0 -16 16v8q0 16 16 16h93q55 0 55 50q0 17 -15.5 35t-35.5 28v12h24q26 -12 44 -35.5t18 -46.5q0 -38 -26 -60.5t-68 -22.5z" />
    <glyph glyph-name="onesuperior" unicode="&#xb9;" horiz-adv-x="412" 
d="M208 699l-115 -43q-6 -2 -8 -2q-14 0 -14 15v12q0 11 16 17l136 50q6 2 15 2q18 0 18 -16v-393q0 -17 -18 -17h-12q-18 0 -18 17v358z" />
    <glyph glyph-name="ordmasculine" unicode="&#xba;" horiz-adv-x="469" 
d="M234 326q-98 0 -144.5 59t-46.5 158q0 97 47.5 153t143.5 56q192 0 192 -209q0 -217 -192 -217zM234 359q152 0 152 184q0 176 -152 176q-151 0 -151 -176q0 -184 151 -184z" />
    <glyph glyph-name="guillemotright" unicode="&#xbb;" horiz-adv-x="586" 
d="M258 302l-188 -145q-4 -3 -8 -3q-7 0 -7 12v19q0 10 15 23l157 128l-157 128q-15 13 -15 23v19q0 12 7 12q4 0 8 -3l188 -144q15 -11 15 -22v-25q0 -12 -15 -22zM508 302l-188 -145q-4 -3 -8 -3q-7 0 -7 12v19q0 10 15 23l157 128l-157 128q-15 13 -15 23v19q0 12 7 12
q4 0 8 -3l188 -144q15 -11 15 -22v-25q0 -12 -15 -22z" />
    <glyph glyph-name="onequarter" unicode="&#xbc;" horiz-adv-x="938" 
d="M671 737l-367 -724q-7 -13 -18 -13h-11q-15 0 -8 13l367 724q7 13 17 13h11q16 0 9 -13zM531 123v7q0 9 8 17q46 53 78.5 125.5t41.5 138.5q2 15 19 15h11q18 0 18 -13q0 -1 -8 -38q-30 -125 -105 -227h175v121q0 15 17 15h13q17 0 17 -15v-121h45q19 0 19 -16v-9
q0 -16 -19 -16h-45v-90q0 -17 -17 -17h-13q-17 0 -17 17v90h-219q-19 0 -19 16zM210 699l-115 -43q-6 -2 -8 -2q-14 0 -14 15v12q0 11 16 17l136 50q6 2 15 2q18 0 18 -16v-393q0 -17 -18 -17h-12q-18 0 -18 17v358z" />
    <glyph glyph-name="onehalf" unicode="&#xbd;" horiz-adv-x="938" 
d="M671 737l-367 -724q-7 -13 -18 -13h-11q-10 0 -10 7q0 2 2 6l367 724q7 13 17 13h11q11 0 11 -7q0 -2 -2 -6zM210 699l-115 -43q-6 -2 -8 -2q-14 0 -14 15v12q0 11 16 17l136 50q6 2 15 2q18 0 18 -16v-393q0 -17 -18 -17h-12q-18 0 -18 17v358zM548 17v34q0 100 117 147
l48 20q88 35 88 92q0 75 -112 75h-102q-19 0 -19 16v9q0 16 19 16h102q161 0 161 -116q0 -82 -129 -132l-48 -19q-79 -29 -79 -108v-10h240q18 0 18 -17v-7q0 -17 -18 -17h-268q-18 0 -18 17z" />
    <glyph glyph-name="threequarters" unicode="&#xbe;" horiz-adv-x="938" 
d="M671 737l-367 -724q-7 -13 -18 -13h-11q-10 0 -10 7q0 2 2 6l367 724q7 13 17 13h11q11 0 11 -7q0 -2 -2 -6zM185 324h-116q-18 0 -18 17v8q0 16 18 16h116q59 0 92 23.5t33 69.5q0 78 -112 78h-70q-19 0 -19 17v9q0 6 5.5 10.5t13.5 4.5h106q60 31 60 72q0 60 -102 60
h-110q-18 0 -18 17v8q0 16 18 16h110q72 0 111 -26t39 -75q0 -54 -57 -86q72 -29 72 -105q0 -60 -46.5 -97t-125.5 -37zM531 123v7q0 9 8 17q46 53 78.5 125.5t41.5 138.5q2 15 19 15h11q18 0 18 -13q0 -1 -8 -38q-30 -125 -105 -227h175v121q0 15 17 15h13q17 0 17 -15
v-121h45q19 0 19 -16v-9q0 -16 -19 -16h-45v-90q0 -17 -17 -17h-13q-17 0 -17 17v90h-219q-19 0 -19 16z" />
    <glyph glyph-name="questiondown" unicode="&#xbf;" horiz-adv-x="434" 
d="M297 734v-62q0 -16 -16 -16h-23q-16 0 -16 16v62q0 16 16 16h23q16 0 16 -16zM358 0h-104q-104 0 -151.5 43t-47.5 129q0 85 86 183l105 122v69q0 16 16 16h15q16 0 16 -16v-64q0 -13 -8 -22l-98 -116q-85 -103 -85 -172q0 -129 136 -129h120q16 0 16 -16v-11
q0 -16 -16 -16z" />
    <glyph glyph-name="Agrave" unicode="&#xc0;" 
d="M590 23q2 -6 2 -10q0 -13 -18 -13h-21q-15 0 -18 16q-23 100 -53 203h-339q-35 -119 -53 -203q-3 -16 -18 -16h-25q-14 0 -14 12q0 5 2 11q18 73 82 297q32 110 84.5 244.5t79.5 185.5h63q27 -51 79.5 -185.5t84.5 -244.5q7 -23 26 -86.5t31 -109t25 -101.5zM172 320
q-3 -10 -8.5 -28.5t-7.5 -25.5h313q-2 7 -7.5 25.5t-8.5 28.5q-52 178 -140 383q-86 -197 -141 -383zM338 844l-121 125q-4 4 -4 8q0 7 11 7h44q10 0 22 -15l87 -125q3 -4 3 -8q0 -8 -12 -8h-5q-9 0 -25 16z" />
    <glyph glyph-name="Aacute" unicode="&#xc1;" 
d="M590 23q2 -6 2 -10q0 -13 -18 -13h-21q-15 0 -18 16q-23 100 -53 203h-339q-35 -119 -53 -203q-3 -16 -18 -16h-25q-14 0 -14 12q0 5 2 11q18 73 82 297q32 110 84.5 244.5t79.5 185.5h63q27 -51 79.5 -185.5t84.5 -244.5q7 -23 26 -86.5t31 -109t25 -101.5zM172 320
q-3 -10 -8.5 -28.5t-7.5 -25.5h313q-2 7 -7.5 25.5t-8.5 28.5q-52 178 -140 383q-86 -197 -141 -383zM415 969l-121 -125q-16 -16 -25 -16h-5q-12 0 -12 8q0 4 3 8l87 125q12 15 22 15h44q11 0 11 -7q0 -4 -4 -8z" />
    <glyph glyph-name="Acircumflex" unicode="&#xc2;" 
d="M590 23q2 -6 2 -10q0 -13 -18 -13h-21q-15 0 -18 16q-23 100 -53 203h-339q-35 -119 -53 -203q-3 -16 -18 -16h-25q-14 0 -14 12q0 5 2 11q18 73 82 297q32 110 84.5 244.5t79.5 185.5h63q27 -51 79.5 -185.5t84.5 -244.5q7 -23 26 -86.5t31 -109t25 -101.5zM172 320
q-3 -10 -8.5 -28.5t-7.5 -25.5h313q-2 7 -7.5 25.5t-8.5 28.5q-52 178 -140 383q-86 -197 -141 -383zM157 844l111 125q15 15 25 15h41q9 0 24 -15l109 -125q4 -4 4 -9q0 -7 -9 -7h-14q-11 0 -25 16l-110 113l-109 -113q-16 -16 -26 -16h-15q-10 0 -10 7q0 5 4 9z" />
    <glyph glyph-name="Atilde" unicode="&#xc3;" 
d="M590 23q2 -6 2 -10q0 -13 -18 -13h-21q-15 0 -18 16q-23 100 -53 203h-339q-35 -119 -53 -203q-3 -16 -18 -16h-25q-14 0 -14 12q0 5 2 11q18 73 82 297q32 110 84.5 244.5t79.5 185.5h63q27 -51 79.5 -185.5t84.5 -244.5q7 -23 26 -86.5t31 -109t25 -101.5zM172 320
q-3 -10 -8.5 -28.5t-7.5 -25.5h313q-2 7 -7.5 25.5t-8.5 28.5q-52 178 -140 383q-86 -197 -141 -383zM469 883q-36 -55 -82 -55q-28 0 -80.5 39t-67.5 39q-39 0 -82 -66q-6 -9 -11 -9t-5 10v16q0 12 16 33q37 55 82 55q29 0 81 -39t67 -39q37 0 82 66q6 9 11 9t5 -10v-16
q0 -12 -16 -33z" />
    <glyph glyph-name="Adieresis" unicode="&#xc4;" 
d="M590 23q2 -6 2 -10q0 -13 -18 -13h-21q-15 0 -18 16q-23 100 -53 203h-339q-35 -119 -53 -203q-3 -16 -18 -16h-25q-14 0 -14 12q0 5 2 11q18 73 82 297q32 110 84.5 244.5t79.5 185.5h63q27 -51 79.5 -185.5t84.5 -244.5q7 -23 26 -86.5t31 -109t25 -101.5zM172 320
q-3 -10 -8.5 -28.5t-7.5 -25.5h313q-2 7 -7.5 25.5t-8.5 28.5q-52 178 -140 383q-86 -197 -141 -383zM164 844v62q0 16 16 16h23q16 0 16 -16v-62q0 -16 -16 -16h-23q-16 0 -16 16zM406 844v62q0 16 16 16h23q16 0 16 -16v-62q0 -16 -16 -16h-23q-16 0 -16 16z" />
    <glyph glyph-name="Aring" unicode="&#xc5;" 
d="M590 23q2 -6 2 -10q0 -13 -18 -13h-21q-15 0 -18 16q-23 100 -53 203h-339q-35 -119 -53 -203q-3 -16 -18 -16h-25q-14 0 -14 12q0 5 2 11q18 73 82 297q32 110 84.5 244.5t79.5 185.5h63q27 -51 79.5 -185.5t84.5 -244.5q7 -23 26 -86.5t31 -109t25 -101.5zM172 320
q-3 -10 -8.5 -28.5t-7.5 -25.5h313q-2 7 -7.5 25.5t-8.5 28.5q-52 178 -140 383q-86 -197 -141 -383zM312 828q-53 0 -83 29.5t-30 72.5t30 72t83 29t83.5 -29t30.5 -72t-30.5 -72.5t-83.5 -29.5zM312 851q40 0 61 21.5t21 57.5t-21 57t-61 21t-61 -21t-21 -57t21 -57.5
t61 -21.5z" />
    <glyph glyph-name="AE" unicode="&#xc6;" horiz-adv-x="855" 
d="M37 39q45 219 116.5 407.5t139.5 303.5h484q16 0 16 -16v-15q0 -16 -16 -16h-332v-281h301q16 0 16 -16v-15q0 -16 -16 -16h-301v-207q0 -121 121 -121h211q16 0 16 -16v-15q0 -16 -16 -16h-207q-175 0 -175 172v47h-262q-25 -90 -44 -203q-3 -16 -18 -16h-25
q-14 0 -14 12q0 3 2.5 13t2.5 14zM320 703q-94 -158 -174 -437h249v437h-75z" />
    <glyph glyph-name="Ccedilla" unicode="&#xc7;" horiz-adv-x="609" 
d="M508 570v121q-52 20 -133 20q-136 0 -203 -74.5t-67 -214.5v-94q0 -289 254 -289h32q48 0 125 23l7.5 2.5t8 2.5t5.5 1q10 0 10 -12v-16q0 -14 -16 -19q-75 -29 -140 -29h-32q-152 0 -228 88.5t-76 247.5v94q0 157 83.5 246.5t236.5 89.5q51 0 102 -10t78 -25v-153
q0 -15 -16 -15h-16q-15 0 -15 15zM337 -188h-89q-16 0 -16 16v8q0 16 16 16h93q55 0 55 50q0 17 -15.5 35t-35.5 28v12h24q26 -12 44 -35.5t18 -46.5q0 -38 -26 -60.5t-68 -22.5z" />
    <glyph glyph-name="Egrave" unicode="&#xc8;" horiz-adv-x="555" 
d="M445 375h-300v-207q0 -121 121 -121h211q15 0 15 -16v-15q0 -16 -15 -16h-207q-176 0 -176 172v562q0 16 15 16h368q15 0 15 -16v-15q0 -16 -15 -16h-332v-281h300q16 0 16 -16v-15q0 -16 -16 -16zM303 844l-121 125q-4 4 -4 8q0 7 11 7h44q10 0 22 -15l87 -125
q3 -4 3 -8q0 -8 -12 -8h-5q-9 0 -25 16z" />
    <glyph glyph-name="Eacute" unicode="&#xc9;" horiz-adv-x="555" 
d="M445 375h-300v-207q0 -121 121 -121h211q15 0 15 -16v-15q0 -16 -15 -16h-207q-176 0 -176 172v562q0 16 15 16h368q15 0 15 -16v-15q0 -16 -15 -16h-332v-281h300q16 0 16 -16v-15q0 -16 -16 -16zM380 969l-121 -125q-16 -16 -25 -16h-5q-12 0 -12 8q0 4 3 8l87 125
q12 15 22 15h44q11 0 11 -7q0 -4 -4 -8z" />
    <glyph glyph-name="Ecircumflex" unicode="&#xca;" horiz-adv-x="555" 
d="M445 375h-300v-207q0 -121 121 -121h211q15 0 15 -16v-15q0 -16 -15 -16h-207q-176 0 -176 172v562q0 16 15 16h368q15 0 15 -16v-15q0 -16 -15 -16h-332v-281h300q16 0 16 -16v-15q0 -16 -16 -16zM122 844l111 125q15 15 25 15h41q9 0 24 -15l109 -125q4 -4 4 -9
q0 -7 -9 -7h-14q-11 0 -25 16l-110 113l-109 -113q-16 -16 -26 -16h-15q-10 0 -10 7q0 5 4 9z" />
    <glyph glyph-name="Edieresis" unicode="&#xcb;" horiz-adv-x="555" 
d="M445 375h-300v-207q0 -121 121 -121h211q15 0 15 -16v-15q0 -16 -15 -16h-207q-176 0 -176 172v562q0 16 15 16h368q15 0 15 -16v-15q0 -16 -15 -16h-332v-281h300q16 0 16 -16v-15q0 -16 -16 -16zM141 844v62q0 16 16 16h23q16 0 16 -16v-62q0 -16 -16 -16h-23
q-16 0 -16 16zM383 844v62q0 16 16 16h23q16 0 16 -16v-62q0 -16 -16 -16h-23q-16 0 -16 16z" />
    <glyph glyph-name="Igrave" unicode="&#xcc;" horiz-adv-x="238" 
d="M94 16v718q0 16 15 16h20q16 0 16 -16v-718q0 -16 -16 -16h-20q-15 0 -15 16zM145 844l-121 125q-4 4 -4 8q0 7 11 7h44q10 0 22 -15l87 -125q3 -4 3 -8q0 -8 -12 -8h-5q-9 0 -25 16z" />
    <glyph glyph-name="Iacute" unicode="&#xcd;" horiz-adv-x="238" 
d="M94 16v718q0 16 15 16h20q16 0 16 -16v-718q0 -16 -16 -16h-20q-15 0 -15 16zM222 969l-121 -125q-16 -16 -25 -16h-5q-12 0 -12 8q0 4 3 8l87 125q12 15 22 15h44q11 0 11 -7q0 -4 -4 -8z" />
    <glyph glyph-name="Icircumflex" unicode="&#xce;" horiz-adv-x="238" 
d="M94 16v718q0 16 15 16h20q16 0 16 -16v-718q0 -16 -16 -16h-20q-15 0 -15 16zM-36 844l111 125q15 15 25 15h41q9 0 24 -15l109 -125q4 -4 4 -9q0 -7 -9 -7h-14q-11 0 -25 16l-110 113l-109 -113q-16 -16 -26 -16h-15q-10 0 -10 7q0 5 4 9z" />
    <glyph glyph-name="Idieresis" unicode="&#xcf;" horiz-adv-x="238" 
d="M94 16v718q0 16 15 16h20q16 0 16 -16v-718q0 -16 -16 -16h-20q-15 0 -15 16zM-29 844v62q0 16 16 16h23q16 0 16 -16v-62q0 -16 -16 -16h-23q-16 0 -16 16zM213 844v62q0 16 16 16h23q16 0 16 -16v-62q0 -16 -16 -16h-23q-16 0 -16 16z" />
    <glyph glyph-name="Eth" unicode="&#xd0;" horiz-adv-x="680" 
d="M94 16v379h-47q-16 0 -16 15v13q0 15 16 15h47v296q0 16 15 16h196q158 0 235 -77t77 -235v-110q0 -153 -75.5 -240.5t-221.5 -87.5h-211q-15 0 -15 16zM267 395h-122v-348h183q238 0 238 281v110q0 133 -61.5 199t-191.5 66h-168v-265h122q15 0 15 -15v-13
q0 -15 -15 -15z" />
    <glyph glyph-name="Ntilde" unicode="&#xd1;" horiz-adv-x="687" 
d="M547 12l-402 629v-625q0 -16 -16 -16h-20q-15 0 -15 16v718q0 16 15 16h12q11 0 20 -12l402 -629v625q0 16 16 16h19q16 0 16 -16v-718q0 -16 -16 -16h-12q-10 0 -19 12zM500 883q-36 -55 -82 -55q-28 0 -80 39t-68 39q-39 0 -82 -66q-6 -9 -11 -9t-5 10v16q0 12 16 33
q37 55 82 55q29 0 81 -39t67 -39q37 0 82 66q6 9 11 9t5 -10v-16q0 -12 -16 -33z" />
    <glyph glyph-name="Ograve" unicode="&#xd2;" horiz-adv-x="688" 
d="M344 -8q-100 0 -166.5 49.5t-94.5 129.5t-28 188v32q0 108 28 188t94.5 129.5t166.5 49.5t166.5 -49.5t94.5 -129.5t28 -188v-32q0 -108 -28 -188t-94.5 -129.5t-166.5 -49.5zM344 39q238 0 238 320v32q0 320 -238 320q-239 0 -239 -320v-32q0 -320 239 -320zM370 844
l-121 125q-4 4 -4 8q0 7 11 7h44q10 0 22 -15l87 -125q3 -4 3 -8q0 -8 -12 -8h-5q-9 0 -25 16z" />
    <glyph glyph-name="Oacute" unicode="&#xd3;" horiz-adv-x="688" 
d="M344 -8q-100 0 -166.5 49.5t-94.5 129.5t-28 188v32q0 108 28 188t94.5 129.5t166.5 49.5t166.5 -49.5t94.5 -129.5t28 -188v-32q0 -108 -28 -188t-94.5 -129.5t-166.5 -49.5zM344 39q238 0 238 320v32q0 320 -238 320q-239 0 -239 -320v-32q0 -320 239 -320zM439 969
l-121 -125q-16 -16 -25 -16h-5q-12 0 -12 8q0 4 3 8l87 125q12 15 22 15h44q11 0 11 -7q0 -4 -4 -8z" />
    <glyph glyph-name="Ocircumflex" unicode="&#xd4;" horiz-adv-x="688" 
d="M344 -8q-100 0 -166.5 49.5t-94.5 129.5t-28 188v32q0 108 28 188t94.5 129.5t166.5 49.5t166.5 -49.5t94.5 -129.5t28 -188v-32q0 -108 -28 -188t-94.5 -129.5t-166.5 -49.5zM344 39q238 0 238 320v32q0 320 -238 320q-239 0 -239 -320v-32q0 -320 239 -320zM189 844
l111 125q15 15 25 15h41q9 0 24 -15l109 -125q4 -4 4 -9q0 -7 -9 -7h-14q-11 0 -25 16l-110 113l-109 -113q-16 -16 -26 -16h-15q-10 0 -10 7q0 5 4 9z" />
    <glyph glyph-name="Otilde" unicode="&#xd5;" horiz-adv-x="688" 
d="M344 -8q-100 0 -166.5 49.5t-94.5 129.5t-28 188v32q0 108 28 188t94.5 129.5t166.5 49.5t166.5 -49.5t94.5 -129.5t28 -188v-32q0 -108 -28 -188t-94.5 -129.5t-166.5 -49.5zM344 39q238 0 238 320v32q0 320 -238 320q-239 0 -239 -320v-32q0 -320 239 -320zM500 883
q-36 -55 -82 -55q-28 0 -80 39t-68 39q-39 0 -82 -66q-6 -9 -11 -9t-5 10v16q0 12 16 33q37 55 82 55q29 0 81 -39t67 -39q37 0 82 66q6 9 11 9t5 -10v-16q0 -12 -16 -33z" />
    <glyph glyph-name="Odieresis" unicode="&#xd6;" horiz-adv-x="688" 
d="M344 -8q-100 0 -166.5 49.5t-94.5 129.5t-28 188v32q0 108 28 188t94.5 129.5t166.5 49.5t166.5 -49.5t94.5 -129.5t28 -188v-32q0 -108 -28 -188t-94.5 -129.5t-166.5 -49.5zM344 39q238 0 238 320v32q0 320 -238 320q-239 0 -239 -320v-32q0 -320 239 -320zM195 844v62
q0 16 16 16h23q16 0 16 -16v-62q0 -16 -16 -16h-23q-16 0 -16 16zM437 844v62q0 16 16 16h23q16 0 16 -16v-62q0 -16 -16 -16h-23q-16 0 -16 16z" />
    <glyph glyph-name="multiply" unicode="&#xd7;" 
d="M471 497l-130 -130l130 -130q5 -5 5 -10q0 -7 -5 -12l-5 -5q-5 -5 -12 -5q-6 0 -11 5l-130 130l-129 -130q-5 -5 -11 -5q-7 0 -12 5l-5 5q-5 5 -5 12q0 5 5 10l130 130l-130 130q-5 5 -5 11q0 7 5 12l5 4q5 5 12 5q6 0 11 -5l129 -129l130 129q5 5 11 5q7 0 12 -5l5 -4
q5 -5 5 -12q0 -6 -5 -11z" />
    <glyph glyph-name="Oslash" unicode="&#xd8;" horiz-adv-x="688" 
d="M58 16l61 85q-64 94 -64 258v32q0 108 28 188t94.5 129.5t166.5 49.5q124 0 198 -77l40 53q13 16 23 16h18q11 0 11 -7q0 -4 -4 -9l-63 -86q66 -95 66 -257v-32q0 -108 -28 -188t-94.5 -129.5t-166.5 -49.5q-127 0 -199 77l-40 -53q-11 -16 -23 -16h-18q-10 0 -10 7
q0 5 4 9zM105 359q0 -137 45 -216l364 498q-60 70 -170 70q-239 0 -239 -320v-32zM344 39q238 0 238 320v32q0 136 -45 215l-363 -498q58 -69 170 -69z" />
    <glyph glyph-name="Ugrave" unicode="&#xd9;" horiz-adv-x="672" 
d="M586 734v-484q0 -130 -61 -194t-189 -64q-131 0 -190.5 62.5t-59.5 195.5v484q0 16 16 16h19q16 0 16 -16v-500q0 -96 51 -145.5t148 -49.5t148 49.5t51 145.5v500q0 16 16 16h19q16 0 16 -16zM361 844l-121 125q-4 4 -4 8q0 7 11 7h44q10 0 22 -15l87 -125q3 -4 3 -8
q0 -8 -12 -8h-5q-9 0 -25 16z" />
    <glyph glyph-name="Uacute" unicode="&#xda;" horiz-adv-x="672" 
d="M586 734v-484q0 -130 -61 -194t-189 -64q-131 0 -190.5 62.5t-59.5 195.5v484q0 16 16 16h19q16 0 16 -16v-500q0 -96 51 -145.5t148 -49.5t148 49.5t51 145.5v500q0 16 16 16h19q16 0 16 -16zM438 969l-121 -125q-16 -16 -25 -16h-5q-12 0 -12 8q0 4 3 8l87 125
q12 15 22 15h44q11 0 11 -7q0 -4 -4 -8z" />
    <glyph glyph-name="Ucircumflex" unicode="&#xdb;" horiz-adv-x="672" 
d="M586 734v-484q0 -130 -61 -194t-189 -64q-131 0 -190.5 62.5t-59.5 195.5v484q0 16 16 16h19q16 0 16 -16v-500q0 -96 51 -145.5t148 -49.5t148 49.5t51 145.5v500q0 16 16 16h19q16 0 16 -16zM181 844l111 125q15 15 25 15h41q9 0 24 -15l109 -125q4 -4 4 -9q0 -7 -9 -7
h-14q-11 0 -25 16l-110 113l-109 -113q-16 -16 -26 -16h-15q-10 0 -10 7q0 5 4 9z" />
    <glyph glyph-name="Udieresis" unicode="&#xdc;" horiz-adv-x="672" 
d="M586 734v-484q0 -130 -61 -194t-189 -64q-131 0 -190.5 62.5t-59.5 195.5v484q0 16 16 16h19q16 0 16 -16v-500q0 -96 51 -145.5t148 -49.5t148 49.5t51 145.5v500q0 16 16 16h19q16 0 16 -16zM187 844v62q0 16 16 16h23q16 0 16 -16v-62q0 -16 -16 -16h-23q-16 0 -16 16
zM429 844v62q0 16 16 16h23q16 0 16 -16v-62q0 -16 -16 -16h-23q-16 0 -16 16z" />
    <glyph glyph-name="Yacute" unicode="&#xdd;" horiz-adv-x="563" 
d="M539 734l-230 -425v-293q0 -16 -16 -16h-20q-15 0 -15 16v293l-231 425q-2 4 -2 7q0 9 13 9h24q13 0 21 -16l202 -371l198 371q8 16 21 16h24q13 0 13 -9q0 -3 -2 -7zM385 969l-121 -125q-16 -16 -25 -16h-5q-12 0 -12 8q0 4 3 8l87 125q12 15 22 15h44q11 0 11 -7
q0 -4 -4 -8z" />
    <glyph glyph-name="Thorn" unicode="&#xde;" horiz-adv-x="578" 
d="M94 16v718q0 16 15 16h20q16 0 16 -16v-101h164q222 0 222 -231q0 -113 -58.5 -179.5t-167.5 -66.5h-160v-140q0 -16 -16 -16h-20q-15 0 -15 16zM324 586h-179v-383h168q167 0 167 199q0 184 -156 184z" />
    <glyph glyph-name="germandbls" unicode="&#xdf;" horiz-adv-x="652" 
d="M290 52q47 -17 128 -17q59 0 94 29t35 81q0 34 -19.5 55t-62.5 46l-55 31q-2 1 -11.5 6.5t-12 7t-11.5 7.5t-12 9t-10 9.5t-10 11.5t-7.5 13.5t-6.5 16.5t-3.5 18.5t-1.5 21.5q0 19 5 35t17 30t20 22t25.5 21t22.5 17q47 43 47 82q0 52 -37 77t-92 25q-69 0 -110.5 -30.5
t-41.5 -113.5v-547q0 -16 -16 -16h-16q-15 0 -15 16v488h-86q-16 0 -16 16v11q0 16 16 16h86v19q0 89 54 136.5t145 47.5q69 0 122.5 -37t53.5 -96q0 -31 -11 -55t-21 -34.5t-39 -35.5q-3 -3 -18 -14.5t-23.5 -19.5t-16.5 -22.5t-8 -29.5q0 -10 1.5 -18.5t2.5 -14.5
t6.5 -12.5t7 -9.5t10 -9.5t10.5 -8t14 -9t14 -8.5l40 -23q4 -3 22.5 -13t27 -15.5t24 -18.5t23 -25.5t14 -32.5t6.5 -43q0 -65 -46.5 -109t-133.5 -44q-69 0 -125 16q-16 5 -16 17v16q0 8 5 11t12 0z" />
    <glyph glyph-name="agrave" unicode="&#xe0;" horiz-adv-x="551" 
d="M410 16v105l-35 -35q-30 -30 -48 -45.5t-54 -32t-74 -16.5q-68 0 -104 47t-36 121v133q0 116 73.5 185t191.5 69h117q16 0 16 -16v-515q0 -16 -16 -16h-15q-16 0 -16 16zM355 121l55 55v328h-90q-99 0 -157 -55.5t-58 -151.5v-137q0 -56 26 -90.5t76 -34.5q40 0 74 22.5
t74 63.5zM305 641l-121 125q-4 4 -4 8q0 7 11 7h44q10 0 22 -15l87 -125q3 -4 3 -8q0 -8 -12 -8h-5q-9 0 -25 16z" />
    <glyph glyph-name="aacute" unicode="&#xe1;" horiz-adv-x="551" 
d="M410 16v105l-35 -35q-30 -30 -48 -45.5t-54 -32t-74 -16.5q-68 0 -104 47t-36 121v133q0 116 73.5 185t191.5 69h117q16 0 16 -16v-515q0 -16 -16 -16h-15q-16 0 -16 16zM355 121l55 55v328h-90q-99 0 -157 -55.5t-58 -151.5v-137q0 -56 26 -90.5t76 -34.5q40 0 74 22.5
t74 63.5zM390 766l-121 -125q-16 -16 -25 -16h-5q-12 0 -12 8q0 3 3 8l87 125q12 15 22 15h44q11 0 11 -7q0 -4 -4 -8z" />
    <glyph glyph-name="acircumflex" unicode="&#xe2;" horiz-adv-x="551" 
d="M410 16v105l-35 -35q-30 -30 -48 -45.5t-54 -32t-74 -16.5q-68 0 -104 47t-36 121v133q0 116 73.5 185t191.5 69h117q16 0 16 -16v-515q0 -16 -16 -16h-15q-16 0 -16 16zM355 121l55 55v328h-90q-99 0 -157 -55.5t-58 -151.5v-137q0 -56 26 -90.5t76 -34.5q40 0 74 22.5
t74 63.5zM128 641l111 125q15 15 25 15h41q9 0 24 -15l109 -125q4 -4 4 -9q0 -7 -9 -7h-14q-11 0 -25 16l-110 113l-109 -113q-16 -16 -26 -16h-15q-10 0 -10 7q0 5 4 9z" />
    <glyph glyph-name="atilde" unicode="&#xe3;" horiz-adv-x="551" 
d="M410 16v105l-35 -35q-30 -30 -48 -45.5t-54 -32t-74 -16.5q-68 0 -104 47t-36 121v133q0 116 73.5 185t191.5 69h117q16 0 16 -16v-515q0 -16 -16 -16h-15q-16 0 -16 16zM355 121l55 55v328h-90q-99 0 -157 -55.5t-58 -151.5v-137q0 -56 26 -90.5t76 -34.5q40 0 74 22.5
t74 63.5zM439 680q-36 -55 -82 -55q-27 0 -79.5 39t-68.5 39q-39 0 -82 -66q-6 -9 -11 -9t-5 10v16q0 12 16 33q37 55 82 55q29 0 81 -39t67 -39q37 0 82 66q6 9 11 9t5 -10v-16q0 -12 -16 -33z" />
    <glyph glyph-name="adieresis" unicode="&#xe4;" horiz-adv-x="551" 
d="M410 16v105l-35 -35q-30 -30 -48 -45.5t-54 -32t-74 -16.5q-68 0 -104 47t-36 121v133q0 116 73.5 185t191.5 69h117q16 0 16 -16v-515q0 -16 -16 -16h-15q-16 0 -16 16zM355 121l55 55v328h-90q-99 0 -157 -55.5t-58 -151.5v-137q0 -56 26 -90.5t76 -34.5q40 0 74 22.5
t74 63.5zM135 641v62q0 16 16 16h23q16 0 16 -16v-62q0 -16 -16 -16h-23q-16 0 -16 16zM377 641v62q0 16 16 16h23q16 0 16 -16v-62q0 -16 -16 -16h-23q-16 0 -16 16z" />
    <glyph glyph-name="aring" unicode="&#xe5;" horiz-adv-x="551" 
d="M410 16v105l-35 -35q-30 -30 -48 -45.5t-54 -32t-74 -16.5q-68 0 -104 47t-36 121v133q0 116 73.5 185t191.5 69h117q16 0 16 -16v-515q0 -16 -16 -16h-15q-16 0 -16 16zM355 121l55 55v328h-90q-99 0 -157 -55.5t-58 -151.5v-137q0 -56 26 -90.5t76 -34.5q40 0 74 22.5
t74 63.5zM287 625q-53 0 -83 29.5t-30 72.5t30 72t83 29t83.5 -29t30.5 -72t-30.5 -72.5t-83.5 -29.5zM287 648q40 0 61 21.5t21 57.5t-21 57t-61 21q-39 0 -60.5 -21.5t-21.5 -56.5q0 -36 21 -57.5t61 -21.5z" />
    <glyph glyph-name="ae" unicode="&#xe6;" horiz-adv-x="844" 
d="M754 70q4 2 7 2q9 0 9 -12v-13q0 -14 -16 -22q-62 -33 -141 -33q-76 0 -126 33.5t-67 95.5h-10l-35 -35q-30 -30 -48 -45.5t-54 -32t-74 -16.5q-68 0 -104 47t-36 121v133q0 116 73.5 185t191.5 69h297q80 0 130 -39.5t50 -112.5q0 -71 -46 -108t-122 -37h-176v-55
q0 -76 40.5 -118t115.5 -42q68 0 141 35zM355 121l55 55v160q0 110 74 168h-164q-99 0 -157 -55.5t-58 -151.5v-137q0 -56 26 -90.5t76 -34.5q40 0 74 22.5t74 63.5zM457 336v-43h180q58 0 87.5 24t29.5 78q0 53 -37 81t-96 28q-78 0 -121 -44.5t-43 -123.5z" />
    <glyph glyph-name="ccedilla" unicode="&#xe7;" horiz-adv-x="469" 
d="M371 422v70q-45 20 -101 20q-79 0 -122 -44.5t-43 -123.5v-149q0 -76 40.5 -118t116.5 -42q72 0 136 32q8 4 11 4q9 0 9 -11v-13q0 -12 -16 -22q-61 -33 -140 -33q-97 0 -150 53t-53 150v149q0 97 57 154t154 57q95 0 148 -35v-98q0 -16 -16 -16h-15q-16 0 -16 16z
M232 -188h-89q-16 0 -16 16v8q0 16 16 16h93q55 0 55 50q0 17 -15.5 35t-35.5 28v12h24q26 -12 44 -35.5t18 -46.5q0 -38 -26 -60.5t-68 -22.5z" />
    <glyph glyph-name="egrave" unicode="&#xe8;" horiz-adv-x="500" 
d="M402 70q4 2 7 2q9 0 9 -12v-13q0 -14 -16 -22q-62 -33 -140 -33q-97 0 -150 53t-53 150v149q0 96 58.5 153.5t152.5 57.5q79 0 129 -39.5t50 -113.5q0 -70 -46 -107t-122 -37h-176v-63q0 -76 40.5 -118t116.5 -42q67 0 140 35zM105 344v-43h180q117 0 117 101
q0 54 -36.5 82t-95.5 28q-79 0 -122 -44.5t-43 -123.5zM283 641l-121 125q-4 4 -4 8q0 7 11 7h44q10 0 22 -15l87 -125q3 -4 3 -8q0 -8 -12 -8h-5q-9 0 -25 16z" />
    <glyph glyph-name="eacute" unicode="&#xe9;" horiz-adv-x="500" 
d="M402 70q4 2 7 2q9 0 9 -12v-13q0 -14 -16 -22q-62 -33 -140 -33q-97 0 -150 53t-53 150v149q0 96 58.5 153.5t152.5 57.5q79 0 129 -39.5t50 -113.5q0 -70 -46 -107t-122 -37h-176v-63q0 -76 40.5 -118t116.5 -42q67 0 140 35zM105 344v-43h180q117 0 117 101
q0 54 -36.5 82t-95.5 28q-79 0 -122 -44.5t-43 -123.5zM352 766l-121 -125q-16 -16 -25 -16h-5q-12 0 -12 8q0 3 3 8l87 125q12 15 22 15h44q11 0 11 -7q0 -4 -4 -8z" />
    <glyph glyph-name="ecircumflex" unicode="&#xea;" horiz-adv-x="500" 
d="M402 70q4 2 7 2q9 0 9 -12v-13q0 -14 -16 -22q-62 -33 -140 -33q-97 0 -150 53t-53 150v149q0 96 58.5 153.5t152.5 57.5q79 0 129 -39.5t50 -113.5q0 -70 -46 -107t-122 -37h-176v-63q0 -76 40.5 -118t116.5 -42q67 0 140 35zM105 344v-43h180q117 0 117 101
q0 54 -36.5 82t-95.5 28q-79 0 -122 -44.5t-43 -123.5zM95 641l111 125q15 15 25 15h41q9 0 24 -15l109 -125q4 -4 4 -9q0 -7 -9 -7h-14q-11 0 -25 16l-110 113l-109 -113q-16 -16 -26 -16h-15q-10 0 -10 7q0 5 4 9z" />
    <glyph glyph-name="edieresis" unicode="&#xeb;" horiz-adv-x="500" 
d="M402 70q4 2 7 2q9 0 9 -12v-13q0 -14 -16 -22q-62 -33 -140 -33q-97 0 -150 53t-53 150v149q0 96 58.5 153.5t152.5 57.5q79 0 129 -39.5t50 -113.5q0 -70 -46 -107t-122 -37h-176v-63q0 -76 40.5 -118t116.5 -42q67 0 140 35zM105 344v-43h180q117 0 117 101
q0 54 -36.5 82t-95.5 28q-79 0 -122 -44.5t-43 -123.5zM102 641v62q0 16 16 16h23q16 0 16 -16v-62q0 -16 -16 -16h-23q-16 0 -16 16zM344 641v62q0 16 16 16h23q16 0 16 -16v-62q0 -16 -16 -16h-23q-16 0 -16 16z" />
    <glyph glyph-name="igrave" unicode="&#xec;" horiz-adv-x="258" 
d="M117 504h-86q-15 0 -15 16v11q0 16 15 16h117q16 0 16 -16v-515q0 -16 -16 -16h-15q-16 0 -16 16v488zM154 641l-121 125q-4 4 -4 8q0 7 11 7h44q10 0 22 -15l87 -125q3 -4 3 -8q0 -8 -12 -8h-5q-9 0 -25 16z" />
    <glyph glyph-name="iacute" unicode="&#xed;" horiz-adv-x="258" 
d="M117 504h-86q-15 0 -15 16v11q0 16 15 16h117q16 0 16 -16v-515q0 -16 -16 -16h-15q-16 0 -16 16v488zM231 766l-121 -125q-16 -16 -25 -16h-5q-12 0 -12 8q0 3 3 8l87 125q12 15 22 15h44q11 0 11 -7q0 -4 -4 -8z" />
    <glyph glyph-name="icircumflex" unicode="&#xee;" horiz-adv-x="258" 
d="M117 504h-86q-15 0 -15 16v11q0 16 15 16h117q16 0 16 -16v-515q0 -16 -16 -16h-15q-16 0 -16 16v488zM-34 641l111 125q15 15 25 15h41q9 0 24 -15l109 -125q4 -4 4 -9q0 -7 -9 -7h-14q-11 0 -25 16l-110 113l-109 -113q-16 -16 -26 -16h-15q-10 0 -10 7q0 5 4 9z" />
    <glyph glyph-name="idieresis" unicode="&#xef;" horiz-adv-x="258" 
d="M117 504h-86q-15 0 -15 16v11q0 16 15 16h117q16 0 16 -16v-515q0 -16 -16 -16h-15q-16 0 -16 16v488zM-35 641v62q0 16 16 16h23q16 0 16 -16v-62q0 -16 -16 -16h-23q-16 0 -16 16zM207 641v62q0 16 16 16h23q16 0 16 -16v-62q0 -16 -16 -16h-23q-16 0 -16 16z" />
    <glyph glyph-name="eth" unicode="&#xf0;" horiz-adv-x="551" 
d="M410 16v105l-35 -35q-30 -30 -48 -45.5t-54 -32t-74 -16.5q-68 0 -104 47t-36 121v133q0 116 73.5 185t191.5 69h86v113h-109q-16 0 -16 16v4q0 15 16 15h109v39q0 16 16 16h15q16 0 16 -16v-39h51q15 0 15 -15v-4q0 -16 -15 -16h-51v-644q0 -16 -16 -16h-15
q-16 0 -16 16zM355 121l55 55v328h-90q-99 0 -157 -55.5t-58 -151.5v-137q0 -56 26 -90.5t76 -34.5q40 0 74 22.5t74 63.5z" />
    <glyph glyph-name="ntilde" unicode="&#xf1;" horiz-adv-x="578" 
d="M94 16v515q0 16 15 16h16q16 0 16 -16v-105l39 39q90 90 164 90q140 0 140 -164v-375q0 -16 -15 -16h-16q-16 0 -16 16v375q0 121 -97 121q-27 0 -60 -19t-51 -35.5t-49 -47.5l-39 -39v-355q0 -16 -16 -16h-16q-15 0 -15 16zM445 680q-36 -55 -82 -55q-27 0 -80 39
t-68 39q-39 0 -82 -66q-6 -9 -11 -9t-5 10v16q0 12 16 33q37 55 82 55q29 0 81 -39t67 -39q37 0 82 66q6 9 11 9t5 -10v-16q0 -12 -16 -33z" />
    <glyph glyph-name="ograve" unicode="&#xf2;" horiz-adv-x="555" 
d="M277 -8q-114 0 -168 78t-54 207q0 127 55 202.5t167 75.5q115 0 169 -74.5t54 -203.5q0 -130 -53.5 -207.5t-169.5 -77.5zM277 35q93 0 134.5 66.5t41.5 175.5q0 235 -176 235q-175 0 -175 -235q0 -109 41 -175.5t134 -66.5zM311 641l-121 125q-4 4 -4 8q0 7 11 7h44
q10 0 22 -15l87 -125q3 -4 3 -8q0 -8 -12 -8h-5q-9 0 -25 16z" />
    <glyph glyph-name="oacute" unicode="&#xf3;" horiz-adv-x="555" 
d="M277 -8q-114 0 -168 78t-54 207q0 127 55 202.5t167 75.5q115 0 169 -74.5t54 -203.5q0 -130 -53.5 -207.5t-169.5 -77.5zM277 35q93 0 134.5 66.5t41.5 175.5q0 235 -176 235q-175 0 -175 -235q0 -109 41 -175.5t134 -66.5zM376 766l-121 -125q-16 -16 -25 -16h-5
q-12 0 -12 8q0 3 3 8l87 125q12 15 22 15h44q11 0 11 -7q0 -4 -4 -8z" />
    <glyph glyph-name="ocircumflex" unicode="&#xf4;" horiz-adv-x="555" 
d="M277 -8q-114 0 -168 78t-54 207q0 127 55 202.5t167 75.5q115 0 169 -74.5t54 -203.5q0 -130 -53.5 -207.5t-169.5 -77.5zM277 35q93 0 134.5 66.5t41.5 175.5q0 235 -176 235q-175 0 -175 -235q0 -109 41 -175.5t134 -66.5zM122 641l111 125q15 15 25 15h41q9 0 24 -15
l109 -125q4 -4 4 -9q0 -7 -9 -7h-14q-11 0 -25 16l-110 113l-109 -113q-16 -16 -26 -16h-15q-10 0 -10 7q0 5 4 9z" />
    <glyph glyph-name="otilde" unicode="&#xf5;" horiz-adv-x="555" 
d="M277 -8q-114 0 -168 78t-54 207q0 127 55 202.5t167 75.5q115 0 169 -74.5t54 -203.5q0 -130 -53.5 -207.5t-169.5 -77.5zM277 35q93 0 134.5 66.5t41.5 175.5q0 235 -176 235q-175 0 -175 -235q0 -109 41 -175.5t134 -66.5zM433 680q-36 -55 -82 -55q-27 0 -80 39
t-68 39q-39 0 -82 -66q-6 -9 -11 -9t-5 10v16q0 12 16 33q37 55 82 55q29 0 81 -39t67 -39q37 0 82 66q6 9 11 9t5 -10v-16q0 -12 -16 -33z" />
    <glyph glyph-name="odieresis" unicode="&#xf6;" horiz-adv-x="555" 
d="M277 -8q-114 0 -168 78t-54 207q0 127 55 202.5t167 75.5q115 0 169 -74.5t54 -203.5q0 -130 -53.5 -207.5t-169.5 -77.5zM277 35q93 0 134.5 66.5t41.5 175.5q0 235 -176 235q-175 0 -175 -235q0 -109 41 -175.5t134 -66.5zM129 641v62q0 16 16 16h23q16 0 16 -16v-62
q0 -16 -16 -16h-23q-16 0 -16 16zM371 641v62q0 16 16 16h23q16 0 16 -16v-62q0 -16 -16 -16h-23q-16 0 -16 16z" />
    <glyph glyph-name="divide" unicode="&#xf7;" 
d="M109 387h407q15 0 15 -16v-8q0 -15 -15 -15h-407q-15 0 -15 15v8q0 16 15 16zM332 512v-8q0 -16 -16 -16h-7q-16 0 -16 16v8q0 15 16 15h7q16 0 16 -15zM332 230v-7q0 -16 -16 -16h-7q-16 0 -16 16v7q0 16 16 16h7q16 0 16 -16z" />
    <glyph glyph-name="oslash" unicode="&#xf8;" horiz-adv-x="555" 
d="M58 16l46 61q-49 71 -49 200q0 127 55 202.5t167 75.5q94 0 150 -53l22 29q13 16 24 16h17q11 0 11 -7q0 -5 -4 -9l-45 -59q48 -71 48 -195q0 -130 -53.5 -207.5t-169.5 -77.5q-93 0 -148 55l-24 -31q-11 -16 -23 -16h-18q-10 0 -10 7q0 5 4 9zM102 277q0 -104 32 -161
l264 349q-44 47 -121 47q-175 0 -175 -235zM277 35q93 0 134.5 66.5t41.5 175.5q0 98 -31 156l-265 -350q45 -48 120 -48z" />
    <glyph glyph-name="ugrave" unicode="&#xf9;" horiz-adv-x="574" 
d="M480 531v-515q0 -16 -15 -16h-16q-15 0 -15 16v105l-39 -39q-25 -24 -40.5 -37.5t-53 -33t-71.5 -19.5q-140 0 -140 164v375q0 16 15 16h16q16 0 16 -16v-375q0 -121 97 -121q27 0 60 19t52 36t49 47l39 39v355q0 16 15 16h16q15 0 15 -16zM312 641l-121 125q-4 4 -4 8
q0 7 11 7h44q10 0 22 -15l87 -125q3 -4 3 -8q0 -8 -12 -8h-5q-9 0 -25 16z" />
    <glyph glyph-name="uacute" unicode="&#xfa;" horiz-adv-x="574" 
d="M480 531v-515q0 -16 -15 -16h-16q-15 0 -15 16v105l-39 -39q-25 -24 -40.5 -37.5t-53 -33t-71.5 -19.5q-140 0 -140 164v375q0 16 15 16h16q16 0 16 -16v-375q0 -121 97 -121q27 0 60 19t52 36t49 47l39 39v355q0 16 15 16h16q15 0 15 -16zM390 766l-121 -125
q-16 -16 -25 -16h-5q-12 0 -12 8q0 3 3 8l87 125q12 15 22 15h44q11 0 11 -7q0 -4 -4 -8z" />
    <glyph glyph-name="ucircumflex" unicode="&#xfb;" horiz-adv-x="574" 
d="M480 531v-515q0 -16 -15 -16h-16q-15 0 -15 16v105l-39 -39q-25 -24 -40.5 -37.5t-53 -33t-71.5 -19.5q-140 0 -140 164v375q0 16 15 16h16q16 0 16 -16v-375q0 -121 97 -121q27 0 60 19t52 36t49 47l39 39v355q0 16 15 16h16q15 0 15 -16zM132 641l111 125q15 15 25 15
h41q9 0 24 -15l109 -125q4 -4 4 -9q0 -7 -9 -7h-14q-11 0 -25 16l-110 113l-109 -113q-16 -16 -26 -16h-15q-10 0 -10 7q0 5 4 9z" />
    <glyph glyph-name="udieresis" unicode="&#xfc;" horiz-adv-x="574" 
d="M480 531v-515q0 -16 -15 -16h-16q-15 0 -15 16v105l-39 -39q-25 -24 -40.5 -37.5t-53 -33t-71.5 -19.5q-140 0 -140 164v375q0 16 15 16h16q16 0 16 -16v-375q0 -121 97 -121q27 0 60 19t52 36t49 47l39 39v355q0 16 15 16h16q15 0 15 -16zM139 641v62q0 16 16 16h23
q16 0 16 -16v-62q0 -16 -16 -16h-23q-16 0 -16 16zM381 641v62q0 16 16 16h23q16 0 16 -16v-62q0 -16 -16 -16h-23q-16 0 -16 16z" />
    <glyph glyph-name="yacute" unicode="&#xfd;" horiz-adv-x="574" 
d="M152 -145h86q108 0 152 54t44 169v15l-12 -8q-29 -20 -76 -37t-92 -17q-80 0 -122 47.5t-42 131.5v321q0 16 15 16h16q16 0 16 -16v-321q0 -69 29.5 -103t95.5 -34q40 0 85.5 17.5t74.5 37.5l12 8v395q0 16 15 16h16q15 0 15 -16v-445q0 -137 -57 -205.5t-185 -68.5h-86
q-15 0 -15 16v12q0 15 15 15zM390 766l-121 -125q-16 -16 -25 -16h-5q-12 0 -12 8q0 3 3 8l87 125q12 15 22 15h44q11 0 11 -7q0 -4 -4 -8z" />
    <glyph glyph-name="thorn" unicode="&#xfe;" horiz-adv-x="551" 
d="M94 -172v906q0 16 15 16h16q16 0 16 -16v-308l35 35q30 30 48 45.5t54 32t74 16.5q67 0 103.5 -47.5t36.5 -120.5v-133q0 -116 -73.5 -185t-191.5 -69h-86v-172q0 -16 -16 -16h-16q-15 0 -15 16zM195 426l-54 -55v-328h89q100 0 157.5 55t57.5 152v137q0 56 -25.5 90.5
t-75.5 34.5q-40 0 -74 -22.5t-75 -63.5z" />
    <glyph glyph-name="ydieresis" unicode="&#xff;" horiz-adv-x="574" 
d="M152 -145h86q108 0 152 54t44 169v15l-12 -8q-29 -20 -76 -37t-92 -17q-80 0 -122 47.5t-42 131.5v321q0 16 15 16h16q16 0 16 -16v-321q0 -69 29.5 -103t95.5 -34q40 0 85.5 17.5t74.5 37.5l12 8v395q0 16 15 16h16q15 0 15 -16v-445q0 -137 -57 -205.5t-185 -68.5h-86
q-15 0 -15 16v12q0 15 15 15zM139 641v62q0 16 16 16h23q16 0 16 -16v-62q0 -16 -16 -16h-23q-16 0 -16 16zM381 641v62q0 16 16 16h23q16 0 16 -16v-62q0 -16 -16 -16h-23q-16 0 -16 16z" />
    <glyph glyph-name="Amacron" unicode="&#x100;" 
d="M590 23q2 -6 2 -10q0 -13 -18 -13h-21q-15 0 -18 16q-23 100 -53 203h-339q-35 -119 -53 -203q-3 -16 -18 -16h-25q-14 0 -14 12q0 5 2 11q18 73 82 297q32 110 84.5 244.5t79.5 185.5h63q27 -51 79.5 -185.5t84.5 -244.5q7 -23 26 -86.5t31 -109t25 -101.5zM172 320
q-3 -10 -8.5 -28.5t-7.5 -25.5h313q-2 7 -7.5 25.5t-8.5 28.5q-52 178 -140 383q-86 -197 -141 -383zM203 867h218q16 0 16 -16v-7q0 -16 -16 -16h-218q-16 0 -16 16v7q0 16 16 16z" />
    <glyph glyph-name="amacron" unicode="&#x101;" horiz-adv-x="551" 
d="M410 16v105l-35 -35q-30 -30 -48 -45.5t-54 -32t-74 -16.5q-68 0 -104 47t-36 121v133q0 116 73.5 185t191.5 69h117q16 0 16 -16v-515q0 -16 -16 -16h-15q-16 0 -16 16zM355 121l55 55v328h-90q-99 0 -157 -55.5t-58 -151.5v-137q0 -56 26 -90.5t76 -34.5q40 0 74 22.5
t74 63.5zM178 664h218q16 0 16 -16v-7q0 -16 -16 -16h-218q-16 0 -16 16v7q0 16 16 16z" />
    <glyph glyph-name="Abreve" unicode="&#x102;" 
d="M590 23q2 -6 2 -10q0 -13 -18 -13h-21q-15 0 -18 16q-23 100 -53 203h-339q-35 -119 -53 -203q-3 -16 -18 -16h-25q-14 0 -14 12q0 5 2 11q18 73 82 297q32 110 84.5 244.5t79.5 185.5h63q27 -51 79.5 -185.5t84.5 -244.5q7 -23 26 -86.5t31 -109t25 -101.5zM172 320
q-3 -10 -8.5 -28.5t-7.5 -25.5h313q-2 7 -7.5 25.5t-8.5 28.5q-52 178 -140 383q-86 -197 -141 -383zM432 957q2 12 12 12h11q10 0 10 -12q0 -51 -42.5 -90t-110.5 -39t-110 38.5t-42 90.5q0 12 10 12h11q9 0 11 -12q5 -40 38 -65t82 -25t83.5 25.5t36.5 64.5z" />
    <glyph glyph-name="abreve" unicode="&#x103;" horiz-adv-x="551" 
d="M410 16v105l-35 -35q-30 -30 -48 -45.5t-54 -32t-74 -16.5q-68 0 -104 47t-36 121v133q0 116 73.5 185t191.5 69h117q16 0 16 -16v-515q0 -16 -16 -16h-15q-16 0 -16 16zM355 121l55 55v328h-90q-99 0 -157 -55.5t-58 -151.5v-137q0 -56 26 -90.5t76 -34.5q40 0 74 22.5
t74 63.5zM407 754q2 12 12 12h11q10 0 10 -12q0 -51 -42.5 -90t-110.5 -39t-110 38.5t-42 90.5q0 12 10 12h11q9 0 11 -12q5 -40 38 -65t82 -25t83.5 25.5t36.5 64.5z" />
    <glyph glyph-name="Aogonek" unicode="&#x104;" 
d="M590 23q2 -6 2 -10q0 -13 -18 -13h-21q-15 0 -18 16q-23 100 -53 203h-339q-35 -119 -53 -203q-3 -16 -18 -16h-25q-14 0 -14 12q0 5 2 11q18 73 82 297q32 110 84.5 244.5t79.5 185.5h63q27 -51 79.5 -185.5t84.5 -244.5q7 -23 26 -86.5t31 -109t25 -101.5zM172 320
q-3 -10 -8.5 -28.5t-7.5 -25.5h313q-2 7 -7.5 25.5t-8.5 28.5q-52 178 -140 383q-86 -197 -141 -383zM678 -188h-90q-42 0 -68 22.5t-26 60.5q0 23 18 46.5t44 35.5h24v-12q-20 -10 -35.5 -28t-15.5 -35q0 -50 55 -50h94q15 0 15 -16v-8q0 -16 -15 -16z" />
    <glyph glyph-name="aogonek" unicode="&#x105;" horiz-adv-x="551" 
d="M410 16v105l-35 -35q-30 -30 -48 -45.5t-54 -32t-74 -16.5q-68 0 -104 47t-36 121v133q0 116 73.5 185t191.5 69h117q16 0 16 -16v-515q0 -16 -16 -16h-15q-16 0 -16 16zM355 121l55 55v328h-90q-99 0 -157 -55.5t-58 -151.5v-137q0 -56 26 -90.5t76 -34.5q40 0 74 22.5
t74 63.5zM543 -188h-90q-42 0 -68 22.5t-26 60.5q0 23 18 46.5t44 35.5h24v-12q-20 -10 -35.5 -28t-15.5 -35q0 -50 55 -50h94q15 0 15 -16v-8q0 -16 -15 -16z" />
    <glyph glyph-name="Cacute" unicode="&#x106;" horiz-adv-x="609" 
d="M508 570v121q-52 20 -133 20q-136 0 -203 -74.5t-67 -214.5v-94q0 -289 254 -289h32q48 0 125 23l7.5 2.5t8 2.5t5.5 1q10 0 10 -12v-16q0 -14 -16 -19q-75 -29 -140 -29h-32q-152 0 -228 88.5t-76 247.5v94q0 157 83.5 246.5t236.5 89.5q51 0 102 -10t78 -25v-153
q0 -15 -16 -15h-16q-15 0 -15 15zM462 969l-121 -125q-16 -16 -25 -16h-5q-12 0 -12 8q0 4 3 8l87 125q12 15 22 15h44q11 0 11 -7q0 -4 -4 -8z" />
    <glyph glyph-name="cacute" unicode="&#x107;" horiz-adv-x="469" 
d="M371 422v70q-45 20 -101 20q-79 0 -122 -44.5t-43 -123.5v-149q0 -76 40.5 -118t116.5 -42q72 0 136 32q8 4 11 4q9 0 9 -11v-13q0 -12 -16 -22q-61 -33 -140 -33q-97 0 -150 53t-53 150v149q0 97 57 154t154 57q95 0 148 -35v-98q0 -16 -16 -16h-15q-16 0 -16 16z
M360 766l-121 -125q-16 -16 -25 -16h-5q-12 0 -12 8q0 3 3 8l87 125q12 15 22 15h44q11 0 11 -7q0 -4 -4 -8z" />
    <glyph glyph-name="Ccircumflex" unicode="&#x108;" horiz-adv-x="609" 
d="M508 570v121q-52 20 -133 20q-136 0 -203 -74.5t-67 -214.5v-94q0 -289 254 -289h32q48 0 125 23l7.5 2.5t8 2.5t5.5 1q10 0 10 -12v-16q0 -14 -16 -19q-75 -29 -140 -29h-32q-152 0 -228 88.5t-76 247.5v94q0 157 83.5 246.5t236.5 89.5q51 0 102 -10t78 -25v-153
q0 -15 -16 -15h-16q-15 0 -15 15zM192 844l111 125q15 15 25 15h41q9 0 24 -15l109 -125q4 -4 4 -9q0 -7 -9 -7h-14q-11 0 -25 16l-110 113l-109 -113q-16 -16 -26 -16h-15q-10 0 -10 7q0 5 4 9z" />
    <glyph glyph-name="ccircumflex" unicode="&#x109;" horiz-adv-x="469" 
d="M371 422v70q-45 20 -101 20q-79 0 -122 -44.5t-43 -123.5v-149q0 -76 40.5 -118t116.5 -42q72 0 136 32q8 4 11 4q9 0 9 -11v-13q0 -12 -16 -22q-61 -33 -140 -33q-97 0 -150 53t-53 150v149q0 97 57 154t154 57q95 0 148 -35v-98q0 -16 -16 -16h-15q-16 0 -16 16z
M103 641l111 125q15 15 25 15h41q9 0 24 -15l109 -125q4 -4 4 -9q0 -7 -9 -7h-14q-11 0 -25 16l-110 113l-109 -113q-16 -16 -26 -16h-15q-10 0 -10 7q0 5 4 9z" />
    <glyph glyph-name="Cdotaccent" unicode="&#x10a;" horiz-adv-x="609" 
d="M508 570v121q-52 20 -133 20q-136 0 -203 -74.5t-67 -214.5v-94q0 -289 254 -289h32q48 0 125 23l7.5 2.5t8 2.5t5.5 1q10 0 10 -12v-16q0 -14 -16 -19q-75 -29 -140 -29h-32q-152 0 -228 88.5t-76 247.5v94q0 157 83.5 246.5t236.5 89.5q51 0 102 -10t78 -25v-153
q0 -15 -16 -15h-16q-15 0 -15 15zM328 844v62q0 16 16 16h23q16 0 16 -16v-62q0 -16 -16 -16h-23q-16 0 -16 16z" />
    <glyph glyph-name="cdotaccent" unicode="&#x10b;" horiz-adv-x="469" 
d="M371 422v70q-45 20 -101 20q-79 0 -122 -44.5t-43 -123.5v-149q0 -76 40.5 -118t116.5 -42q72 0 136 32q8 4 11 4q9 0 9 -11v-13q0 -12 -16 -22q-61 -33 -140 -33q-97 0 -150 53t-53 150v149q0 97 57 154t154 57q95 0 148 -35v-98q0 -16 -16 -16h-15q-16 0 -16 16z
M230 641v62q0 16 16 16h23q16 0 16 -16v-62q0 -16 -16 -16h-23q-16 0 -16 16z" />
    <glyph glyph-name="Ccaron" unicode="&#x10c;" horiz-adv-x="609" 
d="M508 570v121q-52 20 -133 20q-136 0 -203 -74.5t-67 -214.5v-94q0 -289 254 -289h32q48 0 125 23l7.5 2.5t8 2.5t5.5 1q10 0 10 -12v-16q0 -14 -16 -19q-75 -29 -140 -29h-32q-152 0 -228 88.5t-76 247.5v94q0 157 83.5 246.5t236.5 89.5q51 0 102 -10t78 -25v-153
q0 -15 -16 -15h-16q-15 0 -15 15zM510 969l-111 -125q-14 -16 -24 -16h-41q-11 0 -25 16l-109 125q-4 4 -4 8q0 7 10 7h13q9 0 26 -15l109 -114l110 114q15 15 25 15h16q9 0 9 -7q0 -4 -4 -8z" />
    <glyph glyph-name="ccaron" unicode="&#x10d;" horiz-adv-x="469" 
d="M371 422v70q-45 20 -101 20q-79 0 -122 -44.5t-43 -123.5v-149q0 -76 40.5 -118t116.5 -42q72 0 136 32q8 4 11 4q9 0 9 -11v-13q0 -12 -16 -22q-61 -33 -140 -33q-97 0 -150 53t-53 150v149q0 97 57 154t154 57q95 0 148 -35v-98q0 -16 -16 -16h-15q-16 0 -16 16z
M409 766l-111 -125q-14 -16 -24 -16h-41q-11 0 -25 16l-109 125q-4 4 -4 8q0 7 10 7h13q9 0 26 -15l109 -114l110 114q15 15 25 15h16q9 0 9 -7q0 -4 -4 -8z" />
    <glyph glyph-name="Dcaron" unicode="&#x10e;" horiz-adv-x="680" 
d="M94 16v718q0 16 15 16h196q158 0 235 -77t77 -235v-110q0 -153 -75.5 -240.5t-221.5 -87.5h-211q-15 0 -15 16zM145 47h183q238 0 238 281v110q0 133 -61.5 199t-191.5 66h-168v-656zM463 969l-111 -125q-14 -16 -24 -16h-41q-11 0 -25 16l-109 125q-4 4 -4 8q0 7 10 7
h13q9 0 26 -15l109 -114l110 114q15 15 25 15h16q9 0 9 -7q0 -4 -4 -8z" />
    <glyph glyph-name="dcaron" unicode="&#x10f;" horiz-adv-x="551" 
d="M410 16v105l-35 -35q-30 -30 -48 -45.5t-54 -32t-74 -16.5q-68 0 -104 47t-36 121v133q0 116 73.5 185t191.5 69h86v187q0 16 16 16h15q16 0 16 -16v-718q0 -16 -16 -16h-15q-16 0 -16 16zM355 121l55 55v328h-90q-99 0 -157 -55.5t-58 -151.5v-137q0 -56 26 -90.5
t76 -34.5q40 0 74 22.5t74 63.5zM517 609l34 125q5 16 17 16h18q16 0 16 -16v-15q0 -15 -12 -35l-42 -75q-10 -15 -23 -15q-9 0 -9 9q0 3 1 6z" />
    <glyph glyph-name="Dcroat" unicode="&#x110;" horiz-adv-x="680" 
d="M94 16v379h-47q-16 0 -16 15v13q0 15 16 15h47v296q0 16 15 16h196q158 0 235 -77t77 -235v-110q0 -153 -75.5 -240.5t-221.5 -87.5h-211q-15 0 -15 16zM267 395h-122v-348h183q238 0 238 281v110q0 133 -61.5 199t-191.5 66h-168v-265h122q15 0 15 -15v-13
q0 -15 -15 -15z" />
    <glyph glyph-name="dcroat" unicode="&#x111;" horiz-adv-x="551" 
d="M410 16v105l-35 -35q-30 -30 -48 -45.5t-54 -32t-74 -16.5q-68 0 -104 47t-36 121v133q0 116 73.5 185t191.5 69h86v113h-109q-16 0 -16 16v4q0 15 16 15h109v39q0 16 16 16h15q16 0 16 -16v-39h51q15 0 15 -15v-4q0 -16 -15 -16h-51v-644q0 -16 -16 -16h-15
q-16 0 -16 16zM355 121l55 55v328h-90q-99 0 -157 -55.5t-58 -151.5v-137q0 -56 26 -90.5t76 -34.5q40 0 74 22.5t74 63.5z" />
    <glyph glyph-name="Emacron" unicode="&#x112;" horiz-adv-x="555" 
d="M445 375h-300v-207q0 -121 121 -121h211q15 0 15 -16v-15q0 -16 -15 -16h-207q-176 0 -176 172v562q0 16 15 16h368q15 0 15 -16v-15q0 -16 -15 -16h-332v-281h300q16 0 16 -16v-15q0 -16 -16 -16zM184 867h218q16 0 16 -16v-7q0 -16 -16 -16h-218q-16 0 -16 16v7
q0 16 16 16z" />
    <glyph glyph-name="emacron" unicode="&#x113;" horiz-adv-x="500" 
d="M402 70q4 2 7 2q9 0 9 -12v-13q0 -14 -16 -22q-62 -33 -140 -33q-97 0 -150 53t-53 150v149q0 96 58.5 153.5t152.5 57.5q79 0 129 -39.5t50 -113.5q0 -70 -46 -107t-122 -37h-176v-63q0 -76 40.5 -118t116.5 -42q67 0 140 35zM105 344v-43h180q117 0 117 101
q0 54 -36.5 82t-95.5 28q-79 0 -122 -44.5t-43 -123.5zM145 664h218q16 0 16 -16v-7q0 -16 -16 -16h-218q-16 0 -16 16v7q0 16 16 16z" />
    <glyph glyph-name="Ebreve" unicode="&#x114;" horiz-adv-x="555" 
d="M445 375h-300v-207q0 -121 121 -121h211q15 0 15 -16v-15q0 -16 -15 -16h-207q-176 0 -176 172v562q0 16 15 16h368q15 0 15 -16v-15q0 -16 -15 -16h-332v-281h300q16 0 16 -16v-15q0 -16 -16 -16zM409 957q2 12 12 12h11q10 0 10 -12q0 -51 -42.5 -90t-110.5 -39
t-110 38.5t-42 90.5q0 12 10 12h11q9 0 11 -12q5 -40 38 -65t82 -25t83.5 25.5t36.5 64.5z" />
    <glyph glyph-name="ebreve" unicode="&#x115;" horiz-adv-x="500" 
d="M402 70q4 2 7 2q9 0 9 -12v-13q0 -14 -16 -22q-62 -33 -140 -33q-97 0 -150 53t-53 150v149q0 96 58.5 153.5t152.5 57.5q79 0 129 -39.5t50 -113.5q0 -70 -46 -107t-122 -37h-176v-63q0 -76 40.5 -118t116.5 -42q67 0 140 35zM105 344v-43h180q117 0 117 101
q0 54 -36.5 82t-95.5 28q-79 0 -122 -44.5t-43 -123.5zM374 754q2 12 12 12h11q10 0 10 -12q0 -51 -42.5 -90t-110.5 -39t-110 38.5t-42 90.5q0 12 10 12h11q9 0 11 -12q5 -40 38 -65t82 -25t83.5 25.5t36.5 64.5z" />
    <glyph glyph-name="Edotaccent" unicode="&#x116;" horiz-adv-x="555" 
d="M445 375h-300v-207q0 -121 121 -121h211q15 0 15 -16v-15q0 -16 -15 -16h-207q-176 0 -176 172v562q0 16 15 16h368q15 0 15 -16v-15q0 -16 -15 -16h-332v-281h300q16 0 16 -16v-15q0 -16 -16 -16zM262 844v62q0 16 16 16h23q16 0 16 -16v-62q0 -16 -16 -16h-23
q-16 0 -16 16z" />
    <glyph glyph-name="edotaccent" unicode="&#x117;" horiz-adv-x="500" 
d="M402 70q4 2 7 2q9 0 9 -12v-13q0 -14 -16 -22q-62 -33 -140 -33q-97 0 -150 53t-53 150v149q0 96 58.5 153.5t152.5 57.5q79 0 129 -39.5t50 -113.5q0 -70 -46 -107t-122 -37h-176v-63q0 -76 40.5 -118t116.5 -42q67 0 140 35zM105 344v-43h180q117 0 117 101
q0 54 -36.5 82t-95.5 28q-79 0 -122 -44.5t-43 -123.5zM223 641v62q0 16 16 16h23q16 0 16 -16v-62q0 -16 -16 -16h-23q-16 0 -16 16z" />
    <glyph glyph-name="Eogonek" unicode="&#x118;" horiz-adv-x="555" 
d="M445 375h-300v-207q0 -121 121 -121h211q15 0 15 -16v-15q0 -16 -15 -16h-207q-176 0 -176 172v562q0 16 15 16h368q15 0 15 -16v-15q0 -16 -15 -16h-332v-281h300q16 0 16 -16v-15q0 -16 -16 -16zM524 -188h-90q-42 0 -68 22.5t-26 60.5q0 23 18 46.5t44 35.5h24v-12
q-20 -10 -35.5 -28t-15.5 -35q0 -50 55 -50h94q15 0 15 -16v-8q0 -16 -15 -16z" />
    <glyph glyph-name="eogonek" unicode="&#x119;" horiz-adv-x="500" 
d="M402 70q4 2 7 2q9 0 9 -12v-13q0 -14 -16 -22q-62 -33 -140 -33q-97 0 -150 53t-53 150v149q0 96 58.5 153.5t152.5 57.5q79 0 129 -39.5t50 -113.5q0 -70 -46 -107t-122 -37h-176v-63q0 -76 40.5 -118t116.5 -42q67 0 140 35zM105 344v-43h180q117 0 117 101
q0 54 -36.5 82t-95.5 28q-79 0 -122 -44.5t-43 -123.5zM371 -188h-90q-42 0 -68 22.5t-26 60.5q0 23 18 46.5t44 35.5h24v-12q-20 -10 -35.5 -28t-15.5 -35q0 -50 55 -50h94q15 0 15 -16v-8q0 -16 -15 -16z" />
    <glyph glyph-name="Ecaron" unicode="&#x11a;" horiz-adv-x="555" 
d="M445 375h-300v-207q0 -121 121 -121h211q15 0 15 -16v-15q0 -16 -15 -16h-207q-176 0 -176 172v562q0 16 15 16h368q15 0 15 -16v-15q0 -16 -15 -16h-332v-281h300q16 0 16 -16v-15q0 -16 -16 -16zM444 969l-111 -125q-14 -16 -24 -16h-41q-11 0 -25 16l-109 125
q-4 4 -4 8q0 7 10 7h13q9 0 26 -15l109 -114l110 114q15 15 25 15h16q9 0 9 -7q0 -4 -4 -8z" />
    <glyph glyph-name="ecaron" unicode="&#x11b;" horiz-adv-x="500" 
d="M402 70q4 2 7 2q9 0 9 -12v-13q0 -14 -16 -22q-62 -33 -140 -33q-97 0 -150 53t-53 150v149q0 96 58.5 153.5t152.5 57.5q79 0 129 -39.5t50 -113.5q0 -70 -46 -107t-122 -37h-176v-63q0 -76 40.5 -118t116.5 -42q67 0 140 35zM105 344v-43h180q117 0 117 101
q0 54 -36.5 82t-95.5 28q-79 0 -122 -44.5t-43 -123.5zM409 766l-111 -125q-14 -16 -24 -16h-41q-11 0 -25 16l-109 125q-4 4 -4 8q0 7 10 7h13q9 0 26 -15l109 -114l110 114q15 15 25 15h16q9 0 9 -7q0 -4 -4 -8z" />
    <glyph glyph-name="Gcircumflex" unicode="&#x11c;" horiz-adv-x="660" 
d="M582 379v-340q-30 -14 -82.5 -26.5t-93.5 -12.5h-31q-154 0 -237 86t-83 242v94q0 153 88.5 244.5t239.5 91.5q97 0 184 -29q15 -5 15 -20v-16q0 -12 -10 -12q-2 0 -17 5q-86 25 -172 25q-131 0 -204.5 -76.5t-73.5 -212.5v-94q0 -133 69.5 -207t200.5 -74h31
q69 0 125 23v278h-156q-16 0 -16 15v16q0 16 16 16h191q16 0 16 -16zM202 844l111 125q15 15 25 15h41q9 0 24 -15l109 -125q4 -4 4 -9q0 -7 -9 -7h-14q-11 0 -25 16l-110 113l-109 -113q-16 -16 -26 -16h-15q-10 0 -10 7q0 5 4 9z" />
    <glyph glyph-name="gcircumflex" unicode="&#x11d;" horiz-adv-x="551" 
d="M457 531v-449q0 -131 -65 -200.5t-193 -69.5h-94q-15 0 -15 16v12q0 15 15 15h98q104 0 155.5 57.5t51.5 165.5v16l-19 -12q-86 -51 -161 -51q-83 0 -127 50.5t-44 137.5v74q0 119 75 186.5t190 67.5h117q16 0 16 -16zM391 125l19 12v367h-90q-98 0 -156.5 -54.5
t-58.5 -152.5v-78q0 -145 129 -145q72 0 157 51zM128 641l111 125q15 15 25 15h41q9 0 24 -15l109 -125q4 -4 4 -9q0 -7 -9 -7h-14q-11 0 -25 16l-110 113l-109 -113q-16 -16 -26 -16h-15q-10 0 -10 7q0 5 4 9z" />
    <glyph glyph-name="Gbreve" unicode="&#x11e;" horiz-adv-x="660" 
d="M582 379v-340q-30 -14 -82.5 -26.5t-93.5 -12.5h-31q-154 0 -237 86t-83 242v94q0 153 88.5 244.5t239.5 91.5q97 0 184 -29q15 -5 15 -20v-16q0 -12 -10 -12q-2 0 -17 5q-86 25 -172 25q-131 0 -204.5 -76.5t-73.5 -212.5v-94q0 -133 69.5 -207t200.5 -74h31
q69 0 125 23v278h-156q-16 0 -16 15v16q0 16 16 16h191q16 0 16 -16zM477 957q2 12 12 12h11q10 0 10 -12q0 -51 -42.5 -90t-110.5 -39t-110 38.5t-42 90.5q0 12 10 12h11q9 0 11 -12q5 -40 38 -65t82 -25t83.5 25.5t36.5 64.5z" />
    <glyph glyph-name="gbreve" unicode="&#x11f;" horiz-adv-x="551" 
d="M457 531v-449q0 -131 -65 -200.5t-193 -69.5h-94q-15 0 -15 16v12q0 15 15 15h98q104 0 155.5 57.5t51.5 165.5v16l-19 -12q-86 -51 -161 -51q-83 0 -127 50.5t-44 137.5v74q0 119 75 186.5t190 67.5h117q16 0 16 -16zM391 125l19 12v367h-90q-98 0 -156.5 -54.5
t-58.5 -152.5v-78q0 -145 129 -145q72 0 157 51zM403 754q2 12 12 12h11q10 0 10 -12q0 -51 -42.5 -90t-110.5 -39t-110 38.5t-42 90.5q0 12 10 12h11q9 0 11 -12q5 -40 38 -65t82 -25t83.5 25.5t36.5 64.5z" />
    <glyph glyph-name="Gdotaccent" unicode="&#x120;" horiz-adv-x="660" 
d="M582 379v-340q-30 -14 -82.5 -26.5t-93.5 -12.5h-31q-154 0 -237 86t-83 242v94q0 153 88.5 244.5t239.5 91.5q97 0 184 -29q15 -5 15 -20v-16q0 -12 -10 -12q-2 0 -17 5q-86 25 -172 25q-131 0 -204.5 -76.5t-73.5 -212.5v-94q0 -133 69.5 -207t200.5 -74h31
q69 0 125 23v278h-156q-16 0 -16 15v16q0 16 16 16h191q16 0 16 -16zM330 844v62q0 16 16 16h23q16 0 16 -16v-62q0 -16 -16 -16h-23q-16 0 -16 16z" />
    <glyph glyph-name="gdotaccent" unicode="&#x121;" horiz-adv-x="551" 
d="M457 531v-449q0 -131 -65 -200.5t-193 -69.5h-94q-15 0 -15 16v12q0 15 15 15h98q104 0 155.5 57.5t51.5 165.5v16l-19 -12q-86 -51 -161 -51q-83 0 -127 50.5t-44 137.5v74q0 119 75 186.5t190 67.5h117q16 0 16 -16zM391 125l19 12v367h-90q-98 0 -156.5 -54.5
t-58.5 -152.5v-78q0 -145 129 -145q72 0 157 51zM264 641v62q0 16 16 16h23q16 0 16 -16v-62q0 -16 -16 -16h-23q-16 0 -16 16z" />
    <glyph glyph-name="Gcommaaccent" unicode="&#x122;" horiz-adv-x="660" 
d="M582 379v-340q-30 -14 -82.5 -26.5t-93.5 -12.5h-31q-154 0 -237 86t-83 242v94q0 153 88.5 244.5t239.5 91.5q97 0 184 -29q15 -5 15 -20v-16q0 -12 -10 -12q-2 0 -17 5q-86 25 -172 25q-131 0 -204.5 -76.5t-73.5 -212.5v-94q0 -133 69.5 -207t200.5 -74h31
q69 0 125 23v278h-156q-16 0 -16 15v16q0 16 16 16h191q16 0 16 -16zM300 -180l34 125q5 16 18 16h17q16 0 16 -16v-15q0 -15 -12 -35l-42 -75q-10 -15 -22 -15q-10 0 -10 8q0 4 1 7z" />
    <glyph glyph-name="gcommaaccent" unicode="&#x123;" horiz-adv-x="551" 
d="M457 531v-449q0 -131 -65 -200.5t-193 -69.5h-94q-15 0 -15 16v12q0 15 15 15h98q104 0 155.5 57.5t51.5 165.5v16l-19 -12q-86 -51 -161 -51q-83 0 -127 50.5t-44 137.5v74q0 119 75 186.5t190 67.5h117q16 0 16 -16zM391 125l19 12v367h-90q-98 0 -156.5 -54.5
t-58.5 -152.5v-78q0 -145 129 -145q72 0 157 51zM349 734l-34 -125q-5 -15 -18 -15h-17q-16 0 -16 15v16q0 13 12 35l42 74q10 16 22 16q10 0 10 -9q0 -4 -1 -7z" />
    <glyph glyph-name="Hcircumflex" unicode="&#x124;" horiz-adv-x="687" 
d="M543 16v359h-398v-359q0 -16 -16 -16h-20q-15 0 -15 16v718q0 16 15 16h20q16 0 16 -16v-312h398v312q0 16 16 16h19q16 0 16 -16v-718q0 -16 -16 -16h-19q-16 0 -16 16zM189 844l111 125q15 15 25 15h41q9 0 24 -15l109 -125q4 -4 4 -9q0 -7 -9 -7h-14q-11 0 -25 16
l-110 113l-109 -113q-16 -16 -26 -16h-15q-10 0 -10 7q0 5 4 9z" />
    <glyph glyph-name="hcircumflex" unicode="&#x125;" horiz-adv-x="578" 
d="M94 16v718q0 16 15 16h16q16 0 16 -16v-308l39 39q90 90 164 90q140 0 140 -164v-375q0 -16 -15 -16h-16q-16 0 -16 16v375q0 121 -97 121q-27 0 -60 -19t-51 -35.5t-49 -47.5l-39 -39v-355q0 -16 -16 -16h-16q-15 0 -15 16zM-34 860l111 125q15 15 25 15h41q9 0 24 -15
l109 -125q4 -4 4 -9q0 -7 -9 -7h-14q-11 0 -25 16l-110 113l-109 -113q-16 -16 -26 -16h-15q-10 0 -10 7q0 5 4 9z" />
    <glyph glyph-name="Hbar" unicode="&#x126;" horiz-adv-x="687" 
d="M543 16v359h-398v-359q0 -16 -16 -16h-20q-15 0 -15 16v578h-47q-16 0 -16 15v16q0 16 16 16h47v93q0 16 15 16h20q16 0 16 -16v-93h398v93q0 16 16 16h19q16 0 16 -16v-93h47q15 0 15 -16v-16q0 -15 -15 -15h-47v-578q0 -16 -16 -16h-19q-16 0 -16 16zM145 594v-172h398
v172h-398z" />
    <glyph glyph-name="hbar" unicode="&#x127;" horiz-adv-x="578" 
d="M250 660h-109v-234l39 39q90 90 164 90q140 0 140 -164v-375q0 -16 -15 -16h-16q-16 0 -16 16v375q0 121 -97 121q-27 0 -60 -19t-51 -35.5t-49 -47.5l-39 -39v-355q0 -16 -16 -16h-16q-15 0 -15 16v644h-51q-16 0 -16 16v4q0 15 16 15h51v39q0 16 15 16h16q16 0 16 -16
v-39h109q16 0 16 -15v-4q0 -16 -16 -16z" />
    <glyph glyph-name="Itilde" unicode="&#x128;" horiz-adv-x="238" 
d="M94 16v718q0 16 15 16h20q16 0 16 -16v-718q0 -16 -16 -16h-20q-15 0 -15 16zM275 883q-36 -55 -82 -55q-27 0 -80 39t-68 39q-39 0 -82 -66q-6 -9 -11 -9t-5 10v16q0 12 16 33q37 55 82 55q29 0 81 -39t67 -39q37 0 82 66q6 9 11 9t5 -10v-16q0 -12 -16 -33z" />
    <glyph glyph-name="itilde" unicode="&#x129;" horiz-adv-x="258" 
d="M117 504h-86q-15 0 -15 16v11q0 16 15 16h117q16 0 16 -16v-515q0 -16 -16 -16h-15q-16 0 -16 16v488zM277 680q-36 -55 -82 -55q-27 0 -80 39t-68 39q-39 0 -82 -66q-6 -9 -11 -9t-5 10v16q0 12 16 33q37 55 82 55q29 0 81 -39t67 -39q37 0 82 66q6 9 11 9t5 -10v-16
q0 -12 -16 -33z" />
    <glyph glyph-name="Imacron" unicode="&#x12a;" horiz-adv-x="238" 
d="M94 16v718q0 16 15 16h20q16 0 16 -16v-718q0 -16 -16 -16h-20q-15 0 -15 16zM10 867h218q16 0 16 -16v-7q0 -16 -16 -16h-218q-16 0 -16 16v7q0 16 16 16z" />
    <glyph glyph-name="imacron" unicode="&#x12b;" horiz-adv-x="258" 
d="M117 504h-86q-15 0 -15 16v11q0 16 15 16h117q16 0 16 -16v-515q0 -16 -16 -16h-15q-16 0 -16 16v488zM-7 664h218q16 0 16 -16v-7q0 -16 -16 -16h-218q-16 0 -16 16v7q0 16 16 16z" />
    <glyph glyph-name="Ibreve" unicode="&#x12c;" horiz-adv-x="238" 
d="M94 16v718q0 16 15 16h20q16 0 16 -16v-718q0 -16 -16 -16h-20q-15 0 -15 16zM239 957q2 12 12 12h11q10 0 10 -12q0 -51 -42.5 -90t-110.5 -39t-110 38.5t-42 90.5q0 12 10 12h11q9 0 11 -12q5 -40 38 -65t82 -25t83.5 25.5t36.5 64.5z" />
    <glyph glyph-name="ibreve" unicode="&#x12d;" horiz-adv-x="258" 
d="M117 504h-86q-15 0 -15 16v11q0 16 15 16h117q16 0 16 -16v-515q0 -16 -16 -16h-15q-16 0 -16 16v488zM233 754q2 12 12 12h11q10 0 10 -12q0 -51 -42.5 -90t-110.5 -39t-110 38.5t-42 90.5q0 12 10 12h11q9 0 11 -12q5 -40 38 -65t82 -25t83.5 25.5t36.5 64.5z" />
    <glyph glyph-name="Iogonek" unicode="&#x12e;" horiz-adv-x="238" 
d="M94 16v718q0 16 15 16h20q16 0 16 -16v-718q0 -16 -16 -16h-20q-15 0 -15 16zM231 -188h-90q-42 0 -68 22.5t-26 60.5q0 23 18 46.5t44 35.5h24v-12q-20 -10 -35.5 -28t-15.5 -35q0 -50 55 -50h94q15 0 15 -16v-8q0 -16 -15 -16z" />
    <glyph glyph-name="iogonek" unicode="&#x12f;" horiz-adv-x="258" 
d="M117 687v47q0 16 16 16h15q16 0 16 -16v-47q0 -15 -16 -15h-15q-16 0 -16 15zM117 504h-86q-15 0 -15 16v11q0 16 15 16h117q16 0 16 -16v-515q0 -16 -16 -16h-15q-16 0 -16 16v488zM248 -188h-90q-42 0 -68 22.5t-26 60.5q0 23 18 46.5t44 35.5h24v-12
q-20 -10 -35.5 -28t-15.5 -35q0 -50 55 -50h94q15 0 15 -16v-8q0 -16 -15 -16z" />
    <glyph glyph-name="Idotaccent" unicode="&#x130;" horiz-adv-x="238" 
d="M94 16v718q0 16 15 16h20q16 0 16 -16v-718q0 -16 -16 -16h-20q-15 0 -15 16zM92 844v62q0 16 16 16h23q16 0 16 -16v-62q0 -16 -16 -16h-23q-16 0 -16 16z" />
    <glyph glyph-name="dotlessi" unicode="&#x131;" horiz-adv-x="258" 
d="M117 504h-86q-15 0 -15 16v11q0 16 15 16h117q16 0 16 -16v-515q0 -16 -16 -16h-15q-16 0 -16 16v488z" />
    <glyph glyph-name="IJ" unicode="&#x132;" horiz-adv-x="633" 
d="M94 16v718q0 16 15 16h20q16 0 16 -16v-718q0 -16 -16 -16h-20q-15 0 -15 16zM539 734v-515q0 -100 -48.5 -159.5t-142.5 -59.5h-78q-16 0 -16 16v15q0 16 16 16h82q70 0 103 45t33 123v488h-187q-16 0 -16 16v15q0 16 16 16h222q16 0 16 -16z" />
    <glyph glyph-name="ij" unicode="&#x133;" horiz-adv-x="508" 
d="M367 687v47q0 16 16 16h15q16 0 16 -16v-47q0 -15 -16 -15h-15q-16 0 -16 15zM211 -188h-8q-16 0 -16 16v12q0 15 16 15h8q84 0 120 49.5t36 142.5v457h-86q-15 0 -15 16v11q0 16 15 16h117q16 0 16 -16v-468q0 -122 -47 -186.5t-156 -64.5zM117 687v47q0 16 16 16h15
q16 0 16 -16v-47q0 -15 -16 -15h-15q-16 0 -16 15zM117 504h-86q-15 0 -15 16v11q0 16 15 16h117q16 0 16 -16v-515q0 -16 -16 -16h-15q-16 0 -16 16v488z" />
    <glyph glyph-name="Jcircumflex" unicode="&#x134;" horiz-adv-x="426" 
d="M332 734v-515q0 -100 -48.5 -159.5t-142.5 -59.5h-79q-15 0 -15 16v15q0 16 15 16h83q70 0 103 45t33 123v488h-187q-16 0 -16 16v15q0 16 16 16h222q16 0 16 -16zM50 844l111 125q15 15 25 15h41q9 0 24 -15l109 -125q4 -4 4 -9q0 -7 -9 -7h-14q-11 0 -25 16l-110 113
l-109 -113q-16 -16 -26 -16h-15q-10 0 -10 7q0 5 4 9z" />
    <glyph glyph-name="jcircumflex" unicode="&#x135;" horiz-adv-x="266" 
d="M-31 -188h-8q-16 0 -16 16v12q0 15 16 15h8q84 0 120 49.5t36 142.5v457h-86q-16 0 -16 16v11q0 16 16 16h117q16 0 16 -16v-468q0 -122 -47 -186.5t-156 -64.5zM-38 641l111 125q15 15 25 15h41q9 0 24 -15l109 -125q4 -4 4 -9q0 -7 -9 -7h-14q-11 0 -25 16l-110 113
l-109 -113q-16 -16 -26 -16h-15q-10 0 -10 7q0 5 4 9z" />
    <glyph glyph-name="Kcommaaccent" unicode="&#x136;" horiz-adv-x="563" 
d="M476 16l-288 351h-43v-351q0 -16 -16 -16h-20q-15 0 -15 16v718q0 16 15 16h20q16 0 16 -16v-320h46l284 320q13 16 24 16h26q11 0 11 -7q0 -5 -7 -12l-299 -336l307 -375q7 -9 7 -13q0 -7 -11 -7h-34q-12 0 -23 16zM224 -180l34 125q5 16 18 16h17q16 0 16 -16v-15
q0 -15 -12 -35l-42 -75q-10 -15 -22 -15q-10 0 -10 8q0 4 1 7z" />
    <glyph glyph-name="kcommaaccent" unicode="&#x137;" horiz-adv-x="473" 
d="M388 16l-189 261h-58v-261q0 -16 -16 -16h-16q-15 0 -15 16v718q0 16 15 16h16q16 0 16 -16v-414h62l175 211q13 16 23 16h24q11 0 11 -7q0 -5 -4 -9l-194 -230l205 -285q4 -5 4 -9q0 -7 -11 -7h-26q-11 0 -22 16zM183 -180l34 125q5 16 18 16h17q16 0 16 -16v-15
q0 -15 -12 -35l-42 -75q-10 -15 -22 -15q-10 0 -10 8q0 4 1 7z" />
    <glyph glyph-name="Lacute" unicode="&#x139;" horiz-adv-x="492" 
d="M461 0h-191q-176 0 -176 172v562q0 16 15 16h20q16 0 16 -16v-566q0 -121 121 -121h195q16 0 16 -16v-15q0 -16 -16 -16zM278 969l-121 -125q-16 -16 -25 -16h-5q-12 0 -12 8q0 4 3 8l87 125q12 15 22 15h44q11 0 11 -7q0 -4 -4 -8z" />
    <glyph glyph-name="lacute" unicode="&#x13a;" horiz-adv-x="242" 
d="M102 707h-86q-16 0 -16 16v11q0 16 16 16h117q15 0 15 -16v-718q0 -16 -15 -16h-16q-15 0 -15 16v691zM239 977l-121 -125q-16 -16 -25 -16h-5q-12 0 -12 8q0 4 3 8l87 125q12 15 22 15h44q11 0 11 -7q0 -4 -4 -8z" />
    <glyph glyph-name="Lcommaaccent" unicode="&#x13b;" horiz-adv-x="492" 
d="M461 0h-191q-176 0 -176 172v562q0 16 15 16h20q16 0 16 -16v-566q0 -121 121 -121h195q16 0 16 -16v-15q0 -16 -16 -16zM228 -180l34 125q5 16 18 16h17q16 0 16 -16v-15q0 -15 -12 -35l-42 -75q-10 -15 -22 -15q-10 0 -10 8q0 4 1 7z" />
    <glyph glyph-name="lcommaaccent" unicode="&#x13c;" horiz-adv-x="242" 
d="M102 707h-86q-16 0 -16 16v11q0 16 16 16h117q15 0 15 -16v-718q0 -16 -15 -16h-16q-15 0 -15 16v691zM60 -180l34 125q5 16 18 16h17q16 0 16 -16v-15q0 -15 -12 -35l-42 -75q-10 -15 -22 -15q-10 0 -10 8q0 4 1 7z" />
    <glyph glyph-name="Lcaron" unicode="&#x13d;" horiz-adv-x="492" 
d="M282 609l34 125q5 16 18 16h18q15 0 15 -16v-15q0 -15 -12 -35l-42 -75q-8 -15 -22 -15q-10 0 -10 9q0 3 1 6zM461 0h-191q-176 0 -176 172v562q0 16 15 16h20q16 0 16 -16v-566q0 -121 121 -121h195q16 0 16 -16v-15q0 -16 -16 -16z" />
    <glyph glyph-name="lcaron" unicode="&#x13e;" horiz-adv-x="242" 
d="M208 609l34 125q5 16 18 16h17q16 0 16 -16v-15q0 -15 -12 -35l-42 -75q-10 -15 -22 -15q-10 0 -10 9q0 3 1 6zM102 707h-86q-16 0 -16 16v11q0 16 16 16h117q15 0 15 -16v-718q0 -16 -15 -16h-16q-15 0 -15 16v691z" />
    <glyph glyph-name="Ldot" unicode="&#x13f;" horiz-adv-x="492" 
d="M285 391v62q0 16 16 16h23q16 0 16 -16v-62q0 -16 -16 -16h-23q-16 0 -16 16zM461 0h-191q-176 0 -176 172v562q0 16 15 16h20q16 0 16 -16v-566q0 -121 121 -121h195q16 0 16 -16v-15q0 -16 -16 -16z" />
    <glyph glyph-name="ldot" unicode="&#x140;" horiz-adv-x="242" 
d="M211 391v62q0 16 16 16h23q16 0 16 -16v-62q0 -16 -16 -16h-23q-16 0 -16 16zM102 707h-86q-16 0 -16 16v11q0 16 16 16h117q15 0 15 -16v-718q0 -16 -15 -16h-16q-15 0 -15 16v691z" />
    <glyph glyph-name="Lslash" unicode="&#x141;" horiz-adv-x="516" 
d="M35 362l59 33v339q0 16 15 16h20q16 0 16 -16v-311l207 114q2 2 6 2q9 0 9 -12v-16q0 -12 -15 -22l-207 -114v-207q0 -121 121 -121h195q16 0 16 -16v-15q0 -16 -16 -16h-191q-176 0 -176 172v175l-59 -33q-3 -2 -7 -2q-8 0 -8 12v17q0 12 15 21z" />
    <glyph glyph-name="lslash" unicode="&#x142;" horiz-adv-x="242" 
d="M211 487l-63 -55v-416q0 -16 -15 -16h-16q-15 0 -15 16v375l-71 -63q-4 -4 -9 -4q-6 0 -6 11v22q0 11 15 25l71 62v263h-86q-16 0 -16 16v11q0 16 16 16h117q15 0 15 -16v-249l63 56q4 4 9 4q7 0 7 -11v-22q0 -11 -16 -25z" />
    <glyph glyph-name="Nacute" unicode="&#x143;" horiz-adv-x="687" 
d="M547 12l-402 629v-625q0 -16 -16 -16h-20q-15 0 -15 16v718q0 16 15 16h12q11 0 20 -12l402 -629v625q0 16 16 16h19q16 0 16 -16v-718q0 -16 -16 -16h-12q-10 0 -19 12zM446 969l-121 -125q-16 -16 -25 -16h-5q-12 0 -12 8q0 4 3 8l87 125q12 15 22 15h44q11 0 11 -7
q0 -4 -4 -8z" />
    <glyph glyph-name="nacute" unicode="&#x144;" horiz-adv-x="578" 
d="M94 16v515q0 16 15 16h16q16 0 16 -16v-105l39 39q90 90 164 90q140 0 140 -164v-375q0 -16 -15 -16h-16q-16 0 -16 16v375q0 121 -97 121q-27 0 -60 -19t-51 -35.5t-49 -47.5l-39 -39v-355q0 -16 -16 -16h-16q-15 0 -15 16zM392 766l-121 -125q-16 -16 -25 -16h-5
q-12 0 -12 8q0 3 3 8l87 125q12 15 22 15h44q11 0 11 -7q0 -4 -4 -8z" />
    <glyph glyph-name="Ncommaaccent" unicode="&#x145;" horiz-adv-x="687" 
d="M547 12l-402 629v-625q0 -16 -16 -16h-20q-15 0 -15 16v718q0 16 15 16h12q11 0 20 -12l402 -629v625q0 16 16 16h19q16 0 16 -16v-718q0 -16 -16 -16h-12q-10 0 -19 12zM267 -180l34 125q5 16 18 16h17q16 0 16 -16v-15q0 -15 -12 -35l-42 -75q-10 -15 -22 -15
q-10 0 -10 8q0 4 1 7z" />
    <glyph glyph-name="ncommaaccent" unicode="&#x146;" horiz-adv-x="578" 
d="M94 16v515q0 16 15 16h16q16 0 16 -16v-105l39 39q90 90 164 90q140 0 140 -164v-375q0 -16 -15 -16h-16q-16 0 -16 16v375q0 121 -97 121q-27 0 -60 -19t-51 -35.5t-49 -47.5l-39 -39v-355q0 -16 -16 -16h-16q-15 0 -15 16zM224 -180l34 125q5 16 18 16h17q16 0 16 -16
v-15q0 -15 -12 -35l-42 -75q-10 -15 -22 -15q-10 0 -10 8q0 4 1 7z" />
    <glyph glyph-name="Ncaron" unicode="&#x147;" horiz-adv-x="687" 
d="M547 12l-402 629v-625q0 -16 -16 -16h-20q-15 0 -15 16v718q0 16 15 16h12q11 0 20 -12l402 -629v625q0 16 16 16h19q16 0 16 -16v-718q0 -16 -16 -16h-12q-10 0 -19 12zM499 969l-111 -125q-14 -16 -24 -16h-41q-11 0 -25 16l-109 125q-4 4 -4 8q0 7 10 7h13q9 0 26 -15
l109 -114l110 114q15 15 25 15h16q9 0 9 -7q0 -4 -4 -8z" />
    <glyph glyph-name="ncaron" unicode="&#x148;" horiz-adv-x="578" 
d="M94 16v515q0 16 15 16h16q16 0 16 -16v-105l39 39q90 90 164 90q140 0 140 -164v-375q0 -16 -15 -16h-16q-16 0 -16 16v375q0 121 -97 121q-27 0 -60 -19t-51 -35.5t-49 -47.5l-39 -39v-355q0 -16 -16 -16h-16q-15 0 -15 16zM444 766l-111 -125q-14 -16 -24 -16h-41
q-11 0 -25 16l-109 125q-4 4 -4 8q0 7 10 7h13q9 0 26 -15l109 -114l110 114q15 15 25 15h16q9 0 9 -7q0 -4 -4 -8z" />
    <glyph glyph-name="napostrophe" unicode="&#x149;" horiz-adv-x="578" 
d="M94 16v515q0 16 15 16h16q16 0 16 -16v-105l39 39q90 90 164 90q140 0 140 -164v-375q0 -16 -15 -16h-16q-16 0 -16 16v375q0 121 -97 121q-27 0 -60 -19t-51 -35.5t-49 -47.5l-39 -39v-355q0 -16 -16 -16h-16q-15 0 -15 16zM63 609l34 125q5 16 18 16h17q16 0 16 -16
v-15q0 -15 -12 -35l-42 -75q-10 -15 -22 -15q-10 0 -10 9q0 3 1 6z" />
    <glyph glyph-name="Eng" unicode="&#x14a;" horiz-adv-x="687" 
d="M594 734v-734q0 -100 -49 -159.5t-143 -59.5h-78q-15 0 -15 16v15q0 16 15 16h82q70 0 103.5 45t33.5 123v22l-398 623v-625q0 -16 -16 -16h-20q-15 0 -15 16v718q0 16 15 16h12q11 0 20 -12l402 -629v625q0 16 16 16h19q16 0 16 -16z" />
    <glyph glyph-name="eng" unicode="&#x14b;" horiz-adv-x="578" 
d="M437 391q0 121 -97 121q-27 0 -60 -19t-51 -35.5t-49 -47.5l-39 -39v-355q0 -16 -16 -16h-16q-15 0 -15 16v515q0 16 15 16h16q16 0 16 -16v-105l39 39q90 90 164 90q140 0 140 -164v-328q0 -122 -47 -186.5t-156 -64.5h-8q-15 0 -15 16v12q0 15 15 15h8q84 0 120 49.5
t36 142.5v344z" />
    <glyph glyph-name="Omacron" unicode="&#x14c;" horiz-adv-x="688" 
d="M344 -8q-100 0 -166.5 49.5t-94.5 129.5t-28 188v32q0 108 28 188t94.5 129.5t166.5 49.5t166.5 -49.5t94.5 -129.5t28 -188v-32q0 -108 -28 -188t-94.5 -129.5t-166.5 -49.5zM344 39q238 0 238 320v32q0 320 -238 320q-239 0 -239 -320v-32q0 -320 239 -320zM235 867
h218q16 0 16 -16v-7q0 -16 -16 -16h-218q-16 0 -16 16v7q0 16 16 16z" />
    <glyph glyph-name="omacron" unicode="&#x14d;" horiz-adv-x="555" 
d="M277 -8q-114 0 -168 78t-54 207q0 127 55 202.5t167 75.5q115 0 169 -74.5t54 -203.5q0 -130 -53.5 -207.5t-169.5 -77.5zM277 35q93 0 134.5 66.5t41.5 175.5q0 235 -176 235q-175 0 -175 -235q0 -109 41 -175.5t134 -66.5zM168 664h218q16 0 16 -16v-7q0 -16 -16 -16
h-218q-16 0 -16 16v7q0 16 16 16z" />
    <glyph glyph-name="Obreve" unicode="&#x14e;" horiz-adv-x="688" 
d="M344 -8q-100 0 -166.5 49.5t-94.5 129.5t-28 188v32q0 108 28 188t94.5 129.5t166.5 49.5t166.5 -49.5t94.5 -129.5t28 -188v-32q0 -108 -28 -188t-94.5 -129.5t-166.5 -49.5zM344 39q238 0 238 320v32q0 320 -238 320q-239 0 -239 -320v-32q0 -320 239 -320zM463 957
q2 12 12 12h11q10 0 10 -12q0 -51 -42.5 -90t-110.5 -39t-110 38.5t-42 90.5q0 12 10 12h11q9 0 11 -12q5 -40 38 -65t82 -25t83.5 25.5t36.5 64.5z" />
    <glyph glyph-name="obreve" unicode="&#x14f;" horiz-adv-x="555" 
d="M277 -8q-114 0 -168 78t-54 207q0 127 55 202.5t167 75.5q115 0 169 -74.5t54 -203.5q0 -130 -53.5 -207.5t-169.5 -77.5zM277 35q93 0 134.5 66.5t41.5 175.5q0 235 -176 235q-175 0 -175 -235q0 -109 41 -175.5t134 -66.5zM397 754q2 12 12 12h11q10 0 10 -12
q0 -51 -42.5 -90t-110.5 -39t-110 38.5t-42 90.5q0 12 10 12h11q9 0 11 -12q5 -40 38 -65t82 -25t83.5 25.5t36.5 64.5z" />
    <glyph glyph-name="Ohungarumlaut" unicode="&#x150;" horiz-adv-x="688" 
d="M344 -8q-100 0 -166.5 49.5t-94.5 129.5t-28 188v32q0 108 28 188t94.5 129.5t166.5 49.5t166.5 -49.5t94.5 -129.5t28 -188v-32q0 -108 -28 -188t-94.5 -129.5t-166.5 -49.5zM344 39q238 0 238 320v32q0 320 -238 320q-239 0 -239 -320v-32q0 -320 239 -320zM363 969
l-121 -125q-16 -16 -25 -16h-5q-12 0 -12 8q0 4 3 8l87 125q12 15 22 15h44q11 0 11 -7q0 -4 -4 -8zM531 969l-121 -125q-16 -16 -25 -16h-5q-12 0 -12 8q0 4 3 8l87 125q12 15 22 15h44q11 0 11 -7q0 -4 -4 -8z" />
    <glyph glyph-name="ohungarumlaut" unicode="&#x151;" horiz-adv-x="555" 
d="M277 -8q-114 0 -168 78t-54 207q0 127 55 202.5t167 75.5q115 0 169 -74.5t54 -203.5q0 -130 -53.5 -207.5t-169.5 -77.5zM277 35q93 0 134.5 66.5t41.5 175.5q0 235 -176 235q-175 0 -175 -235q0 -109 41 -175.5t134 -66.5zM296 766l-121 -125q-16 -16 -25 -16h-5
q-12 0 -12 8q0 3 3 8l87 125q12 15 22 15h44q11 0 11 -7q0 -4 -4 -8zM464 766l-121 -125q-16 -16 -25 -16h-5q-12 0 -12 8q0 3 3 8l87 125q12 15 22 15h44q11 0 11 -7q0 -4 -4 -8z" />
    <glyph glyph-name="OE" unicode="&#x152;" horiz-adv-x="961" 
d="M883 0h-539q-148 0 -218.5 97t-70.5 262v32q0 165 70.5 262t218.5 97h539q15 0 15 -16v-15q0 -16 -15 -16h-332v-281h301q15 0 15 -16v-15q0 -16 -15 -16h-301v-328h332q15 0 15 -16v-15q0 -16 -15 -16zM105 359q0 -312 239 -312h156v656h-156q-239 0 -239 -312v-32z" />
    <glyph glyph-name="oe" unicode="&#x153;" horiz-adv-x="887" 
d="M797 70q4 2 7 2q8 0 8 -12v-13q0 -15 -15 -22q-62 -33 -141 -33q-148 0 -189 117q-51 -117 -190 -117q-114 0 -168 78t-54 207q0 127 55 202.5t167 75.5q141 0 193 -120q23 57 74 88.5t120 31.5q80 0 130 -39.5t50 -113.5q0 -70 -46 -107t-122 -37h-176v-63
q0 -76 40.5 -118t115.5 -42q68 0 141 35zM277 35q93 0 134.5 66.5t41.5 175.5q0 235 -176 235q-175 0 -175 -235q0 -109 41 -175.5t134 -66.5zM500 344v-43h180q117 0 117 101q0 54 -37 82t-96 28q-78 0 -121 -44.5t-43 -123.5z" />
    <glyph glyph-name="Racute" unicode="&#x154;" horiz-adv-x="609" 
d="M504 15q-23 68 -73.5 163.5t-94.5 134.5h-191v-297q0 -16 -16 -16h-20q-15 0 -15 16v718q0 16 15 16h219q107 0 155 -52.5t48 -162.5q0 -73 -38.5 -128t-105.5 -75q42 -41 88 -126.5t76 -162.5q11 -30 11 -32q0 -11 -13 -11h-28q-12 0 -17 15zM336 703h-191v-344h171
q75 0 119.5 49.5t44.5 126.5q0 86 -32.5 127t-111.5 41zM372 969l-121 -125q-16 -16 -25 -16h-5q-12 0 -12 8q0 4 3 8l87 125q12 15 22 15h44q11 0 11 -7q0 -4 -4 -8z" />
    <glyph glyph-name="racute" unicode="&#x155;" horiz-adv-x="355" 
d="M324 500h-19q-56 0 -117 -70l-47 -55v-359q0 -16 -16 -16h-16q-15 0 -15 16v515q0 16 15 16h16q16 0 16 -16v-97l43 50q52 63 121 63h19q16 0 16 -16v-15q0 -16 -16 -16zM276 766l-121 -125q-16 -16 -25 -16h-5q-12 0 -12 8q0 3 3 8l87 125q12 15 22 15h44q11 0 11 -7
q0 -4 -4 -8z" />
    <glyph glyph-name="Rcommaaccent" unicode="&#x156;" horiz-adv-x="609" 
d="M504 15q-23 68 -73.5 163.5t-94.5 134.5h-191v-297q0 -16 -16 -16h-20q-15 0 -15 16v718q0 16 15 16h219q107 0 155 -52.5t48 -162.5q0 -73 -38.5 -128t-105.5 -75q42 -41 88 -126.5t76 -162.5q11 -30 11 -32q0 -11 -13 -11h-28q-12 0 -17 15zM336 703h-191v-344h171
q75 0 119.5 49.5t44.5 126.5q0 86 -32.5 127t-111.5 41zM235 -180l34 125q5 16 18 16h17q16 0 16 -16v-15q0 -15 -12 -35l-42 -75q-10 -15 -22 -15q-10 0 -10 8q0 4 1 7z" />
    <glyph glyph-name="rcommaaccent" unicode="&#x157;" horiz-adv-x="355" 
d="M324 500h-19q-56 0 -117 -70l-47 -55v-359q0 -16 -16 -16h-16q-15 0 -15 16v515q0 16 15 16h16q16 0 16 -16v-97l43 50q52 63 121 63h19q16 0 16 -16v-15q0 -16 -16 -16zM54 -180l34 125q5 16 18 16h17q16 0 16 -16v-15q0 -15 -12 -35l-42 -75q-10 -15 -22 -15
q-10 0 -10 8q0 4 1 7z" />
    <glyph glyph-name="Rcaron" unicode="&#x158;" horiz-adv-x="609" 
d="M504 15q-23 68 -73.5 163.5t-94.5 134.5h-191v-297q0 -16 -16 -16h-20q-15 0 -15 16v718q0 16 15 16h219q107 0 155 -52.5t48 -162.5q0 -73 -38.5 -128t-105.5 -75q42 -41 88 -126.5t76 -162.5q11 -30 11 -32q0 -11 -13 -11h-28q-12 0 -17 15zM336 703h-191v-344h171
q75 0 119.5 49.5t44.5 126.5q0 86 -32.5 127t-111.5 41zM428 969l-111 -125q-14 -16 -24 -16h-41q-11 0 -25 16l-109 125q-4 4 -4 8q0 7 10 7h13q9 0 26 -15l109 -114l110 114q15 15 25 15h16q9 0 9 -7q0 -4 -4 -8z" />
    <glyph glyph-name="rcaron" unicode="&#x159;" horiz-adv-x="355" 
d="M324 500h-19q-56 0 -117 -70l-47 -55v-359q0 -16 -16 -16h-16q-15 0 -15 16v515q0 16 15 16h16q16 0 16 -16v-97l43 50q52 63 121 63h19q16 0 16 -16v-15q0 -16 -16 -16zM368 766l-111 -125q-14 -16 -24 -16h-41q-11 0 -25 16l-109 125q-4 4 -4 8q0 7 10 7h13q9 0 26 -15
l109 -114l110 114q15 15 25 15h16q9 0 9 -7q0 -4 -4 -8z" />
    <glyph glyph-name="Sacute" unicode="&#x15a;" horiz-adv-x="551" 
d="M66 19q-15 3 -15 19v22q0 11 11 11l20 -5q93 -27 156 -27h35q78 0 125 42.5t47 117.5q0 116 -109 149l-109 31q-83 23 -123.5 64.5t-40.5 119.5q0 95 64.5 145t169.5 50h12q74 0 152 -23q16 -5 16 -19v-18q0 -12 -12 -12q-4 0 -24 5q-76 20 -132 20h-16
q-83 0 -131.5 -36.5t-48.5 -111.5q0 -101 106 -129l109 -32q82 -23 125 -70t43 -133q0 -98 -62.5 -152.5t-163.5 -54.5h-32q-86 0 -172 27zM382 969l-121 -125q-16 -16 -25 -16h-5q-12 0 -12 8q0 4 3 8l87 125q12 15 22 15h44q11 0 11 -7q0 -4 -4 -8z" />
    <glyph glyph-name="sacute" unicode="&#x15b;" horiz-adv-x="484" 
d="M86 8q-16 5 -16 18v18q0 13 11 13l21 -6q55 -16 121 -16q69 0 110.5 30t41.5 91q0 41 -21 62.5t-73 35.5l-78 19q-68 18 -100.5 45.5t-32.5 91.5q0 72 58 108.5t142 36.5q57 0 113 -12q15 -3 15 -18v-14q0 -13 -11 -13q-4 0 -13 2t-11 2q-50 10 -93 10q-67 0 -110 -24
t-43 -78q0 -39 20.5 -59t65.5 -31l78 -19q65 -17 103 -48t38 -97q0 -79 -55.5 -121.5t-143.5 -42.5q-78 0 -137 16zM349 766l-121 -125q-16 -16 -25 -16h-5q-12 0 -12 8q0 3 3 8l87 125q12 15 22 15h44q11 0 11 -7q0 -4 -4 -8z" />
    <glyph glyph-name="Scircumflex" unicode="&#x15c;" horiz-adv-x="551" 
d="M66 19q-15 3 -15 19v22q0 11 11 11l20 -5q93 -27 156 -27h35q78 0 125 42.5t47 117.5q0 116 -109 149l-109 31q-83 23 -123.5 64.5t-40.5 119.5q0 95 64.5 145t169.5 50h12q74 0 152 -23q16 -5 16 -19v-18q0 -12 -12 -12q-4 0 -24 5q-76 20 -132 20h-16
q-83 0 -131.5 -36.5t-48.5 -111.5q0 -101 106 -129l109 -32q82 -23 125 -70t43 -133q0 -98 -62.5 -152.5t-163.5 -54.5h-32q-86 0 -172 27zM132 844l111 125q15 15 25 15h41q9 0 24 -15l109 -125q4 -4 4 -9q0 -7 -9 -7h-14q-11 0 -25 16l-110 113l-109 -113q-16 -16 -26 -16
h-15q-10 0 -10 7q0 5 4 9z" />
    <glyph glyph-name="scircumflex" unicode="&#x15d;" horiz-adv-x="484" 
d="M86 8q-16 5 -16 18v18q0 13 11 13l21 -6q55 -16 121 -16q69 0 110.5 30t41.5 91q0 41 -21 62.5t-73 35.5l-78 19q-68 18 -100.5 45.5t-32.5 91.5q0 72 58 108.5t142 36.5q57 0 113 -12q15 -3 15 -18v-14q0 -13 -11 -13q-4 0 -13 2t-11 2q-50 10 -93 10q-67 0 -110 -24
t-43 -78q0 -39 20.5 -59t65.5 -31l78 -19q65 -17 103 -48t38 -97q0 -79 -55.5 -121.5t-143.5 -42.5q-78 0 -137 16zM95 641l111 125q15 15 25 15h41q9 0 24 -15l109 -125q4 -4 4 -9q0 -7 -9 -7h-14q-11 0 -25 16l-110 113l-109 -113q-16 -16 -26 -16h-15q-10 0 -10 7
q0 5 4 9z" />
    <glyph glyph-name="Scedilla" unicode="&#x15e;" horiz-adv-x="551" 
d="M66 19q-15 3 -15 19v22q0 11 11 11l20 -5q93 -27 156 -27h35q78 0 125 42.5t47 117.5q0 116 -109 149l-109 31q-83 23 -123.5 64.5t-40.5 119.5q0 95 64.5 145t169.5 50h12q74 0 152 -23q16 -5 16 -19v-18q0 -12 -12 -12q-4 0 -24 5q-76 20 -132 20h-16
q-83 0 -131.5 -36.5t-48.5 -111.5q0 -101 106 -129l109 -32q82 -23 125 -70t43 -133q0 -98 -62.5 -152.5t-163.5 -54.5h-32q-86 0 -172 27zM230 -188h-89q-16 0 -16 16v8q0 16 16 16h93q55 0 55 50q0 17 -15.5 35t-35.5 28v12h24q26 -12 44 -35.5t18 -46.5q0 -38 -26 -60.5
t-68 -22.5z" />
    <glyph glyph-name="Scedilla" unicode="&#xf6c1;" horiz-adv-x="551" 
d="M66 19q-15 3 -15 19v22q0 11 11 11l20 -5q93 -27 156 -27h35q78 0 125 42.5t47 117.5q0 116 -109 149l-109 31q-83 23 -123.5 64.5t-40.5 119.5q0 95 64.5 145t169.5 50h12q74 0 152 -23q16 -5 16 -19v-18q0 -12 -12 -12q-4 0 -24 5q-76 20 -132 20h-16
q-83 0 -131.5 -36.5t-48.5 -111.5q0 -101 106 -129l109 -32q82 -23 125 -70t43 -133q0 -98 -62.5 -152.5t-163.5 -54.5h-32q-86 0 -172 27zM230 -188h-89q-16 0 -16 16v8q0 16 16 16h93q55 0 55 50q0 17 -15.5 35t-35.5 28v12h24q26 -12 44 -35.5t18 -46.5q0 -38 -26 -60.5
t-68 -22.5z" />
    <glyph glyph-name="scedilla" unicode="&#x15f;" horiz-adv-x="484" 
d="M86 8q-16 5 -16 18v18q0 13 11 13l21 -6q55 -16 121 -16q69 0 110.5 30t41.5 91q0 41 -21 62.5t-73 35.5l-78 19q-68 18 -100.5 45.5t-32.5 91.5q0 72 58 108.5t142 36.5q57 0 113 -12q15 -3 15 -18v-14q0 -13 -11 -13q-4 0 -13 2t-11 2q-50 10 -93 10q-67 0 -110 -24
t-43 -78q0 -39 20.5 -59t65.5 -31l78 -19q65 -17 103 -48t38 -97q0 -79 -55.5 -121.5t-143.5 -42.5q-78 0 -137 16zM205 -188h-89q-16 0 -16 16v8q0 16 16 16h93q55 0 55 50q0 17 -15.5 35t-35.5 28v12h24q26 -12 44 -35.5t18 -46.5q0 -38 -26 -60.5t-68 -22.5z" />
    <glyph glyph-name="scedilla" unicode="&#xf6c2;" horiz-adv-x="484" 
d="M86 8q-16 5 -16 18v18q0 13 11 13l21 -6q55 -16 121 -16q69 0 110.5 30t41.5 91q0 41 -21 62.5t-73 35.5l-78 19q-68 18 -100.5 45.5t-32.5 91.5q0 72 58 108.5t142 36.5q57 0 113 -12q15 -3 15 -18v-14q0 -13 -11 -13q-4 0 -13 2t-11 2q-50 10 -93 10q-67 0 -110 -24
t-43 -78q0 -39 20.5 -59t65.5 -31l78 -19q65 -17 103 -48t38 -97q0 -79 -55.5 -121.5t-143.5 -42.5q-78 0 -137 16zM205 -188h-89q-16 0 -16 16v8q0 16 16 16h93q55 0 55 50q0 17 -15.5 35t-35.5 28v12h24q26 -12 44 -35.5t18 -46.5q0 -38 -26 -60.5t-68 -22.5z" />
    <glyph glyph-name="Scaron" unicode="&#x160;" horiz-adv-x="551" 
d="M66 19q-15 3 -15 19v22q0 11 11 11l20 -5q93 -27 156 -27h35q78 0 125 42.5t47 117.5q0 116 -109 149l-109 31q-83 23 -123.5 64.5t-40.5 119.5q0 95 64.5 145t169.5 50h12q74 0 152 -23q16 -5 16 -19v-18q0 -12 -12 -12q-4 0 -24 5q-76 20 -132 20h-16
q-83 0 -131.5 -36.5t-48.5 -111.5q0 -101 106 -129l109 -32q82 -23 125 -70t43 -133q0 -98 -62.5 -152.5t-163.5 -54.5h-32q-86 0 -172 27zM438 969l-111 -125q-14 -16 -24 -16h-41q-11 0 -25 16l-109 125q-4 4 -4 8q0 7 10 7h13q9 0 26 -15l109 -114l110 114q15 15 25 15
h16q9 0 9 -7q0 -4 -4 -8z" />
    <glyph glyph-name="scaron" unicode="&#x161;" horiz-adv-x="484" 
d="M86 8q-16 5 -16 18v18q0 13 11 13l21 -6q55 -16 121 -16q69 0 110.5 30t41.5 91q0 41 -21 62.5t-73 35.5l-78 19q-68 18 -100.5 45.5t-32.5 91.5q0 72 58 108.5t142 36.5q57 0 113 -12q15 -3 15 -18v-14q0 -13 -11 -13q-4 0 -13 2t-11 2q-50 10 -93 10q-67 0 -110 -24
t-43 -78q0 -39 20.5 -59t65.5 -31l78 -19q65 -17 103 -48t38 -97q0 -79 -55.5 -121.5t-143.5 -42.5q-78 0 -137 16zM405 766l-111 -125q-14 -16 -24 -16h-41q-11 0 -25 16l-109 125q-4 4 -4 8q0 7 10 7h13q9 0 26 -15l109 -114l110 114q15 15 25 15h16q9 0 9 -7q0 -4 -4 -8z
" />
    <glyph glyph-name="Tcommaaccent" unicode="&#x162;" horiz-adv-x="566" 
d="M31 750h504q16 0 16 -16v-15q0 -16 -16 -16h-219v-687q0 -16 -15 -16h-20q-15 0 -15 16v687h-235q-15 0 -15 16v15q0 16 15 16zM273 -188h-89q-16 0 -16 16v8q0 16 16 16h93q55 0 55 50q0 17 -15.5 35t-35.5 28v12h24q26 -12 44 -35.5t18 -46.5q0 -38 -26 -60.5
t-68 -22.5z" />
    <glyph glyph-name="tcommaaccent" unicode="&#x163;" horiz-adv-x="383" 
d="M336 0h-39q-91 0 -127.5 45.5t-36.5 142.5v316h-86q-16 0 -16 16v11q0 16 16 16h86v109q0 16 15 16h16q16 0 16 -16v-109h140q16 0 16 -16v-11q0 -16 -16 -16h-140v-332q0 -68 29 -98.5t96 -30.5h31q16 0 16 -16v-11q0 -16 -16 -16zM275 -188h-89q-16 0 -16 16v8
q0 16 16 16h93q55 0 55 50q0 17 -15.5 35t-35.5 28v12h24q26 -12 44 -35.5t18 -46.5q0 -38 -26 -60.5t-68 -22.5z" />
    <glyph glyph-name="Tcaron" unicode="&#x164;" horiz-adv-x="566" 
d="M31 750h504q16 0 16 -16v-15q0 -16 -16 -16h-219v-687q0 -16 -15 -16h-20q-15 0 -15 16v687h-235q-15 0 -15 16v15q0 16 15 16zM450 969l-111 -125q-14 -16 -24 -16h-41q-11 0 -25 16l-109 125q-4 4 -4 8q0 7 10 7h13q9 0 26 -15l109 -114l110 114q15 15 25 15h16
q9 0 9 -7q0 -4 -4 -8z" />
    <glyph glyph-name="tcaron" unicode="&#x165;" horiz-adv-x="383" 
d="M336 0h-39q-91 0 -127.5 45.5t-36.5 142.5v316h-86q-16 0 -16 16v11q0 16 16 16h86v109q0 16 15 16h16q16 0 16 -16v-109h140q16 0 16 -16v-11q0 -16 -16 -16h-140v-332q0 -68 29 -98.5t96 -30.5h31q16 0 16 -16v-11q0 -16 -16 -16zM243 609l34 125q5 16 18 16h17
q16 0 16 -16v-15q0 -15 -12 -35l-42 -75q-8 -15 -22 -15q-10 0 -10 9q0 3 1 6z" />
    <glyph glyph-name="Tbar" unicode="&#x166;" horiz-adv-x="566" 
d="M31 750h504q16 0 16 -16v-15q0 -16 -16 -16h-219v-250h172q16 0 16 -16v-15q0 -16 -16 -16h-172v-390q0 -16 -15 -16h-20q-15 0 -15 16v390h-188q-16 0 -16 16v15q0 16 16 16h188v250h-235q-15 0 -15 16v15q0 16 15 16z" />
    <glyph glyph-name="tbar" unicode="&#x167;" horiz-adv-x="406" 
d="M336 0h-39q-91 0 -127.5 45.5t-36.5 142.5v105h-86q-16 0 -16 16v11q0 16 16 16h86v168h-86q-16 0 -16 16v11q0 16 16 16h86v109q0 16 15 16h16q16 0 16 -16v-109h140q16 0 16 -16v-11q0 -16 -16 -16h-140v-168h140q16 0 16 -16v-11q0 -16 -16 -16h-140v-121
q0 -68 29 -98.5t96 -30.5h31q16 0 16 -16v-11q0 -16 -16 -16z" />
    <glyph glyph-name="Utilde" unicode="&#x168;" horiz-adv-x="672" 
d="M586 734v-484q0 -130 -61 -194t-189 -64q-131 0 -190.5 62.5t-59.5 195.5v484q0 16 16 16h19q16 0 16 -16v-500q0 -96 51 -145.5t148 -49.5t148 49.5t51 145.5v500q0 16 16 16h19q16 0 16 -16zM492 883q-36 -55 -82 -55q-27 0 -79.5 39t-68.5 39q-39 0 -82 -66
q-6 -9 -11 -9t-5 10v16q0 12 16 33q37 55 82 55q29 0 81 -39t67 -39q37 0 82 66q6 9 11 9t5 -10v-16q0 -12 -16 -33z" />
    <glyph glyph-name="utilde" unicode="&#x169;" horiz-adv-x="574" 
d="M480 531v-515q0 -16 -15 -16h-16q-15 0 -15 16v105l-39 -39q-25 -24 -40.5 -37.5t-53 -33t-71.5 -19.5q-140 0 -140 164v375q0 16 15 16h16q16 0 16 -16v-375q0 -121 97 -121q27 0 60 19t52 36t49 47l39 39v355q0 16 15 16h16q15 0 15 -16zM443 680q-36 -55 -82 -55
q-27 0 -80 39t-68 39q-39 0 -82 -66q-6 -9 -11 -9t-5 10v16q0 12 16 33q37 55 82 55q29 0 81 -39t67 -39q37 0 82 66q6 9 11 9t5 -10v-16q0 -12 -16 -33z" />
    <glyph glyph-name="Umacron" unicode="&#x16a;" horiz-adv-x="672" 
d="M586 734v-484q0 -130 -61 -194t-189 -64q-131 0 -190.5 62.5t-59.5 195.5v484q0 16 16 16h19q16 0 16 -16v-500q0 -96 51 -145.5t148 -49.5t148 49.5t51 145.5v500q0 16 16 16h19q16 0 16 -16zM227 867h218q16 0 16 -16v-7q0 -16 -16 -16h-218q-16 0 -16 16v7q0 16 16 16
z" />
    <glyph glyph-name="umacron" unicode="&#x16b;" horiz-adv-x="574" 
d="M480 531v-515q0 -16 -15 -16h-16q-15 0 -15 16v105l-39 -39q-25 -24 -40.5 -37.5t-53 -33t-71.5 -19.5q-140 0 -140 164v375q0 16 15 16h16q16 0 16 -16v-375q0 -121 97 -121q27 0 60 19t52 36t49 47l39 39v355q0 16 15 16h16q15 0 15 -16zM178 664h218q16 0 16 -16v-7
q0 -16 -16 -16h-218q-16 0 -16 16v7q0 16 16 16z" />
    <glyph glyph-name="Ubreve" unicode="&#x16c;" horiz-adv-x="672" 
d="M586 734v-484q0 -130 -61 -194t-189 -64q-131 0 -190.5 62.5t-59.5 195.5v484q0 16 16 16h19q16 0 16 -16v-500q0 -96 51 -145.5t148 -49.5t148 49.5t51 145.5v500q0 16 16 16h19q16 0 16 -16zM456 957q2 12 12 12h11q10 0 10 -12q0 -51 -42.5 -90t-110.5 -39t-110 38.5
t-42 90.5q0 12 10 12h11q9 0 11 -12q5 -40 38 -65t82 -25t83.5 25.5t36.5 64.5z" />
    <glyph glyph-name="ubreve" unicode="&#x16d;" horiz-adv-x="574" 
d="M480 531v-515q0 -16 -15 -16h-16q-15 0 -15 16v105l-39 -39q-25 -24 -40.5 -37.5t-53 -33t-71.5 -19.5q-140 0 -140 164v375q0 16 15 16h16q16 0 16 -16v-375q0 -121 97 -121q27 0 60 19t52 36t49 47l39 39v355q0 16 15 16h16q15 0 15 -16zM407 754q2 12 12 12h11
q10 0 10 -12q0 -51 -42.5 -90t-110.5 -39t-110 38.5t-42 90.5q0 12 10 12h11q9 0 11 -12q5 -40 38 -65t82 -25t83.5 25.5t36.5 64.5z" />
    <glyph glyph-name="Uring" unicode="&#x16e;" horiz-adv-x="672" 
d="M586 734v-484q0 -130 -61 -194t-189 -64q-131 0 -190.5 62.5t-59.5 195.5v484q0 16 16 16h19q16 0 16 -16v-500q0 -96 51 -145.5t148 -49.5t148 49.5t51 145.5v500q0 16 16 16h19q16 0 16 -16zM336 828q-53 0 -83 29.5t-30 72.5t30 72t83 29t83.5 -29t30.5 -72
t-30.5 -72.5t-83.5 -29.5zM336 851q40 0 61 21.5t21 57.5t-21 57t-61 21t-61 -21t-21 -57t21 -57.5t61 -21.5z" />
    <glyph glyph-name="uring" unicode="&#x16f;" horiz-adv-x="574" 
d="M480 531v-515q0 -16 -15 -16h-16q-15 0 -15 16v105l-39 -39q-25 -24 -40.5 -37.5t-53 -33t-71.5 -19.5q-140 0 -140 164v375q0 16 15 16h16q16 0 16 -16v-375q0 -121 97 -121q27 0 60 19t52 36t49 47l39 39v355q0 16 15 16h16q15 0 15 -16zM287 625q-53 0 -83 29.5
t-30 72.5t30 72t83 29t83.5 -29t30.5 -72t-30.5 -72.5t-83.5 -29.5zM287 648q40 0 61 21.5t21 57.5t-21 57t-61 21q-39 0 -60.5 -21.5t-21.5 -56.5q0 -36 21 -57.5t61 -21.5z" />
    <glyph glyph-name="Uhungarumlaut" unicode="&#x170;" horiz-adv-x="672" 
d="M586 734v-484q0 -130 -61 -194t-189 -64q-131 0 -190.5 62.5t-59.5 195.5v484q0 16 16 16h19q16 0 16 -16v-500q0 -96 51 -145.5t148 -49.5t148 49.5t51 145.5v500q0 16 16 16h19q16 0 16 -16zM354 969l-121 -125q-16 -16 -25 -16h-5q-12 0 -12 8q0 4 3 8l87 125
q12 15 22 15h44q11 0 11 -7q0 -4 -4 -8zM522 969l-121 -125q-16 -16 -25 -16h-5q-12 0 -12 8q0 4 3 8l87 125q12 15 22 15h44q11 0 11 -7q0 -4 -4 -8z" />
    <glyph glyph-name="uhungarumlaut" unicode="&#x171;" horiz-adv-x="574" 
d="M480 531v-515q0 -16 -15 -16h-16q-15 0 -15 16v105l-39 -39q-25 -24 -40.5 -37.5t-53 -33t-71.5 -19.5q-140 0 -140 164v375q0 16 15 16h16q16 0 16 -16v-375q0 -121 97 -121q27 0 60 19t52 36t49 47l39 39v355q0 16 15 16h16q15 0 15 -16zM306 766l-121 -125
q-16 -16 -25 -16h-5q-12 0 -12 8q0 3 3 8l87 125q12 15 22 15h44q11 0 11 -7q0 -4 -4 -8zM474 766l-121 -125q-16 -16 -25 -16h-5q-12 0 -12 8q0 3 3 8l87 125q12 15 22 15h44q11 0 11 -7q0 -4 -4 -8z" />
    <glyph glyph-name="Uogonek" unicode="&#x172;" horiz-adv-x="672" 
d="M586 734v-484q0 -130 -61 -194t-189 -64q-131 0 -190.5 62.5t-59.5 195.5v484q0 16 16 16h19q16 0 16 -16v-500q0 -96 51 -145.5t148 -49.5t148 49.5t51 145.5v500q0 16 16 16h19q16 0 16 -16zM454 -188h-90q-42 0 -68 22.5t-26 60.5q0 23 18 46.5t44 35.5h24v-12
q-20 -10 -35.5 -28t-15.5 -35q0 -50 55 -50h94q15 0 15 -16v-8q0 -16 -15 -16z" />
    <glyph glyph-name="uogonek" unicode="&#x173;" horiz-adv-x="574" 
d="M480 531v-515q0 -16 -15 -16h-16q-15 0 -15 16v105l-39 -39q-25 -24 -40.5 -37.5t-53 -33t-71.5 -19.5q-140 0 -140 164v375q0 16 15 16h16q16 0 16 -16v-375q0 -121 97 -121q27 0 60 19t52 36t49 47l39 39v355q0 16 15 16h16q15 0 15 -16zM567 -188h-90q-42 0 -68 22.5
t-26 60.5q0 23 18 46.5t44 35.5h24v-12q-20 -10 -35.5 -28t-15.5 -35q0 -50 55 -50h94q15 0 15 -16v-8q0 -16 -15 -16z" />
    <glyph glyph-name="Wcircumflex" unicode="&#x174;" horiz-adv-x="875" 
d="M463 733q50 -419 158 -686q109 273 170 687q2 16 17 16h20q15 0 15 -14q0 -1 -3 -25q-28 -189 -79 -382.5t-109 -328.5h-62q-89 189 -152 539q-66 -359 -157 -539h-62q-59 143 -111 336t-73 371q0 4 -1 10.5t-1.5 11t-0.5 7.5q0 14 15 14h20q15 0 17 -16
q64 -431 166 -687q122 301 162 686q2 17 17 17h17q15 0 17 -17zM282 844l111 125q15 15 25 15h41q9 0 24 -15l109 -125q4 -4 4 -9q0 -7 -9 -7h-14q-11 0 -25 16l-110 113l-109 -113q-16 -16 -26 -16h-15q-10 0 -10 7q0 5 4 9z" />
    <glyph glyph-name="wcircumflex" unicode="&#x175;" horiz-adv-x="727" 
d="M672 531v-140q0 -126 -44 -230t-97 -161h-43q-32 32 -71.5 107t-53.5 139q-13 -63 -53 -138.5t-72 -107.5h-47q-51 56 -93.5 160t-42.5 231v140q0 16 15 16h16q16 0 16 -16v-140q0 -108 38 -209.5t79 -142.5q25 34 48 74.5t48 117.5t25 152v148q0 16 15 16h16
q16 0 16 -16v-148q0 -75 25 -152t48 -117.5t48 -74.5q41 41 79 142.5t38 209.5v140q0 16 16 16h15q16 0 16 -16zM208 641l111 125q15 15 25 15h41q9 0 24 -15l109 -125q4 -4 4 -9q0 -7 -9 -7h-14q-11 0 -25 16l-110 113l-109 -113q-16 -16 -26 -16h-15q-10 0 -10 7q0 5 4 9z
" />
    <glyph glyph-name="Ycircumflex" unicode="&#x176;" horiz-adv-x="563" 
d="M539 734l-230 -425v-293q0 -16 -16 -16h-20q-15 0 -15 16v293l-231 425q-2 4 -2 7q0 9 13 9h24q13 0 21 -16l202 -371l198 371q8 16 21 16h24q13 0 13 -9q0 -3 -2 -7zM130 844l111 125q15 15 25 15h41q9 0 24 -15l109 -125q4 -4 4 -9q0 -7 -9 -7h-14q-11 0 -25 16
l-110 113l-109 -113q-16 -16 -26 -16h-15q-10 0 -10 7q0 5 4 9z" />
    <glyph glyph-name="ycircumflex" unicode="&#x177;" horiz-adv-x="574" 
d="M152 -145h86q108 0 152 54t44 169v15l-12 -8q-29 -20 -76 -37t-92 -17q-80 0 -122 47.5t-42 131.5v321q0 16 15 16h16q16 0 16 -16v-321q0 -69 29.5 -103t95.5 -34q40 0 85.5 17.5t74.5 37.5l12 8v395q0 16 15 16h16q15 0 15 -16v-445q0 -137 -57 -205.5t-185 -68.5h-86
q-15 0 -15 16v12q0 15 15 15zM132 641l111 125q15 15 25 15h41q9 0 24 -15l109 -125q4 -4 4 -9q0 -7 -9 -7h-14q-11 0 -25 16l-110 113l-109 -113q-16 -16 -26 -16h-15q-10 0 -10 7q0 5 4 9z" />
    <glyph glyph-name="Ydieresis" unicode="&#x178;" horiz-adv-x="563" 
d="M539 734l-230 -425v-293q0 -16 -16 -16h-20q-15 0 -15 16v293l-231 425q-2 4 -2 7q0 9 13 9h24q13 0 21 -16l202 -371l198 371q8 16 21 16h24q13 0 13 -9q0 -3 -2 -7zM133 844v62q0 16 16 16h23q16 0 16 -16v-62q0 -16 -16 -16h-23q-16 0 -16 16zM375 844v62q0 16 16 16
h23q16 0 16 -16v-62q0 -16 -16 -16h-23q-16 0 -16 16z" />
    <glyph glyph-name="Zacute" unicode="&#x179;" horiz-adv-x="574" 
d="M508 734v-11q0 -11 -5 -24q-62 -147 -182.5 -339t-207.5 -313h399q15 0 15 -16v-15q0 -16 -15 -16h-450q-15 0 -15 16v11q0 11 8 22q96 129 223 335t171 319h-375q-15 0 -15 16v15q0 16 15 16h418q16 0 16 -16zM390 969l-121 -125q-16 -16 -25 -16h-5q-12 0 -12 8
q0 4 3 8l87 125q12 15 22 15h44q11 0 11 -7q0 -4 -4 -8z" />
    <glyph glyph-name="zacute" unicode="&#x17a;" horiz-adv-x="500" 
d="M438 531q0 -17 -5 -31q-44 -77 -149.5 -229.5t-166.5 -227.5h313q15 0 15 -16v-11q0 -16 -15 -16h-360q-15 0 -15 16v7q0 14 7 22q83 103 176 238.5t141 220.5h-293q-16 0 -16 16v11q0 16 16 16h337q15 0 15 -16zM356 766l-121 -125q-16 -16 -25 -16h-5q-12 0 -12 8
q0 3 3 8l87 125q12 15 22 15h44q11 0 11 -7q0 -4 -4 -8z" />
    <glyph glyph-name="Zdotaccent" unicode="&#x17b;" horiz-adv-x="574" 
d="M508 734v-11q0 -11 -5 -24q-62 -147 -182.5 -339t-207.5 -313h399q15 0 15 -16v-15q0 -16 -15 -16h-450q-15 0 -15 16v11q0 11 8 22q96 129 223 335t171 319h-375q-15 0 -15 16v15q0 16 15 16h418q16 0 16 -16zM260 844v62q0 16 16 16h23q16 0 16 -16v-62q0 -16 -16 -16
h-23q-16 0 -16 16z" />
    <glyph glyph-name="zdotaccent" unicode="&#x17c;" horiz-adv-x="500" 
d="M438 531q0 -17 -5 -31q-44 -77 -149.5 -229.5t-166.5 -227.5h313q15 0 15 -16v-11q0 -16 -15 -16h-360q-15 0 -15 16v7q0 14 7 22q83 103 176 238.5t141 220.5h-293q-16 0 -16 16v11q0 16 16 16h337q15 0 15 -16zM223 641v62q0 16 16 16h23q16 0 16 -16v-62
q0 -16 -16 -16h-23q-16 0 -16 16z" />
    <glyph glyph-name="Zcaron" unicode="&#x17d;" horiz-adv-x="574" 
d="M508 734v-11q0 -11 -5 -24q-62 -147 -182.5 -339t-207.5 -313h399q15 0 15 -16v-15q0 -16 -15 -16h-450q-15 0 -15 16v11q0 11 8 22q96 129 223 335t171 319h-375q-15 0 -15 16v15q0 16 15 16h418q16 0 16 -16zM434 969l-111 -125q-14 -16 -24 -16h-41q-11 0 -25 16
l-109 125q-4 4 -4 8q0 7 10 7h13q9 0 26 -15l109 -114l110 114q15 15 25 15h16q9 0 9 -7q0 -4 -4 -8z" />
    <glyph glyph-name="zcaron" unicode="&#x17e;" horiz-adv-x="500" 
d="M438 531q0 -17 -5 -31q-44 -77 -149.5 -229.5t-166.5 -227.5h313q15 0 15 -16v-11q0 -16 -15 -16h-360q-15 0 -15 16v7q0 14 7 22q83 103 176 238.5t141 220.5h-293q-16 0 -16 16v11q0 16 16 16h337q15 0 15 -16zM405 766l-111 -125q-14 -16 -24 -16h-41q-11 0 -25 16
l-109 125q-4 4 -4 8q0 7 10 7h13q9 0 26 -15l109 -114l110 114q15 15 25 15h16q9 0 9 -7q0 -4 -4 -8z" />
    <glyph glyph-name="longs" unicode="&#x17f;" horiz-adv-x="336" 
d="M336 707h-39q-61 0 -89 -29.5t-28 -91.5v-570q0 -16 -16 -16h-16q-15 0 -15 16v488h-86q-16 0 -16 16v11q0 16 16 16h86v39q0 79 42.5 121.5t121.5 42.5h39q16 0 16 -16v-11q0 -16 -16 -16z" />
    <glyph glyph-name="florin" unicode="&#x192;" 
d="M47 -141h78q75 0 110 40t35 132v344h-118q-15 0 -15 16v15q0 16 15 16h118v109q0 105 49.5 162t149.5 57h66q16 0 16 -16v-15q0 -16 -16 -16h-66q-79 0 -114 -37.5t-35 -134.5v-109h164q16 0 16 -16v-15q0 -16 -16 -16h-164v-344q0 -100 -47 -159.5t-148 -59.5h-78
q-16 0 -16 16v16q0 15 16 15z" />
    <glyph glyph-name="Scommaaccent" unicode="&#x218;" horiz-adv-x="551" 
d="M66 19q-15 3 -15 19v22q0 11 11 11l20 -5q93 -27 156 -27h35q78 0 125 42.5t47 117.5q0 116 -109 149l-109 31q-83 23 -123.5 64.5t-40.5 119.5q0 95 64.5 145t169.5 50h12q74 0 152 -23q16 -5 16 -19v-18q0 -12 -12 -12q-4 0 -24 5q-76 20 -132 20h-16
q-83 0 -131.5 -36.5t-48.5 -111.5q0 -101 106 -129l109 -32q82 -23 125 -70t43 -133q0 -98 -62.5 -152.5t-163.5 -54.5h-32q-86 0 -172 27zM198 -180l34 125q5 16 18 16h17q16 0 16 -16v-15q0 -15 -12 -35l-42 -75q-10 -15 -22 -15q-10 0 -10 8q0 4 1 7z" />
    <glyph glyph-name="scommaaccent" unicode="&#x219;" horiz-adv-x="484" 
d="M86 8q-16 5 -16 18v18q0 13 11 13l21 -6q55 -16 121 -16q69 0 110.5 30t41.5 91q0 41 -21 62.5t-73 35.5l-78 19q-68 18 -100.5 45.5t-32.5 91.5q0 72 58 108.5t142 36.5q57 0 113 -12q15 -3 15 -18v-14q0 -13 -11 -13q-4 0 -13 2t-11 2q-50 10 -93 10q-67 0 -110 -24
t-43 -78q0 -39 20.5 -59t65.5 -31l78 -19q65 -17 103 -48t38 -97q0 -79 -55.5 -121.5t-143.5 -42.5q-78 0 -137 16zM165 -180l34 125q5 16 18 16h17q16 0 16 -16v-15q0 -15 -12 -35l-42 -75q-10 -15 -22 -15q-10 0 -10 8q0 4 1 7z" />
    <glyph glyph-name="uni021A" unicode="&#x21a;" horiz-adv-x="566" 
d="M31 750h504q16 0 16 -16v-15q0 -16 -16 -16h-219v-687q0 -16 -15 -16h-20q-15 0 -15 16v687h-235q-15 0 -15 16v15q0 16 15 16zM230 -180l34 125q5 16 18 16h17q16 0 16 -16v-15q0 -15 -12 -35l-42 -75q-10 -15 -22 -15q-10 0 -10 8q0 4 1 7z" />
    <glyph glyph-name="uni021B" unicode="&#x21b;" horiz-adv-x="383" 
d="M336 0h-39q-91 0 -127.5 45.5t-36.5 142.5v316h-86q-16 0 -16 16v11q0 16 16 16h86v109q0 16 15 16h16q16 0 16 -16v-109h140q16 0 16 -16v-11q0 -16 -16 -16h-140v-332q0 -68 29 -98.5t96 -30.5h31q16 0 16 -16v-11q0 -16 -16 -16zM192 -180l34 125q5 16 18 16h17
q16 0 16 -16v-15q0 -15 -12 -35l-42 -75q-10 -15 -22 -15q-10 0 -10 8q0 4 1 7z" />
    <glyph glyph-name="circumflex" unicode="&#x2c6;" horiz-adv-x="318" 
d="M4 641l111 125q15 15 25 15h41q9 0 24 -15l109 -125q4 -4 4 -9q0 -7 -9 -7h-14q-11 0 -25 16l-110 113l-109 -113q-16 -16 -26 -16h-15q-10 0 -10 7q0 5 4 9z" />
    <glyph glyph-name="caron" unicode="&#x2c7;" horiz-adv-x="318" 
d="M314 766l-111 -125q-14 -16 -24 -16h-41q-11 0 -25 16l-109 125q-4 4 -4 8q0 7 10 7h13q9 0 26 -15l109 -114l110 114q15 15 25 15h16q9 0 9 -7q0 -4 -4 -8z" />
    <glyph glyph-name="breve" unicode="&#x2d8;" horiz-adv-x="305" 
d="M272 754q2 12 12 12h11q10 0 10 -12q0 -51 -42.5 -90t-110.5 -39t-110 38.5t-42 90.5q0 12 10 12h11q9 0 11 -12q5 -40 38 -65t82 -25t83.5 25.5t36.5 64.5z" />
    <glyph glyph-name="dotaccent" unicode="&#x2d9;" horiz-adv-x="55" 
d="M0 641v62q0 16 16 16h23q16 0 16 -16v-62q0 -16 -16 -16h-23q-16 0 -16 16z" />
    <glyph glyph-name="ring" unicode="&#x2da;" horiz-adv-x="227" 
d="M113 625q-53 0 -83 29.5t-30 72.5t30 72t83 29t83.5 -29t30.5 -72t-30.5 -72.5t-83.5 -29.5zM113 648q40 0 61 21.5t21 57.5t-21 57t-61 21q-39 0 -60.5 -21.5t-21.5 -56.5q0 -36 21 -57.5t61 -21.5z" />
    <glyph glyph-name="ogonek" unicode="&#x2db;" horiz-adv-x="199" 
d="M184 -188h-90q-42 0 -68 22.5t-26 60.5q0 23 18 46.5t44 35.5h24v-12q-20 -10 -35.5 -28t-15.5 -35q0 -50 55 -50h94q15 0 15 -16v-8q0 -16 -15 -16z" />
    <glyph glyph-name="tilde" unicode="&#x2dc;" horiz-adv-x="344" 
d="M328 680q-36 -55 -82 -55q-28 0 -80 39t-68 39q-39 0 -82 -66q-6 -9 -11 -9t-5 10v16q0 12 16 33q37 55 82 55q29 0 81 -39t67 -39q37 0 82 66q6 9 11 9t5 -10v-16q0 -12 -16 -33z" />
    <glyph glyph-name="hungarumlaut" unicode="&#x2dd;" horiz-adv-x="335" 
d="M163 766l-121 -125q-16 -16 -25 -16h-5q-12 0 -12 8q0 3 3 8l87 125q12 15 22 15h44q11 0 11 -7q0 -4 -4 -8zM331 766l-121 -125q-16 -16 -25 -16h-5q-12 0 -12 8q0 3 3 8l87 125q12 15 22 15h44q11 0 11 -7q0 -4 -4 -8z" />
    <glyph glyph-name="Delta" unicode="&#x394;" horiz-adv-x="680" 
d="M98 39h492l-246 672zM633 0h-578q-16 0 -16 16v4q0 2 2 8l267 706q6 16 18 16h35q14 0 20 -16l265 -706q2 -6 2 -8v-4q0 -16 -15 -16z" />
    <glyph glyph-name="Delta" unicode="&#x2206;" horiz-adv-x="680" 
d="M98 39h492l-246 672zM633 0h-578q-16 0 -16 16v4q0 2 2 8l267 706q6 16 18 16h35q14 0 20 -16l265 -706q2 -6 2 -8v-4q0 -16 -15 -16z" />
    <glyph glyph-name="Omega" unicode="&#x3a9;" horiz-adv-x="691" 
d="M47 0v55h156q-75 75 -115.5 149t-40.5 179q0 155 85.5 249.5t211.5 94.5q127 0 214 -95t87 -249q0 -106 -40.5 -181.5t-116.5 -146.5h157v-55h-211v43q72 51 112 143.5t40 196.5q0 138 -70 219.5t-172 81.5q-101 0 -170 -81.5t-69 -219.5q0 -104 40 -196.5t113 -143.5
v-43h-211z" />
    <glyph glyph-name="Omega" unicode="&#x2126;" horiz-adv-x="691" 
d="M47 0v55h156q-75 75 -115.5 149t-40.5 179q0 155 85.5 249.5t211.5 94.5q127 0 214 -95t87 -249q0 -106 -40.5 -181.5t-116.5 -146.5h157v-55h-211v43q72 51 112 143.5t40 196.5q0 138 -70 219.5t-172 81.5q-101 0 -170 -81.5t-69 -219.5q0 -104 40 -196.5t113 -143.5
v-43h-211z" />
    <glyph glyph-name="pi" unicode="&#x3c0;" horiz-adv-x="578" 
d="M94 16v515q0 16 15 16h360q15 0 15 -16v-515q0 -16 -15 -16h-16q-16 0 -16 16v492h-296v-492q0 -16 -16 -16h-16q-15 0 -15 16z" />
    <glyph glyph-name="endash" unicode="&#x2013;" horiz-adv-x="500" 
d="M47 387h406q16 0 16 -16v-8q0 -15 -16 -15h-406q-16 0 -16 15v8q0 16 16 16z" />
    <glyph glyph-name="emdash" unicode="&#x2014;" horiz-adv-x="1000" 
d="M47 387h906q16 0 16 -16v-8q0 -15 -16 -15h-906q-16 0 -16 15v8q0 16 16 16z" />
    <glyph glyph-name="quoteleft" unicode="&#x2018;" horiz-adv-x="219" 
d="M70 593l69 142q7 15 18 15h4q13 0 13 -10q0 -3 -1 -5l-51 -188q-5 -16 -18 -16h-25q-16 0 -16 16v12q0 20 7 34z" />
    <glyph glyph-name="quoteright" unicode="&#x2019;" horiz-adv-x="219" 
d="M153 688l-68 -142q-7 -15 -19 -15h-4q-12 0 -12 10q0 3 1 5l51 188q3 16 18 16h25q15 0 15 -16v-11q0 -21 -7 -35z" />
    <glyph glyph-name="quotesinglbase" unicode="&#x201a;" horiz-adv-x="273" 
d="M167 32l-68 -142q-7 -15 -19 -15h-4q-13 0 -13 10q0 3 1 5l51 188q5 16 19 16h24q16 0 16 -16v-12q0 -20 -7 -34z" />
    <glyph glyph-name="quotedblleft" unicode="&#x201c;" horiz-adv-x="375" 
d="M222 593l68 142q8 15 19 15h3q13 0 13 -10q0 -3 -1 -5l-51 -188q-3 -16 -18 -16h-25q-15 0 -15 16v12q0 20 7 34zM65 593l69 142q8 15 18 15h4q13 0 13 -10q0 -3 -1 -5l-51 -188q-5 -16 -18 -16h-25q-15 0 -15 16v12q0 19 6 34z" />
    <glyph glyph-name="quotedblright" unicode="&#x201d;" horiz-adv-x="375" 
d="M148 688l-68 -142q-8 -15 -18 -15h-4q-13 0 -13 10q0 3 1 5l51 188q5 16 18 16h25q15 0 15 -16v-11q0 -21 -7 -35zM305 688l-69 -142q-8 -15 -18 -15h-4q-13 0 -13 10q0 3 1 5l51 188q5 16 18 16h25q16 0 16 -16v-11q0 -21 -7 -35z" />
    <glyph glyph-name="quotedblbase" unicode="&#x201e;" horiz-adv-x="375" 
d="M149 32l-68 -142q-7 -15 -19 -15h-3q-13 0 -13 10q0 3 1 5l51 188q5 16 18 16h25q15 0 15 -16v-12q0 -20 -7 -34zM306 32l-69 -142q-7 -15 -18 -15h-4q-13 0 -13 10q0 3 1 5l51 188q5 16 18 16h25q15 0 15 -16v-12q0 -22 -6 -34z" />
    <glyph glyph-name="dagger" unicode="&#x2020;" horiz-adv-x="477" 
d="M79 547h136v187q0 16 15 16h16q16 0 16 -16v-187h136q16 0 16 -16v-11q0 -16 -16 -16h-136v-613q0 -16 -16 -16h-16q-15 0 -15 16v613h-136q-16 0 -16 16v11q0 16 16 16z" />
    <glyph glyph-name="daggerdbl" unicode="&#x2021;" horiz-adv-x="477" 
d="M79 547h136v187q0 16 15 16h16q16 0 16 -16v-187h136q16 0 16 -16v-11q0 -16 -16 -16h-136v-383h136q16 0 16 -16v-11q0 -16 -16 -16h-136v-187q0 -16 -16 -16h-16q-15 0 -15 16v187h-136q-16 0 -16 16v11q0 16 16 16h136v383h-136q-16 0 -16 16v11q0 16 16 16z" />
    <glyph glyph-name="bullet" unicode="&#x2022;" horiz-adv-x="500" 
d="M250 125q-76 0 -131.5 49.5t-55.5 138.5t55.5 138t131.5 49t132 -49t56 -138t-56 -138.5t-132 -49.5z" />
    <glyph glyph-name="ellipsis" unicode="&#x2026;" horiz-adv-x="832" 
d="M109 16v62q0 16 16 16h23q16 0 16 -16v-62q0 -16 -16 -16h-23q-16 0 -16 16zM387 16v62q0 16 15 16h24q15 0 15 -16v-62q0 -16 -15 -16h-24q-15 0 -15 16zM668 16v62q0 16 16 16h23q16 0 16 -16v-62q0 -16 -16 -16h-23q-16 0 -16 16z" />
    <glyph glyph-name="perthousand" unicode="&#x2030;" horiz-adv-x="1320" 
d="M671 737l-367 -724q-7 -13 -18 -13h-11q-10 0 -10 7q0 2 2 6l367 724q7 13 17 13h11q11 0 11 -7q0 -2 -2 -6zM244 320q-167 0 -167 217q0 218 167 218q166 0 166 -218q0 -217 -166 -217zM244 360q58 0 87.5 42t29.5 135t-29.5 135t-87.5 42q-59 0 -89 -42t-30 -135
q0 -177 119 -177zM696 -4q-167 0 -167 217q0 218 167 218q82 0 124 -56t42 -162q0 -217 -166 -217zM696 36q58 0 87.5 42t29.5 135t-29.5 135t-87.5 42q-59 0 -89 -42t-30 -135q0 -177 119 -177zM1103 -4q-167 0 -167 217q0 218 167 218q81 0 123.5 -56t42.5 -162
q0 -217 -166 -217zM1103 36q58 0 87.5 42t29.5 135t-29.5 135t-87.5 42q-60 0 -90 -42t-30 -135q0 -177 120 -177z" />
    <glyph glyph-name="guilsinglleft" unicode="&#x2039;" horiz-adv-x="336" 
d="M267 157l-188 145q-16 11 -16 22v25q0 11 16 22l188 144q5 3 7 3q8 0 8 -12v-19q0 -10 -15 -23l-157 -128l157 -128q15 -13 15 -23v-19q0 -12 -8 -12q-2 0 -7 3z" />
    <glyph glyph-name="guilsinglright" unicode="&#x203a;" horiz-adv-x="336" 
d="M258 302l-188 -145q-4 -3 -8 -3q-7 0 -7 12v19q0 10 15 23l157 128l-157 128q-15 13 -15 23v19q0 12 7 12q4 0 8 -3l188 -144q15 -11 15 -22v-25q0 -12 -15 -22z" />
    <glyph glyph-name="fraction" unicode="&#x2044;" horiz-adv-x="8" 
d="M202 737l-367 -724q-7 -13 -18 -13h-10q-11 0 -11 7q0 2 2 6l367 724q7 13 18 13h10q11 0 11 -7q0 -2 -2 -6z" />
    <glyph glyph-name="fraction" unicode="&#x2215;" horiz-adv-x="8" 
d="M202 737l-367 -724q-7 -13 -18 -13h-10q-11 0 -11 7q0 2 2 6l367 724q7 13 18 13h10q11 0 11 -7q0 -2 -2 -6z" />
    <glyph glyph-name="uni2070" unicode="&#x2070;" horiz-adv-x="412" 
d="M207 320q-167 0 -167 217q0 218 167 218q82 0 124 -55.5t42 -162.5q0 -217 -166 -217zM207 360q58 0 87.5 42t29.5 135t-29.5 135t-87.5 42q-59 0 -89 -42t-30 -135q0 -177 119 -177z" />
    <glyph glyph-name="uni2074" unicode="&#x2074;" horiz-adv-x="412" 
d="M29 447v7q0 8 8 18q47 52 79 125t41 138q2 15 19 15h11q18 0 18 -13q0 -1 -8 -38q-30 -126 -105 -226h175v120q0 15 17 15h13q17 0 17 -15v-120h45q19 0 19 -17v-9q0 -15 -19 -15h-45v-91q0 -17 -17 -17h-13q-17 0 -17 17v91h-219q-19 0 -19 15z" />
    <glyph glyph-name="uni2075" unicode="&#x2075;" horiz-adv-x="412" 
d="M322 709h-204v-117h66q86 0 127.5 -33.5t41.5 -91.5q0 -59 -42.5 -101t-128.5 -42h-104q-18 0 -18 17v8q0 16 18 16h104q123 0 123 102q0 84 -121 84h-96q-8 0 -13 4.5t-5 10.5v168q0 16 18 16h234q18 0 18 -16v-8q0 -17 -18 -17z" />
    <glyph glyph-name="uni2076" unicode="&#x2076;" horiz-adv-x="412" 
d="M317 709h-65q-72 0 -109.5 -33t-37.5 -96v-17q62 29 109 29q72 0 110.5 -33.5t38.5 -98.5q0 -58 -39 -99t-117 -41q-150 0 -150 138v133q0 67 50.5 113t149.5 46h60q18 0 18 -16v-8q0 -17 -18 -17zM207 360q108 0 108 100q0 91 -101 91q-53 0 -109 -30v-65q0 -96 102 -96
z" />
    <glyph glyph-name="uni2077" unicode="&#x2077;" horiz-adv-x="412" 
d="M196 368v-27q0 -17 -17 -17h-13q-19 0 -19 17v16q0 99 48.5 192t114.5 160h-255q-7 0 -12 5t-5 12v8q0 16 17 16h303q18 0 18 -16v-4q0 -8 -10 -20q-170 -172 -170 -342z" />
    <glyph glyph-name="uni2078" unicode="&#x2078;" horiz-adv-x="412" 
d="M193 320q-66 0 -104.5 29t-38.5 91q0 59 69 100l18 11q-73 28 -73 95q0 56 41 82.5t96 26.5h18q56 0 94 -25.5t38 -80.5q0 -35 -14 -54t-46 -38l-20 -12q42 -17 65 -41t23 -64q0 -57 -41.5 -88.5t-103.5 -31.5h-21zM198 360h11q103 0 103 80q0 47 -61 70l-66 23l-34 -19
q-53 -32 -53 -74q0 -80 100 -80zM227 562l18 11q29 18 43 34t14 42q0 65 -88 65h-7q-94 0 -94 -68q0 -43 56 -63z" />
    <glyph glyph-name="uni2079" unicode="&#x2079;" horiz-adv-x="412" 
d="M100 365h63q145 0 145 118v29q-61 -26 -107 -26q-71 0 -108.5 34.5t-37.5 97.5q0 59 38 98t114 39q148 0 148 -137v-135q0 -68 -45.5 -113.5t-143.5 -45.5h-66q-17 0 -17 17v8q0 16 17 16zM201 527q57 0 107 27v66q0 94 -101 94q-104 0 -104 -96q0 -91 98 -91z" />
    <glyph glyph-name="uni2080" unicode="&#x2080;" horiz-adv-x="412" 
d="M207 -4q-167 0 -167 217q0 218 167 218q81 0 123.5 -56t42.5 -162q0 -217 -166 -217zM207 36q58 0 87.5 42t29.5 135t-29.5 135t-87.5 42q-59 0 -89 -42t-30 -135q0 -177 119 -177z" />
    <glyph glyph-name="uni2081" unicode="&#x2081;" horiz-adv-x="412" 
d="M210 375l-115 -43q-6 -2 -8 -2q-14 0 -14 15v11q0 12 16 18l136 50q6 2 15 2q18 0 18 -16v-393q0 -17 -18 -17h-12q-18 0 -18 17v358z" />
    <glyph glyph-name="uni2082" unicode="&#x2082;" horiz-adv-x="412" 
d="M57 17v34q0 100 117 147l48 20q88 35 88 92q0 75 -112 75h-102q-19 0 -19 16v9q0 16 19 16h102q160 0 160 -116q0 -82 -129 -132l-47 -19q-79 -29 -79 -108v-10h240q17 0 17 -17v-7q0 -17 -17 -17h-268q-18 0 -18 17z" />
    <glyph glyph-name="uni2083" unicode="&#x2083;" horiz-adv-x="412" 
d="M190 0h-115q-18 0 -18 17v7q0 17 18 17h115q60 0 92.5 23.5t32.5 69.5q0 78 -111 78h-70q-19 0 -19 17v8q0 16 19 16h106q60 29 60 72q0 60 -102 60h-110q-8 0 -13 5t-5 11v9q0 16 18 16h110q72 0 111 -26t39 -75q0 -54 -57 -86q72 -29 72 -105q0 -60 -47 -97t-126 -37z
" />
    <glyph glyph-name="uni2084" unicode="&#x2084;" horiz-adv-x="412" 
d="M29 123v7q0 9 8 17q47 53 79 126t41 138q2 15 19 15h11q18 0 18 -13q0 -1 -8 -38q-30 -125 -105 -227h175v121q0 15 17 15h13q17 0 17 -15v-121h45q19 0 19 -16v-9q0 -16 -19 -16h-45v-90q0 -17 -17 -17h-13q-17 0 -17 17v90h-219q-19 0 -19 16z" />
    <glyph glyph-name="uni2085" unicode="&#x2085;" horiz-adv-x="412" 
d="M322 385h-204v-117h66q86 0 127.5 -33.5t41.5 -91.5q0 -59 -42.5 -101t-128.5 -42h-104q-18 0 -18 17v7q0 17 18 17h104q123 0 123 102q0 84 -121 84h-96q-18 0 -18 15v168q0 16 18 16h234q18 0 18 -16v-9q0 -6 -5 -11t-13 -5z" />
    <glyph glyph-name="uni2086" unicode="&#x2086;" horiz-adv-x="412" 
d="M317 385h-65q-72 0 -109.5 -33t-37.5 -96v-17q62 29 109 29q72 0 110.5 -33.5t38.5 -98.5q0 -59 -39 -99.5t-117 -40.5q-150 0 -150 138v133q0 67 50.5 113t149.5 46h60q18 0 18 -16v-9q0 -6 -5 -11t-13 -5zM207 36q108 0 108 100q0 91 -101 91q-55 0 -109 -31v-64
q0 -96 102 -96z" />
    <glyph glyph-name="uni2087" unicode="&#x2087;" horiz-adv-x="412" 
d="M196 44v-27q0 -17 -17 -17h-13q-19 0 -19 17v16q0 99 48.5 192t114.5 160h-255q-7 0 -12 5t-5 11v9q0 16 17 16h303q18 0 18 -16v-4q0 -8 -10 -20q-170 -172 -170 -342z" />
    <glyph glyph-name="uni2088" unicode="&#x2088;" horiz-adv-x="412" 
d="M193 -4q-143 0 -143 120q0 57 69 100l18 11q-73 28 -73 95q0 56 41 82.5t96 26.5h18q56 0 94 -26t38 -80q0 -36 -14 -54.5t-46 -38.5l-20 -11q42 -17 65 -41t23 -64q0 -57 -41.5 -88.5t-103.5 -31.5h-21zM198 36h11q103 0 103 80q0 47 -61 70l-66 23l-34 -20
q-53 -30 -53 -73q0 -80 100 -80zM227 238l18 11q29 18 43 34t14 42q0 65 -88 65h-7q-94 0 -94 -68q0 -43 56 -63z" />
    <glyph glyph-name="uni2089" unicode="&#x2089;" horiz-adv-x="412" 
d="M100 41h63q145 0 145 118v28q-64 -25 -107 -25q-71 0 -108.5 34.5t-37.5 97.5q0 59 38 98t114 39q148 0 148 -137v-135q0 -68 -45.5 -113.5t-143.5 -45.5h-66q-17 0 -17 17v7q0 17 17 17zM201 203q55 0 107 26v67q0 94 -101 94q-104 0 -104 -96q0 -91 98 -91z" />
    <glyph glyph-name="Euro" unicode="&#x20ac;" 
d="M548 733q15 -6 15 -19v-17q0 -11 -9 -11q-4 0 -6 1q-63 24 -134 24h-23q-88 0 -140 -51t-52 -160v-16h254q16 0 16 -15v-16q0 -16 -16 -16h-254v-121h254q16 0 16 -15v-16q0 -15 -16 -15h-254v-20q0 -109 48 -160t144 -51h31q63 0 126 28q4 2 7 2q8 0 8 -12v-17
q0 -14 -15 -19q-62 -29 -126 -29h-31q-112 0 -177.5 63t-65.5 195v20h-101q-16 0 -16 15v16q0 15 16 15h101v121h-101q-16 0 -16 16v16q0 15 16 15h101v16q0 118 67.5 188t175.5 70h23q75 0 134 -25z" />
    <glyph glyph-name="trademark" unicode="&#x2122;" horiz-adv-x="703" 
d="M633 737v-365q0 -17 -18 -17h-15q-18 0 -18 17v253l-81 -125q-5 -8 -13 -8h-4q-7 0 -13 8l-84 125v-253q0 -17 -18 -17h-15q-18 0 -18 17v365q0 13 14 13h5q7 0 12 -6l121 -181l118 182q2 5 8 5h5q14 0 14 -13zM261 707h-81v-335q0 -17 -18 -17h-16q-17 0 -17 17v335h-81
q-17 0 -17 18v7q0 18 17 18h213q16 0 16 -18v-7q0 -18 -16 -18z" />
    <glyph glyph-name="partialdiff" unicode="&#x2202;" 
d="M323 39q169 0 169 188v124q-92 63 -180 63q-167 0 -167 -180q0 -102 48.5 -148.5t129.5 -46.5zM254 703h-102q-15 0 -15 16v15q0 16 15 16h94q75 0 133.5 -23.5t93 -63t52.5 -88t18 -102.5v-243q0 -238 -220 -238q-114 0 -171.5 70.5t-57.5 171.5q0 111 56 169t162 58
q89 0 180 -64v56q0 121 -61 185.5t-177 64.5z" />
    <glyph glyph-name="product" unicode="&#x220f;" horiz-adv-x="687" 
d="M543 16v687h-398v-687q0 -16 -16 -16h-20q-15 0 -15 16v718q0 16 15 16h469q16 0 16 -16v-718q0 -16 -16 -16h-19q-16 0 -16 16z" />
    <glyph glyph-name="summation" unicode="&#x2211;" horiz-adv-x="559" 
d="M308 343l-183 -296h354q15 0 15 -16v-15q0 -16 -15 -16h-401q-16 0 -16 16v23q0 9 16 31l189 309l-189 301q-16 22 -16 31v23q0 16 16 16h401q15 0 15 -16v-15q0 -16 -15 -16h-353l182 -289q15 -25 15 -31v-8q0 -6 -15 -32z" />
    <glyph glyph-name="minus" unicode="&#x2212;" 
d="M109 387h407q15 0 15 -16v-8q0 -15 -15 -15h-407q-15 0 -15 15v8q0 16 15 16z" />
    <glyph glyph-name="radical" unicode="&#x221a;" 
d="M64 531l178 -480l240 652q6 16 20 16h107q16 0 16 -16v-8q0 -15 -16 -15h-97l-248 -664q-6 -16 -20 -16h-13q-12 0 -18 16l-187 504q-5 12 -5 17q0 10 13 10h11q14 0 19 -16z" />
    <glyph glyph-name="infinity" unicode="&#x221e;" horiz-adv-x="598" 
d="M133 188q-60 0 -88.5 45t-28.5 111t28.5 111t88.5 45q35 0 61.5 -17.5t67.5 -68.5l31 -39q40 51 86 88t82 37q60 0 88.5 -44t28.5 -112q0 -66 -28.5 -111t-88.5 -45q-36 0 -66.5 18.5t-66.5 63.5l-35 43q-93 -125 -160 -125zM461 234q70 0 70 110q0 109 -70 109
q-26 0 -67.5 -31.5t-77.5 -73.5l39 -47q57 -67 106 -67zM133 234q56 0 137 106l-36 43q-58 70 -101 70q-70 0 -70 -109q0 -52 20 -81t50 -29z" />
    <glyph glyph-name="integral" unicode="&#x222b;" horiz-adv-x="344" 
d="M344 711h-71q-50 0 -73.5 -32t-23.5 -85v-625q0 -74 -35 -115.5t-102 -41.5h-70q-16 0 -16 16v8q0 16 16 16h70q50 0 74 32t24 85v625q0 74 35 115t101 41h71q15 0 15 -16v-7q0 -16 -15 -16z" />
    <glyph glyph-name="approxequal" unicode="&#x2248;" 
d="M531 482v-14q0 -12 -15 -30q-41 -47 -102 -47q-37 0 -109 33t-98 33q-58 0 -98 -55q-5 -8 -9 -8q-6 0 -6 10v15q0 13 15 29q41 48 102 48q37 0 109 -33t98 -33q65 0 98 52q5 9 10 9t5 -9zM531 264v-15q0 -13 -15 -29q-41 -48 -102 -48q-37 0 -109 33t-98 33
q-59 0 -98 -54q-6 -9 -9 -9q-6 0 -6 11v14q0 12 15 29q41 48 102 48q37 0 109 -33t98 -33q65 0 98 53q5 8 10 8t5 -8z" />
    <glyph glyph-name="notequal" unicode="&#x2260;" 
d="M207 117l41 121h-139q-15 0 -15 16v8q0 15 15 15h153l61 180h-214q-15 0 -15 16v7q0 16 15 16h227l45 129q5 16 19 16h9q13 0 13 -10q0 -4 -4 -14l-42 -121h140q15 0 15 -16v-7q0 -16 -15 -16h-153l-61 -180h214q15 0 15 -15v-8q0 -16 -15 -16h-228l-44 -129
q-5 -15 -19 -15h-9q-13 0 -13 10q0 3 4 13z" />
    <glyph glyph-name="lessequal" unicode="&#x2264;" 
d="M516 129l-407 211q-15 8 -15 19v15q0 13 15 21l407 210q4 2 6 2q9 0 9 -12v-16q0 -13 -15 -20l-368 -192l368 -191q15 -8 15 -21v-15q0 -13 -9 -13q-2 0 -6 2zM109 0h407q15 0 15 -16v-7q0 -16 -15 -16h-407q-15 0 -15 16v7q0 16 15 16z" />
    <glyph glyph-name="greaterequal" unicode="&#x2265;" 
d="M516 340l-407 -211q-4 -2 -6 -2q-9 0 -9 13v15q0 13 15 21l368 191l-368 192q-15 7 -15 20v16q0 12 9 12q2 0 6 -2l407 -210q15 -8 15 -21v-15q0 -11 -15 -19zM109 0h407q15 0 15 -16v-7q0 -16 -15 -16h-407q-15 0 -15 16v7q0 16 15 16z" />
    <glyph glyph-name="lozenge" unicode="&#x25ca;" horiz-adv-x="703" 
d="M352 82l253 293l-253 293l-254 -293zM53 400l273 321q15 15 24 15h3q9 0 24 -15l273 -321q13 -15 13 -24v-3q0 -10 -13 -23l-273 -321q-15 -15 -24 -15h-3q-9 0 -24 15l-273 321q-13 13 -13 23v3q0 9 13 24z" />
    <glyph glyph-name="dotlessj" unicode="&#xf6be;" horiz-adv-x="266" 
d="M-31 -188h-8q-16 0 -16 16v12q0 15 16 15h8q84 0 120 49.5t36 142.5v457h-86q-16 0 -16 16v11q0 16 16 16h117q16 0 16 -16v-468q0 -122 -47 -186.5t-156 -64.5z" />
    <glyph glyph-name="commaaccent" unicode="&#xf6c3;" horiz-adv-x="86" 
d="M1 -180l34 125q5 16 18 16h17q16 0 16 -16v-15q0 -15 -12 -35l-42 -75q-10 -15 -22 -15q-10 0 -10 8q0 4 1 7z" />
    <glyph glyph-name="CR" horiz-adv-x="200" 
 />
    <glyph glyph-name="a.superior" horiz-adv-x="474" 
d="M353 341v81l-31 -26q-25 -23 -41 -35.5t-46.5 -25t-63.5 -12.5q-58 0 -89 36t-31 93v103q0 89 63 142t165 53h101q13 0 13 -12v-397q0 -12 -13 -12h-14q-13 0 -13 12zM306 422l47 43v252h-78q-85 0 -134.5 -42.5t-49.5 -116.5v-106q0 -43 21.5 -69.5t65.5 -26.5
q54 0 128 66z" />
    <glyph glyph-name="b.superior" horiz-adv-x="474" 
d="M81 341v554q0 11 13 11h13q14 0 14 -11v-238l30 27q26 23 41 34.5t46.5 24.5t64.5 13q58 0 89 -36t31 -93v-103q0 -89 -63 -142t-165 -53h-101q-13 0 -13 12zM168 657l-47 -42v-253h77q86 0 135.5 42.5t49.5 116.5v106q0 43 -22 69.5t-65 26.5q-24 0 -48.5 -10.5
t-40.5 -22.5t-39 -33z" />
    <glyph glyph-name="c.superior" horiz-adv-x="403" 
d="M319 654v54q-38 15 -88 15q-67 0 -103.5 -34t-36.5 -95v-115q0 -59 34.5 -91t99.5 -32t121 27q4 2 6 2q7 0 7 -10v-10q0 -8 -13 -16q-54 -26 -121 -26q-83 0 -128.5 41t-45.5 115v115q0 74 48.5 118t131.5 44t128 -27v-75q0 -12 -13 -12h-13q-14 0 -14 12z" />
    <glyph glyph-name="d.superior" horiz-adv-x="474" 
d="M353 341v81l-31 -26q-25 -23 -41 -35.5t-46.5 -25t-63.5 -12.5q-58 0 -89 36t-31 93v103q0 89 63 142t165 53h74v145q0 11 13 11h14q13 0 13 -11v-554q0 -12 -13 -12h-14q-13 0 -13 12zM306 422l47 43v252h-78q-85 0 -134.5 -42.5t-49.5 -116.5v-106q0 -43 21.5 -69.5
t65.5 -26.5q54 0 128 66z" />
    <glyph glyph-name="e.superior" horiz-adv-x="430" 
d="M346 383q4 2 6 2q7 0 7 -10v-10q0 -9 -13 -16q-52 -26 -121 -26q-83 0 -128.5 41t-45.5 115v115q0 74 49.5 118t130.5 44q69 0 112.5 -30.5t43.5 -86.5q0 -55 -39.5 -83.5t-105.5 -28.5h-151v-48q0 -59 34.5 -91t99.5 -32q62 0 121 27zM91 594v-33h154q101 0 101 78
q0 41 -32 62.5t-83 21.5q-67 0 -103.5 -34t-36.5 -95z" />
    <glyph glyph-name="f.superior" horiz-adv-x="289" 
d="M289 873h-34q-52 0 -76.5 -22.5t-24.5 -70.5v-30h121q14 0 14 -12v-9q0 -12 -14 -12h-121v-376q0 -12 -13 -12h-13q-14 0 -14 12v376h-74q-13 0 -13 12v9q0 12 13 12h74v30q0 61 36.5 93.5t104.5 32.5h34q14 0 14 -11v-9q0 -13 -14 -13z" />
    <glyph glyph-name="g.superior" horiz-adv-x="474" 
d="M393 738v-345q0 -101 -56 -154.5t-166 -53.5h-80q-14 0 -14 11v10q0 12 14 12h84q178 0 178 172v11l-17 -8q-71 -39 -138 -39q-71 0 -109 38t-38 105v58q0 92 64 143.5t164 51.5h101q13 0 13 -12zM336 426l17 9v282h-78q-84 0 -134 -42t-50 -117v-61q0 -110 110 -110
q69 0 135 39z" />
    <glyph glyph-name="h.superior" horiz-adv-x="497" 
d="M81 341v554q0 11 13 11h13q14 0 14 -11v-238l33 30q79 69 142 69q121 0 121 -126v-289q0 -12 -14 -12h-13q-14 0 -14 12v289q0 93 -84 93q-51 0 -138 -78l-33 -30v-274q0 -12 -14 -12h-13q-13 0 -13 12z" />
    <glyph glyph-name="i.superior" horiz-adv-x="222" 
d="M101 858v37q0 11 13 11h14q13 0 13 -11v-37q0 -11 -13 -11h-14q-13 0 -13 11zM101 717h-74q-13 0 -13 12v9q0 12 13 12h101q13 0 13 -12v-397q0 -12 -13 -12h-14q-13 0 -13 12v376z" />
    <glyph glyph-name="j.superior" horiz-adv-x="229" 
d="M107 858v37q0 11 14 11h14q12 0 12 -11v-37q0 -11 -12 -11h-14q-14 0 -14 11zM-27 185h-6q-14 0 -14 11v10q0 12 14 12h6q72 0 103 37.5t31 109.5v352h-74q-12 0 -12 12v9q0 12 12 12h102q12 0 12 -12v-360q0 -94 -40 -143.5t-134 -49.5z" />
    <glyph glyph-name="k.superior" horiz-adv-x="406" 
d="M333 341l-162 202h-50v-202q0 -12 -14 -12h-13q-13 0 -13 12v554q0 11 13 11h13q14 0 14 -11v-319h54l150 162q11 12 20 12h22q8 0 8 -5q0 -3 -4 -7l-166 -177l176 -220q3 -4 3 -7q0 -5 -8 -5h-23q-10 0 -20 12z" />
    <glyph glyph-name="l.superior" horiz-adv-x="208" 
d="M87 873h-73q-14 0 -14 13v9q0 11 14 11h100q14 0 14 -11v-554q0 -12 -14 -12h-13q-14 0 -14 12v532z" />
    <glyph glyph-name="m.superior" horiz-adv-x="793" 
d="M81 341v397q0 12 13 12h13q14 0 14 -12v-81l33 30q79 69 142 69q106 0 119 -99h2l33 30q79 69 142 69q120 0 120 -126v-289q0 -12 -13 -12h-13q-14 0 -14 12v289q0 93 -84 93q-24 0 -52 -14.5t-43.5 -27t-42.5 -36.5l-33 -30v-274q0 -12 -14 -12h-13q-14 0 -14 12v289
q0 93 -84 93q-51 0 -138 -78l-33 -30v-274q0 -12 -14 -12h-13q-13 0 -13 12z" />
    <glyph glyph-name="n.superior" horiz-adv-x="497" 
d="M81 341v397q0 12 13 12h13q14 0 14 -12v-81l33 30q79 69 142 69q121 0 121 -126v-289q0 -12 -14 -12h-13q-14 0 -14 12v289q0 93 -84 93q-51 0 -138 -78l-33 -30v-274q0 -12 -14 -12h-13q-13 0 -13 12z" />
    <glyph glyph-name="o.superior" horiz-adv-x="477" 
d="M238 323q-98 0 -144.5 60t-46.5 160q0 98 47.5 155.5t143.5 57.5q99 0 145.5 -57t46.5 -156q0 -101 -45.5 -160.5t-146.5 -59.5zM238 356q152 0 152 187q0 180 -152 180q-151 0 -151 -180q0 -187 151 -187z" />
    <glyph glyph-name="p.superior" horiz-adv-x="474" 
d="M81 196v542q0 12 13 12h13q14 0 14 -12v-81l30 27q26 23 41 34.5t46.5 24.5t64.5 13q58 0 89 -36t31 -93v-103q0 -89 -63 -142t-165 -53h-74v-133q0 -11 -14 -11h-13q-13 0 -13 11zM168 657l-47 -42v-253h77q86 0 135.5 42.5t49.5 116.5v106q0 43 -22 69.5t-65 26.5
q-24 0 -48.5 -10.5t-40.5 -22.5t-39 -33z" />
    <glyph glyph-name="q.superior" horiz-adv-x="474" 
d="M353 196v226l-31 -26q-25 -23 -41 -35.5t-46.5 -25t-63.5 -12.5q-58 0 -89 36t-31 93v103q0 89 63 142t165 53h101q13 0 13 -12v-542q0 -11 -13 -11h-14q-13 0 -13 11zM306 422l47 43v252h-78q-85 0 -134.5 -42.5t-49.5 -116.5v-106q0 -43 21.5 -69.5t65.5 -26.5
q54 0 128 66z" />
    <glyph glyph-name="r.superior" horiz-adv-x="306" 
d="M279 714h-17q-48 0 -100 -54l-41 -41v-278q0 -12 -14 -12h-13q-13 0 -13 12v397q0 12 13 12h13q14 0 14 -12v-75l37 39q46 48 104 48h17q13 0 13 -12v-11q0 -13 -13 -13z" />
    <glyph glyph-name="s.superior" horiz-adv-x="417" 
d="M74 335q-13 3 -13 15v13q0 10 9 10q2 0 19 -4.5t24 -5.5q38 -7 78 -7q60 0 95.5 23t35.5 70q0 32 -18 48.5t-62 26.5l-67 16q-59 13 -86.5 34t-27.5 71q0 55 49.5 83t120.5 28q44 0 98 -9q14 -2 14 -14v-10q0 -11 -10 -11q-1 0 -9 1.5t-18.5 3t-16.5 2.5q-40 4 -58 4
q-130 0 -130 -78q0 -30 18 -45t56 -24l67 -15q26 -6 44.5 -13t37.5 -19.5t29 -32.5t10 -47q0 -61 -47.5 -93.5t-124.5 -32.5q-68 0 -117 12z" />
    <glyph glyph-name="t.superior" horiz-adv-x="329" 
d="M289 329h-34q-78 0 -109.5 35t-31.5 111v242h-74q-13 0 -13 12v9q0 12 13 12h74v84q0 13 14 13h13q13 0 13 -13v-84h121q14 0 14 -12v-9q0 -12 -14 -12h-121v-255q0 -52 25.5 -76t82.5 -24h27q14 0 14 -11v-10q0 -12 -14 -12z" />
    <glyph glyph-name="u.superior" horiz-adv-x="494" 
d="M413 738v-397q0 -12 -14 -12h-12q-14 0 -14 12v81l-34 -29q-76 -70 -141 -70q-121 0 -121 126v289q0 12 14 12h13q13 0 13 -12v-289q0 -42 20.5 -67.5t63.5 -25.5q54 0 138 79l34 30v273q0 12 14 12h12q14 0 14 -12z" />
    <glyph glyph-name="v.superior" horiz-adv-x="417" 
d="M369 738v-108q0 -99 -44.5 -175.5t-99.5 -125.5h-37q-53 48 -97 124.5t-44 176.5v108q0 12 14 12h13q13 0 13 -12v-108q0 -92 37.5 -161t83.5 -110q46 41 83.5 110t37.5 161v108q0 12 14 12h13q13 0 13 -12z" />
    <glyph glyph-name="w.superior" 
d="M578 738v-108q0 -97 -38 -177.5t-83 -123.5h-37q-27 25 -61.5 83t-46.5 107q-11 -49 -45.5 -107t-61.5 -83h-40q-44 42 -81 122.5t-37 178.5v108q0 12 14 12h13q13 0 13 -12v-108q0 -83 32.5 -161t68.5 -110q104 124 104 265v114q0 12 14 12h13q14 0 14 -12v-114
q0 -141 104 -265q35 32 67.5 110.5t32.5 160.5v108q0 12 14 12h13q14 0 14 -12z" />
    <glyph glyph-name="x.superior" horiz-adv-x="403" 
d="M179 542l-147 195q-3 5 -3 7q0 6 8 6h24q10 0 19 -12l123 -165l127 165q9 12 20 12h23q8 0 8 -6q0 -2 -3 -7l-150 -195l150 -200q3 -4 3 -7q0 -6 -8 -6h-23q-10 0 -20 12l-127 169l-130 -169q-10 -12 -19 -12h-24q-8 0 -8 6q0 3 3 7z" />
    <glyph glyph-name="y.superior" horiz-adv-x="494" 
d="M131 218h74q93 0 130.5 41.5t37.5 130.5v10l-10 -5q-66 -41 -144 -41q-70 0 -106 36t-36 101v247q0 12 14 12h13q13 0 13 -12v-247q0 -53 25.5 -79t82.5 -26q70 0 138 42l10 6v304q0 12 14 12h12q14 0 14 -12v-342q0 -105 -49 -158t-159 -53h-74q-14 0 -14 11v10
q0 12 14 12z" />
    <glyph glyph-name="z.superior" horiz-adv-x="430" 
d="M377 738q0 -15 -5 -24q-37 -60 -127 -176.5t-144 -175.5h268q14 0 14 -11v-10q0 -12 -14 -12h-308q-14 0 -14 12v6q0 9 7 16q65 71 146.5 178t125.5 176h-252q-13 0 -13 12v9q0 12 13 12h289q14 0 14 -12z" />
    <glyph glyph-name="zero.numerator" horiz-adv-x="508" 
d="M254 320q-167 0 -167 217q0 218 167 218q82 0 124 -55.5t42 -162.5q0 -217 -166 -217zM254 360q58 0 87.5 42t29.5 135t-29.5 135t-87.5 42q-59 0 -89 -42t-30 -135q0 -177 119 -177z" />
    <glyph glyph-name="one.numerator" horiz-adv-x="508" 
d="M255 699l-115 -43q-6 -2 -8 -2q-14 0 -14 15v12q0 11 16 17l136 50q4 2 15 2q18 0 18 -16v-393q0 -17 -18 -17h-13q-17 0 -17 17v358z" />
    <glyph glyph-name="two.numerator" horiz-adv-x="508" 
d="M104 341v34q0 100 118 147l48 20q87 35 87 92q0 75 -111 75h-102q-19 0 -19 17v8q0 16 19 16h102q160 0 160 -116q0 -82 -129 -132l-48 -19q-79 -30 -79 -108v-10h241q17 0 17 -16v-8q0 -17 -17 -17h-268q-19 0 -19 17z" />
    <glyph glyph-name="three.numerator" horiz-adv-x="508" 
d="M237 324h-115q-18 0 -18 17v8q0 16 18 16h115q59 0 92 23.5t33 69.5q0 78 -111 78h-70q-19 0 -19 17v9q0 6 5.5 10.5t13.5 4.5h106q60 31 60 72q0 60 -102 60h-110q-18 0 -18 17v8q0 16 18 16h110q72 0 111 -26t39 -75q0 -54 -57 -86q72 -29 72 -105q0 -60 -47 -97
t-126 -37z" />
    <glyph glyph-name="four.numerator" horiz-adv-x="508" 
d="M76 447v7q0 8 8 18q46 52 78.5 125t41.5 138q2 15 19 15h11q18 0 18 -13q0 -1 -8 -38q-30 -126 -105 -226h174v120q0 15 18 15h13q17 0 17 -15v-120h45q19 0 19 -17v-9q0 -15 -19 -15h-45v-91q0 -17 -17 -17h-13q-18 0 -18 17v91h-218q-19 0 -19 15z" />
    <glyph glyph-name="five.numerator" horiz-adv-x="508" 
d="M369 709h-204v-117h65q86 0 127.5 -33.5t41.5 -91.5q0 -59 -42 -101t-128 -42h-104q-19 0 -19 17v8q0 16 19 16h104q123 0 123 102q0 84 -122 84h-95q-8 0 -13 4.5t-5 10.5v168q0 16 18 16h234q18 0 18 -16v-8q0 -17 -18 -17z" />
    <glyph glyph-name="six.numerator" horiz-adv-x="508" 
d="M364 709h-65q-72 0 -109.5 -33t-37.5 -96v-17q62 29 109 29q72 0 110.5 -33.5t38.5 -98.5q0 -58 -39 -99t-117 -41q-150 0 -150 138v133q0 67 50.5 113t149.5 46h60q18 0 18 -16v-8q0 -17 -18 -17zM254 360q49 0 78.5 24.5t29.5 75.5q0 91 -101 91q-53 0 -109 -30v-65
q0 -96 102 -96z" />
    <glyph glyph-name="seven.numerator" horiz-adv-x="508" 
d="M243 368v-27q0 -17 -17 -17h-13q-19 0 -19 17v16q0 98 48.5 191t113.5 161h-254q-7 0 -12 5t-5 12v8q0 16 17 16h303q18 0 18 -16v-4q0 -8 -10 -20q-170 -172 -170 -342z" />
    <glyph glyph-name="eight.numerator" horiz-adv-x="508" 
d="M240 320q-66 0 -104.5 29t-38.5 91q0 59 69 100l18 11q-73 28 -73 95q0 56 41 82.5t96 26.5h18q56 0 93.5 -25.5t37.5 -80.5q0 -35 -14 -54t-45 -38l-20 -12q42 -17 65 -41t23 -64q0 -57 -41.5 -88.5t-103.5 -31.5h-21zM245 360h11q103 0 103 80q0 47 -61 70l-67 23
l-33 -19q-53 -32 -53 -74q0 -80 100 -80zM273 562l19 11q29 18 43 34t14 42q0 65 -88 65h-7q-94 0 -94 -68q0 -43 56 -63z" />
    <glyph glyph-name="nine.numerator" horiz-adv-x="508" 
d="M146 365h64q144 0 144 118v29q-59 -26 -106 -26q-71 0 -108.5 34.5t-37.5 97.5q0 59 38 98t114 39q148 0 148 -137v-135q0 -68 -45.5 -113.5t-143.5 -45.5h-67q-16 0 -16 17v8q0 16 16 16zM248 527q57 0 106 27v66q0 94 -100 94q-105 0 -105 -96q0 -91 99 -91z" />
    <glyph glyph-name="zero.denominator" horiz-adv-x="508" 
d="M254 -4q-167 0 -167 217q0 218 167 218q81 0 123.5 -56t42.5 -162q0 -217 -166 -217zM254 36q58 0 87.5 42t29.5 135t-29.5 135t-87.5 42q-59 0 -89 -42t-30 -135q0 -177 119 -177z" />
    <glyph glyph-name="one.denominator" horiz-adv-x="508" 
d="M257 375l-115 -43q-6 -2 -8 -2q-14 0 -14 15v11q0 12 16 18l135 50q6 2 16 2q18 0 18 -16v-393q0 -17 -18 -17h-13q-17 0 -17 17v358z" />
    <glyph glyph-name="two.denominator" horiz-adv-x="508" 
d="M104 17v34q0 100 117 147l48 20q87 35 87 92q0 75 -111 75h-102q-19 0 -19 16v9q0 16 19 16h102q160 0 160 -116q0 -82 -129 -132l-47 -19q-80 -30 -80 -108v-10h241q17 0 17 -17v-7q0 -17 -17 -17h-268q-18 0 -18 17z" />
    <glyph glyph-name="three.denominator" horiz-adv-x="508" 
d="M237 0h-115q-18 0 -18 17v7q0 17 18 17h115q59 0 92 23.5t33 69.5q0 78 -111 78h-70q-19 0 -19 17v8q0 16 19 16h106q60 29 60 72q0 60 -102 60h-110q-8 0 -13 5t-5 11v9q0 16 18 16h110q72 0 111 -26t39 -75q0 -54 -57 -86q72 -29 72 -105q0 -60 -47 -97t-126 -37z" />
    <glyph glyph-name="four.denominator" horiz-adv-x="508" 
d="M76 123v7q0 9 8 17q46 53 78.5 126t41.5 138q2 15 19 15h11q18 0 18 -13q0 -1 -8 -38q-30 -125 -105 -227h174v121q0 15 18 15h13q17 0 17 -15v-121h45q19 0 19 -16v-9q0 -16 -19 -16h-45v-90q0 -17 -17 -17h-13q-18 0 -18 17v90h-218q-19 0 -19 16z" />
    <glyph glyph-name="five.denominator" horiz-adv-x="508" 
d="M369 385h-204v-117h65q86 0 127.5 -33.5t41.5 -91.5q0 -59 -42 -101t-128 -42h-104q-19 0 -19 17v7q0 17 19 17h104q123 0 123 102q0 84 -122 84h-95q-18 0 -18 15v168q0 16 18 16h234q18 0 18 -16v-9q0 -6 -5 -11t-13 -5z" />
    <glyph glyph-name="six.denominator" horiz-adv-x="508" 
d="M364 385h-65q-72 0 -109.5 -33t-37.5 -96v-17q62 29 109 29q72 0 110.5 -33.5t38.5 -98.5q0 -59 -39 -99.5t-117 -40.5q-150 0 -150 138v133q0 67 50.5 113t149.5 46h60q18 0 18 -16v-9q0 -6 -5 -11t-13 -5zM254 36q108 0 108 100q0 91 -101 91q-55 0 -109 -31v-64
q0 -96 102 -96z" />
    <glyph glyph-name="seven.denominator" horiz-adv-x="508" 
d="M243 44v-27q0 -17 -17 -17h-13q-19 0 -19 17v16q0 98 48.5 191t113.5 161h-254q-7 0 -12 5t-5 11v9q0 16 17 16h303q18 0 18 -16v-4q0 -8 -10 -20q-170 -172 -170 -342z" />
    <glyph glyph-name="eight.denominator" horiz-adv-x="508" 
d="M240 -4q-143 0 -143 120q0 57 69 100l18 11q-73 28 -73 95q0 56 41 82.5t96 26.5h18q56 0 93.5 -26t37.5 -80q0 -36 -13.5 -54.5t-45.5 -38.5l-20 -11q42 -17 65 -41t23 -64q0 -57 -41.5 -88.5t-103.5 -31.5h-21zM245 36h11q103 0 103 80q0 47 -61 70l-67 23l-33 -20
q-53 -30 -53 -73q0 -80 100 -80zM273 238l19 11q29 18 43 34t14 42q0 65 -88 65h-7q-94 0 -94 -68q0 -43 56 -63z" />
    <glyph glyph-name="nine.denominator" horiz-adv-x="508" 
d="M146 41h64q144 0 144 118v28q-61 -25 -106 -25q-71 0 -108.5 34.5t-37.5 97.5q0 59 38 98t114 39q148 0 148 -137v-135q0 -68 -45.5 -113.5t-143.5 -45.5h-67q-16 0 -16 17v7q0 17 16 17zM248 203q56 0 106 26v67q0 94 -100 94q-105 0 -105 -96q0 -91 99 -91z" />
    <glyph glyph-name="Gcedilla" horiz-adv-x="660" 
d="M582 379v-340q-30 -14 -82.5 -26.5t-93.5 -12.5h-31q-154 0 -237 86t-83 242v94q0 153 88.5 244.5t239.5 91.5q97 0 184 -29q15 -5 15 -20v-16q0 -12 -10 -12q-2 0 -17 5q-86 25 -172 25q-131 0 -204.5 -76.5t-73.5 -212.5v-94q0 -133 69.5 -207t200.5 -74h31
q69 0 125 23v278h-156q-16 0 -16 15v16q0 16 16 16h191q16 0 16 -16zM300 -180l34 125q5 16 18 16h17q16 0 16 -16v-15q0 -15 -12 -35l-42 -75q-10 -15 -22 -15q-10 0 -10 8q0 4 1 7z" />
    <glyph glyph-name="gcedilla" horiz-adv-x="551" 
d="M457 531v-449q0 -131 -65 -200.5t-193 -69.5h-94q-15 0 -15 16v12q0 15 15 15h98q104 0 155.5 57.5t51.5 165.5v16l-19 -12q-86 -51 -161 -51q-83 0 -127 50.5t-44 137.5v74q0 119 75 186.5t190 67.5h117q16 0 16 -16zM391 125l19 12v367h-90q-98 0 -156.5 -54.5
t-58.5 -152.5v-78q0 -145 129 -145q72 0 157 51zM349 734l-34 -125q-5 -15 -18 -15h-17q-16 0 -16 15v16q0 13 12 35l42 74q10 16 22 16q10 0 10 -9q0 -4 -1 -7z" />
    <glyph glyph-name="Kcedilla" horiz-adv-x="563" 
d="M476 16l-288 351h-43v-351q0 -16 -16 -16h-20q-15 0 -15 16v718q0 16 15 16h20q16 0 16 -16v-320h46l284 320q13 16 24 16h26q11 0 11 -7q0 -5 -7 -12l-299 -336l307 -375q7 -9 7 -13q0 -7 -11 -7h-34q-12 0 -23 16zM224 -180l34 125q5 16 18 16h17q16 0 16 -16v-15
q0 -15 -12 -35l-42 -75q-10 -15 -22 -15q-10 0 -10 8q0 4 1 7z" />
    <glyph glyph-name="kcedilla" horiz-adv-x="473" 
d="M388 16l-189 261h-58v-261q0 -16 -16 -16h-16q-15 0 -15 16v718q0 16 15 16h16q16 0 16 -16v-414h62l175 211q13 16 23 16h24q11 0 11 -7q0 -5 -4 -9l-194 -230l205 -285q4 -5 4 -9q0 -7 -11 -7h-26q-11 0 -22 16zM183 -180l34 125q5 16 18 16h17q16 0 16 -16v-15
q0 -15 -12 -35l-42 -75q-10 -15 -22 -15q-10 0 -10 8q0 4 1 7z" />
    <glyph glyph-name="Lcedilla" horiz-adv-x="492" 
d="M461 0h-191q-176 0 -176 172v562q0 16 15 16h20q16 0 16 -16v-566q0 -121 121 -121h195q16 0 16 -16v-15q0 -16 -16 -16zM228 -180l34 125q5 16 18 16h17q16 0 16 -16v-15q0 -15 -12 -35l-42 -75q-10 -15 -22 -15q-10 0 -10 8q0 4 1 7z" />
    <glyph glyph-name="lcedilla" horiz-adv-x="242" 
d="M102 707h-86q-16 0 -16 16v11q0 16 16 16h117q15 0 15 -16v-718q0 -16 -15 -16h-16q-15 0 -15 16v691zM60 -180l34 125q5 16 18 16h17q16 0 16 -16v-15q0 -15 -12 -35l-42 -75q-10 -15 -22 -15q-10 0 -10 8q0 4 1 7z" />
    <glyph glyph-name="Ncedilla" horiz-adv-x="687" 
d="M547 12l-402 629v-625q0 -16 -16 -16h-20q-15 0 -15 16v718q0 16 15 16h12q11 0 20 -12l402 -629v625q0 16 16 16h19q16 0 16 -16v-718q0 -16 -16 -16h-12q-10 0 -19 12zM267 -180l34 125q5 16 18 16h17q16 0 16 -16v-15q0 -15 -12 -35l-42 -75q-10 -15 -22 -15
q-10 0 -10 8q0 4 1 7z" />
    <glyph glyph-name="ncedilla" horiz-adv-x="578" 
d="M94 16v515q0 16 15 16h16q16 0 16 -16v-105l39 39q90 90 164 90q140 0 140 -164v-375q0 -16 -15 -16h-16q-16 0 -16 16v375q0 121 -97 121q-27 0 -60 -19t-51 -35.5t-49 -47.5l-39 -39v-355q0 -16 -16 -16h-16q-15 0 -15 16zM224 -180l34 125q5 16 18 16h17q16 0 16 -16
v-15q0 -15 -12 -35l-42 -75q-10 -15 -22 -15q-10 0 -10 8q0 4 1 7z" />
    <glyph glyph-name="Rcedilla" horiz-adv-x="609" 
d="M504 15q-23 68 -73.5 163.5t-94.5 134.5h-191v-297q0 -16 -16 -16h-20q-15 0 -15 16v718q0 16 15 16h219q107 0 155 -52.5t48 -162.5q0 -73 -38.5 -128t-105.5 -75q42 -41 88 -126.5t76 -162.5q11 -30 11 -32q0 -11 -13 -11h-28q-12 0 -17 15zM336 703h-191v-344h171
q75 0 119.5 49.5t44.5 126.5q0 86 -32.5 127t-111.5 41zM235 -180l34 125q5 16 18 16h17q16 0 16 -16v-15q0 -15 -12 -35l-42 -75q-10 -15 -22 -15q-10 0 -10 8q0 4 1 7z" />
    <glyph glyph-name="rcedilla" horiz-adv-x="355" 
d="M324 500h-19q-56 0 -117 -70l-47 -55v-359q0 -16 -16 -16h-16q-15 0 -15 16v515q0 16 15 16h16q16 0 16 -16v-97l43 50q52 63 121 63h19q16 0 16 -16v-15q0 -16 -16 -16zM54 -180l34 125q5 16 18 16h17q16 0 16 -16v-15q0 -15 -12 -35l-42 -75q-10 -15 -22 -15
q-10 0 -10 8q0 4 1 7z" />
    <glyph glyph-name="caronquoteleft" horiz-adv-x="86" 
d="M85 734l-34 -125q-5 -15 -18 -15h-17q-16 0 -16 15v16q0 13 12 35l42 74q10 16 22 16q10 0 10 -9q0 -4 -1 -7z" />
    <glyph glyph-name="caronquoteright" horiz-adv-x="86" 
d="M1 609l34 125q5 16 18 16h17q16 0 16 -16v-15q0 -15 -12 -35l-42 -75q-10 -15 -22 -15q-10 0 -10 9q0 3 1 6z" />
    </font>
</defs>
</svg>
